<svg width="31" height="31" viewBox="0 0 31 31" fill="none" xmlns="http://www.w3.org/2000/svg">
<path d="M12.5938 15.5C12.3368 15.5 12.0904 15.6021 11.9087 15.7837C11.7271 15.9654 11.625 16.2118 11.625 16.4688C11.625 16.7257 11.7271 16.9721 11.9087 17.1538C12.0904 17.3354 12.3368 17.4375 12.5938 17.4375H18.4062C18.6632 17.4375 18.9096 17.3354 19.0913 17.1538C19.2729 16.9721 19.375 16.7257 19.375 16.4688C19.375 16.2118 19.2729 15.9654 19.0913 15.7837C18.9096 15.6021 18.6632 15.5 18.4062 15.5H12.5938ZM1.9375 6.78125C1.9375 6.01046 2.24369 5.27125 2.78872 4.72622C3.33375 4.18119 4.07297 3.875 4.84375 3.875H26.1562C26.927 3.875 27.6663 4.18119 28.2113 4.72622C28.7563 5.27125 29.0625 6.01046 29.0625 6.78125V8.71875C29.0628 9.32001 28.8766 9.90656 28.5296 10.3976C28.1826 10.8886 27.6919 11.2599 27.125 11.4603V22.2812C27.125 23.5659 26.6147 24.7979 25.7063 25.7063C24.7979 26.6147 23.5659 27.125 22.2812 27.125H8.71875C7.43411 27.125 6.20208 26.6147 5.2937 25.7063C4.38532 24.7979 3.875 23.5659 3.875 22.2812V11.4603C3.30813 11.2599 2.81737 10.8886 2.47037 10.3976C2.12336 9.90656 1.93719 9.32001 1.9375 8.71875V6.78125ZM4.84375 5.8125C4.58682 5.8125 4.34042 5.91456 4.15874 6.09624C3.97707 6.27792 3.875 6.52432 3.875 6.78125V8.71875C3.875 8.97568 3.97707 9.22208 4.15874 9.40376C4.34042 9.58544 4.58682 9.6875 4.84375 9.6875H26.1562C26.4132 9.6875 26.6596 9.58544 26.8413 9.40376C27.0229 9.22208 27.125 8.97568 27.125 8.71875V6.78125C27.125 6.52432 27.0229 6.27792 26.8413 6.09624C26.6596 5.91456 26.4132 5.8125 26.1562 5.8125H4.84375ZM5.8125 11.625V22.2812C5.8125 23.052 6.11869 23.7913 6.66372 24.3363C7.20875 24.8813 7.94797 25.1875 8.71875 25.1875H22.2812C23.052 25.1875 23.7913 24.8813 24.3363 24.3363C24.8813 23.7913 25.1875 23.052 25.1875 22.2812V11.625H5.8125Z" fill="#3D3D3D"/>
</svg>
