<svg width="344" height="337" viewBox="0 0 344 337" fill="none" xmlns="http://www.w3.org/2000/svg">
<path d="M60.6041 82.1788L54.3531 127.99L126.592 137.847L132.843 92.0357L60.6041 82.1788Z" fill="#EBEBEB"/>
<path d="M60.6046 82.17C63.1421 85.3719 65.7517 88.4377 68.3133 91.5836C70.8748 94.7295 73.5164 97.7714 76.142 100.829C78.8717 104.031 81.6253 107.233 84.371 110.363C84.459 110.459 84.5311 110.563 84.6191 110.667C87.0579 113.453 89.5047 116.236 91.9596 119.016L92.3198 119.416L92.768 119.128C95.8739 117.106 98.9745 115.073 102.07 113.029C102.18 112.965 102.287 112.895 102.39 112.82C105.907 110.515 109.407 108.186 112.892 105.832C116.222 103.591 119.568 101.31 122.89 99.0281C126.212 96.7468 129.542 94.4174 132.84 92.0239C129.414 93.9931 126.02 96.0824 122.618 98.1156C119.216 100.149 115.822 102.27 112.436 104.399C108.668 106.742 104.901 109.125 101.133 111.548C98.3101 113.341 95.487 115.145 92.664 116.959C90.4466 114.461 88.2133 111.948 85.9719 109.474C82.9941 106.155 80.003 102.852 76.9985 99.5645C74.2982 96.6187 71.5899 93.6836 68.8736 90.7591C66.0799 87.9094 63.3743 84.9877 60.6046 82.17Z" fill="white"/>
<path d="M100.869 112.58C100.897 112.608 100.924 112.637 100.949 112.668L101.957 113.789C103.558 115.566 105.215 117.279 106.904 118.96C108.97 121.025 111.091 123.035 113.228 125.028C115.366 127.021 117.543 128.942 119.776 130.831C122.01 132.72 124.259 134.594 126.612 136.339C124.683 134.121 122.61 132.024 120.585 129.935C118.559 127.846 116.39 125.86 114.269 123.875C112.148 121.89 109.938 119.945 107.713 118.048C105.944 116.535 104.135 115.046 102.27 113.621C101.843 113.285 101.41 112.957 100.973 112.636L100.869 112.58Z" fill="white"/>
<path d="M54.7212 126.541C57.4669 125.484 60.1485 124.291 62.7901 123.067C65.4317 121.842 68.0492 120.529 70.6588 119.216C73.2684 117.904 75.8379 116.511 78.3755 115.07C80.4487 113.901 82.498 112.668 84.5072 111.42C84.9475 111.147 85.3717 110.875 85.796 110.619L85.892 110.555C85.8526 110.565 85.8113 110.565 85.772 110.555L84.251 111.171C82.0817 112.044 79.9524 113.005 77.8472 113.981C75.1976 115.214 72.588 116.511 69.9864 117.839C67.3848 119.168 64.8153 120.545 62.2698 121.994C59.7242 123.443 57.1787 124.916 54.7212 126.541Z" fill="white"/>
<path d="M79.0133 15.8844L19.27 31.0462L28.8849 68.9328L88.6283 53.771L79.0133 15.8844Z" fill="#EBEBEB"/>
<path d="M19.2673 31.0431C22.2691 32.7401 25.287 34.325 28.2968 35.974C31.3066 37.623 34.3324 39.176 37.3583 40.7769C40.5122 42.4259 43.6741 44.0349 46.836 45.6439L47.1242 45.804L55.5212 50.0225L55.9295 50.2226L56.1936 49.8544C57.9867 47.2849 59.7638 44.7073 61.5489 42.1297C61.6149 42.0422 61.6763 41.9514 61.733 41.8576C63.7609 38.9438 65.7674 36.0087 67.7526 33.0523C69.6578 30.2426 71.5549 27.3928 73.4361 24.5511C75.3172 21.7094 77.1903 18.8277 79.0394 15.9139C76.9742 18.5395 74.981 21.2531 72.9558 23.9187C70.9305 26.5844 68.9533 29.33 66.9681 32.0677C64.7588 35.1042 62.5575 38.1674 60.3642 41.2572C58.7258 43.5573 57.0849 45.8653 55.4412 48.1814C52.8796 46.9006 50.3341 45.6599 47.7966 44.4271C44.4025 42.7621 41.0085 41.1185 37.6144 39.4962C34.5726 38.0473 31.5227 36.6064 28.4729 35.1976C25.4231 33.7887 22.3412 32.3719 19.2673 31.0431Z" fill="white"/>
<path d="M60.4768 42.0977C60.5044 42.1168 60.5339 42.1329 60.5649 42.1457L61.7096 42.7061C63.5293 43.5866 65.3678 44.4138 67.2249 45.1876C69.4983 46.1642 71.7956 47.0607 74.101 47.9413C76.4064 48.8218 78.7278 49.6463 81.0733 50.4227C83.4187 51.1992 85.7801 51.9517 88.1815 52.576C85.9642 51.4474 83.7068 50.4468 81.4415 49.4782C79.1761 48.5096 76.8547 47.6131 74.5573 46.7325C72.2599 45.852 69.9225 45.0195 67.5771 44.243C65.712 43.6186 63.8228 43.0183 61.9097 42.49C61.4694 42.3619 61.0291 42.2498 60.5809 42.1297L60.4768 42.0977Z" fill="white"/>
<path d="M28.7209 67.7131C30.538 66.0241 32.2591 64.239 33.9401 62.4299C35.6211 60.6209 37.2701 58.7797 38.8951 56.9306C40.5201 55.0815 42.097 53.1603 43.626 51.2312C44.8827 49.6302 46.1155 48.0292 47.2842 46.4283L48.0286 45.3796C48.0286 45.3796 48.0286 45.3236 48.0846 45.2996L48.0046 45.3716C47.6684 45.6918 47.3322 46.004 47.004 46.3322C45.5791 47.701 44.2103 49.1259 42.8575 50.5748C41.1685 52.3759 39.5355 54.225 37.9185 56.0821C36.3015 57.9392 34.7166 59.8444 33.1876 61.7815C31.6587 63.7187 30.1298 65.6319 28.7209 67.7131Z" fill="white"/>
<path d="M326.602 180.188L265.384 187.369L269.938 226.19L331.155 219.01L326.602 180.188Z" fill="#EBEBEB"/>
<path d="M265.376 187.385C268.13 189.459 270.915 191.428 273.677 193.469C276.439 195.51 279.24 197.432 282.034 199.385C284.828 201.338 287.87 203.443 290.791 205.452L291.056 205.645C293.633 207.411 296.221 209.175 298.82 210.936L299.205 211.184L299.509 210.856C301.643 208.545 303.751 206.226 305.833 203.899C305.913 203.825 305.988 203.745 306.057 203.659C308.442 201.034 310.817 198.387 313.181 195.719C315.438 193.189 317.688 190.611 319.929 188.042C322.17 185.472 324.404 182.863 326.597 180.205C324.196 182.543 321.874 185.008 319.513 187.353C317.151 189.699 314.83 192.156 312.501 194.646C309.912 197.357 307.332 200.102 304.76 202.883C302.831 204.948 300.91 207.029 298.98 209.103C296.627 207.502 294.274 205.941 291.92 204.388C288.782 202.29 285.634 200.215 282.474 198.16C279.657 196.319 276.826 194.499 273.981 192.701C271.076 190.932 268.242 189.107 265.376 187.385Z" fill="white"/>
<path d="M304.752 203.795L304.832 203.851C305.185 204.092 305.545 204.332 305.897 204.556C307.586 205.677 309.299 206.733 311.044 207.758C313.166 209.015 315.327 210.207 317.496 211.392C319.665 212.577 321.859 213.681 324.084 214.762C326.309 215.843 328.543 216.899 330.84 217.828C328.799 216.419 326.686 215.13 324.564 213.882C322.443 212.633 320.266 211.424 318.105 210.247C315.943 209.071 313.734 207.942 311.517 206.861C309.747 205.997 307.946 205.156 306.121 204.38C305.705 204.198 305.281 204.022 304.848 203.851L304.752 203.795Z" fill="white"/>
<path d="M269.931 224.952C271.956 223.511 273.933 221.966 275.798 220.405C277.664 218.845 279.577 217.204 281.402 215.603C283.227 214.002 285.068 212.297 286.845 210.576C288.294 209.183 289.719 207.766 291.096 206.293L291.976 205.348C292 205.326 292.021 205.302 292.04 205.276C292.015 205.301 291.985 205.32 291.952 205.332L290.84 206.133C289.239 207.31 287.702 208.534 286.165 209.791C284.252 211.392 282.394 212.993 280.561 214.594C278.728 216.195 276.895 217.9 275.118 219.621C273.341 221.342 271.596 223.103 269.931 224.952Z" fill="white"/>
<path d="M278.44 98.6279L267.929 98.852L262.598 98.94C260.813 98.9801 259.02 98.9401 257.235 98.9881H256.883V98.6279L256.835 89.6704V89.2702H257.235L267.833 89.3182C271.363 89.3182 274.902 89.4143 278.432 89.4543H278.656V89.6704C278.656 91.1914 278.592 92.7043 278.552 94.1932L278.44 98.6279ZM278.44 98.6279L278.336 94.1291C278.296 92.6322 278.248 91.1594 278.232 89.6945L278.448 89.9106C274.918 89.9506 271.379 90.0387 267.849 90.0467L257.251 90.0947L257.651 89.6945V98.6519L257.291 98.2917C259.036 98.2917 260.781 98.2917 262.534 98.3397L267.801 98.4277L278.44 98.6279Z" fill="#EBEBEB"/>
<path d="M266.617 109.923L256.107 110.147L250.775 110.235C248.998 110.235 247.205 110.235 245.42 110.283H245.068V109.923L245.028 100.965V100.533H245.428L256.026 100.581C259.557 100.581 263.095 100.677 266.625 100.717H266.849V100.933C266.849 102.454 266.785 103.967 266.745 105.456L266.617 109.923ZM266.617 109.923L266.505 105.4C266.465 103.903 266.417 102.43 266.401 100.965L266.617 101.181C263.087 101.221 259.549 101.309 256.018 101.317L245.42 101.366L245.82 100.965L245.772 109.923L245.42 109.562C247.165 109.562 248.91 109.562 250.655 109.611L255.922 109.699L266.617 109.923Z" fill="#EBEBEB"/>
<path d="M290.263 109.923L279.761 110.147L274.429 110.235C272.644 110.235 270.851 110.235 269.066 110.283H268.73V109.923L268.682 100.965V100.533H269.082L279.681 100.581C283.219 100.581 286.749 100.677 290.279 100.717H290.503V100.933C290.503 102.454 290.431 103.967 290.391 105.456L290.263 109.923ZM290.263 109.923L290.151 105.4C290.151 103.903 290.063 102.43 290.047 100.965L290.263 101.181C286.733 101.221 283.203 101.309 279.665 101.317L269.066 101.366L269.466 100.965L269.426 109.923L269.066 109.562C270.811 109.562 272.556 109.562 274.309 109.611L279.576 109.699L290.263 109.923Z" fill="#EBEBEB"/>
<path d="M330.648 17.5149L320.137 17.739L314.806 17.8271C313.021 17.8271 311.236 17.8271 309.451 17.8751H309.091V17.5149L309.051 8.55747V8.15723H309.459L320.057 8.20526C323.587 8.20526 327.117 8.30132 330.656 8.34134H330.872V8.55747C330.872 10.0784 330.8 11.5913 330.768 13.0802L330.648 17.5149ZM330.648 17.5149L330.528 12.9921C330.528 11.4952 330.439 10.0224 330.423 8.55747L330.648 8.7736C327.109 8.81362 323.579 8.90168 320.049 8.90968L309.451 8.95771L309.843 8.55747L309.803 17.5149L309.451 17.1547C311.196 17.1547 312.933 17.1547 314.686 17.2027L319.961 17.2827L330.648 17.5149Z" fill="#EBEBEB"/>
<path d="M342.471 28.8097L331.969 29.0338L326.637 29.1218C324.86 29.1218 323.067 29.1218 321.282 29.1699H320.922V28.8097L320.882 19.8522V19.452H321.282L331.88 19.5C335.411 19.5 338.941 19.5961 342.479 19.6361H342.695V19.8522C342.695 21.3732 342.623 22.8861 342.591 24.375L342.471 28.8097ZM342.471 28.8097L342.375 24.2869C342.335 22.79 342.279 21.3171 342.263 19.8522L342.487 20.0684C338.949 20.1084 335.419 20.1964 331.888 20.2045L321.29 20.2525L321.69 19.8522L321.642 28.8097L321.29 28.4494C323.035 28.4494 324.772 28.4494 326.525 28.4975L331.792 28.5855L342.471 28.8097Z" fill="#EBEBEB"/>
<path d="M30.4743 17.5225L19.972 17.7466L14.6407 17.8347C12.8557 17.8747 11.0626 17.8347 9.2775 17.8827H8.92529V17.5225L8.87726 8.5651V8.16486H9.2775L19.8759 8.22089C23.414 8.22089 26.9442 8.30894 30.4743 8.34897H30.6984V8.5651C30.6984 10.086 30.6264 11.5989 30.5864 13.0958L30.4743 17.5225ZM30.4743 17.5225L30.3622 12.9998C30.3622 11.5109 30.2742 10.03 30.2582 8.5651L30.4743 8.78923C26.9442 8.78923 23.414 8.9093 19.8759 8.91731L9.2775 8.96534L9.67774 8.5651L9.63772 17.5225L9.2775 17.1703C11.0226 17.1703 12.7676 17.1703 14.5207 17.1703L19.7798 17.2824L30.4743 17.5225Z" fill="#EBEBEB"/>
<path d="M321.274 225.817L331.776 225.593L337.107 225.505C338.892 225.464 340.686 225.505 342.471 225.456H342.823V225.817L342.871 234.774V235.174H342.471L331.872 235.118C328.334 235.118 324.804 235.03 321.274 234.99H321.05V234.774C321.05 233.253 321.122 231.74 321.154 230.243L321.274 225.817ZM321.274 225.817L321.386 230.339C321.386 231.828 321.474 233.309 321.49 234.774L321.274 234.55C324.804 234.51 328.334 234.43 331.872 234.422L342.471 234.374L342.07 234.774L342.11 225.817L342.471 226.169C340.726 226.169 338.981 226.169 337.227 226.129L331.96 226.041L321.274 225.817Z" fill="#EBEBEB"/>
<path d="M9.27728 225.817L19.7796 225.593L25.1108 225.505C26.8879 225.464 28.681 225.505 30.4661 225.456H30.8263V225.817V234.774V235.174H30.4261L19.8277 235.118C16.2975 235.118 12.7674 235.03 9.22925 234.99H9.01312V234.774C9.01312 233.253 9.08517 231.74 9.11719 230.243L9.27728 225.817ZM9.27728 225.817L9.38935 230.339C9.38935 231.828 9.48541 233.309 9.50142 234.774L9.27728 234.55C12.8154 234.51 16.3456 234.43 19.8757 234.422L30.4741 234.374L30.0738 234.774L30.1219 225.817L30.4741 226.169C28.729 226.169 26.992 226.169 25.2389 226.129L19.9717 226.041L9.27728 225.817Z" fill="#EBEBEB"/>
<path d="M21.1005 214.522L31.6109 214.298L36.9421 214.21C38.7272 214.17 40.5123 214.21 42.2973 214.162H42.6576V214.522V223.479V223.88H42.2493L31.6989 223.808C28.1688 223.808 24.6387 223.719 21.1005 223.679H20.8844V223.463C20.8844 221.942 20.9564 220.429 20.9885 218.933L21.1005 214.522ZM21.1005 214.522L21.2206 219.045C21.2206 220.534 21.3087 222.014 21.3247 223.479L21.1005 223.255C24.6387 223.215 28.1688 223.135 31.6989 223.127L42.2973 223.079L41.9051 223.479V214.522L42.2573 214.874C40.5123 214.874 38.7752 214.874 37.0222 214.874L31.787 214.746L21.1005 214.522Z" fill="#EBEBEB"/>
<path d="M234.926 79.8885L343.992 79.8885V73.4126L234.926 73.4126V79.8885Z" fill="#EBEBEB"/>
<path d="M335.715 79.8885H329.239V101.309H335.715V79.8885Z" fill="#EBEBEB"/>
<path d="M335.715 79.8885H329.239V86.5085H335.715V79.8885Z" fill="#DBDBDB"/>
<path d="M249.679 79.8885H243.203V101.309H249.679V79.8885Z" fill="#EBEBEB"/>
<path d="M249.679 79.8885H243.203V86.5085H249.679V79.8885Z" fill="#DBDBDB"/>
<path d="M316.431 73.4126V32.1396H306.041V73.4126H316.431Z" fill="#C7C7C7"/>
<path d="M316.44 34.477V29.9383H306.049V34.477H316.44Z" fill="#DBDBDB"/>
<path d="M316.431 41.9616V40.2805H306.041V41.9616H316.431Z" fill="#DBDBDB"/>
<path d="M316.44 68.0094V63.4706H304.753V68.0094H316.44Z" fill="#DBDBDB"/>
<path d="M306.041 73.4207V25.2716H298.78V73.4207H306.041Z" fill="#DBDBDB"/>
<path d="M304.624 48.3096V29.7944H300.261V48.3096H304.624Z" fill="#EBEBEB"/>
<path d="M252.21 73.4459L286.452 39.596L281.348 34.4327L247.105 68.2826L252.21 73.4459Z" fill="#C7C7C7"/>
<path d="M259.209 64.4501L272.376 51.4335L269.309 48.3309L256.142 61.3475L259.209 64.4501Z" fill="#DBDBDB"/>
<path d="M298.781 73.4286V36.8545H286.445V73.4286H298.781Z" fill="#A6A6A6"/>
<path d="M298.772 69.5462V66.1362H286.437V69.5462H298.772Z" fill="#C7C7C7"/>
<path d="M298.772 63.9028V62.582H286.437V63.9028H298.772Z" fill="#C7C7C7"/>
<path d="M324.956 73.4286V39.0558H316.431V73.4286H324.956Z" fill="#A6A6A6"/>
<path d="M324.956 69.7784V66.5765H316.431V69.7784H324.956Z" fill="#C7C7C7"/>
<path d="M324.948 49.3341V46.1322H316.423V49.3341H324.948Z" fill="#C7C7C7"/>
<path d="M324.956 52.7762V51.5355H316.431V52.7762H324.956Z" fill="#C7C7C7"/>
<path d="M7.7489 329.895L49.7823 329.703L91.8157 329.631L175.874 329.495L259.933 329.631L301.967 329.703L344 329.895L301.967 330.096L259.933 330.16L175.874 330.296L91.8157 330.16L49.7823 330.087L7.7489 329.895Z" fill="#263238"/>
<path d="M303.255 259.165C314.918 270.579 316.864 288.246 314.414 303.719C314.35 304.072 313.806 303.976 313.806 303.647C313.806 300.125 313.918 296.635 313.902 293.153C313.838 292.993 313.79 292.841 313.726 292.681C310.684 290.471 307.882 287.974 306.145 284.54C304.2 280.714 303.431 276.391 301.943 272.388C301.806 272.004 302.215 272.116 302.479 272.316C309.579 277.552 311.837 283.179 313.87 290.728C313.828 286.791 313.415 282.867 312.637 279.008C311.108 271.868 308.074 264.792 302.943 259.493C302.9 259.451 302.874 259.394 302.873 259.334C302.871 259.274 302.894 259.216 302.935 259.173C302.977 259.129 303.034 259.104 303.094 259.102C303.154 259.101 303.212 259.123 303.255 259.165Z" fill="#263238"/>
<path d="M301.062 260.493C299.053 260.565 297.796 263.767 296.259 264.704C296.095 264.837 295.905 264.934 295.701 264.989C295.497 265.045 295.283 265.056 295.074 265.024C294.865 264.991 294.666 264.916 294.488 264.801C294.31 264.687 294.158 264.536 294.042 264.36C292.489 262.19 294.618 259.557 296.62 258.036C295.187 258.62 294.002 259.637 292.457 259.949C292.26 260.013 292.051 260.034 291.845 260.01C291.639 259.986 291.441 259.918 291.263 259.811C291.086 259.704 290.933 259.561 290.816 259.39C290.699 259.219 290.62 259.025 290.584 258.82C289.904 255.875 293.602 254.562 296.139 254.498C294.907 253.649 291.384 251.296 293.258 250.175C295.131 249.054 299.293 252.352 300.646 253.449C302.623 255.05 304.993 257.452 305.081 259.981C305.177 262.919 302.607 261.11 301.062 260.493Z" fill="#4240C2"/>
<path opacity="0.1" d="M301.062 260.493C299.053 260.565 297.796 263.767 296.259 264.704C296.095 264.837 295.905 264.934 295.701 264.989C295.497 265.045 295.283 265.056 295.074 265.024C294.865 264.991 294.666 264.916 294.488 264.801C294.31 264.687 294.158 264.536 294.042 264.36C292.489 262.19 294.618 259.557 296.62 258.036C295.187 258.62 294.002 259.637 292.457 259.949C292.26 260.013 292.051 260.034 291.845 260.01C291.639 259.986 291.441 259.918 291.263 259.811C291.086 259.704 290.933 259.561 290.816 259.39C290.699 259.219 290.62 259.025 290.584 258.82C289.904 255.875 293.602 254.562 296.139 254.498C294.907 253.649 291.384 251.296 293.258 250.175C295.131 249.054 299.293 252.352 300.646 253.449C302.623 255.05 304.993 257.452 305.081 259.981C305.177 262.919 302.607 261.11 301.062 260.493Z" fill="black"/>
<path d="M301.639 260.99C299.077 259.821 294.146 261.502 293.73 260.533C292.882 258.556 296.82 257.195 298.941 256.939C296.988 256.403 293.234 255.562 293.338 253.673C293.482 251.368 299.093 253.353 301.935 255.53C305.513 258.276 305.489 260.918 304.897 261.454C304.096 262.174 302.063 261.182 301.639 260.99Z" fill="#4240C2"/>
<path d="M329.816 258.036C317.729 269.003 315.095 286.581 316.968 302.135C317.016 302.487 317.561 302.415 317.577 302.078C317.705 298.564 317.737 295.066 317.881 291.592L318.073 291.128C321.203 289.039 324.093 286.645 325.958 283.283C328.047 279.529 328.976 275.238 330.617 271.276C330.777 270.9 330.36 270.996 330.088 271.18C322.796 276.143 320.322 281.682 318.001 289.127C318.197 285.195 318.76 281.291 319.682 277.464C321.483 270.387 324.781 263.431 330.088 258.332C330.312 258.156 330.024 257.836 329.816 258.036Z" fill="#263238"/>
<path d="M331.969 259.445C333.97 259.589 335.107 262.839 336.636 263.839C336.794 263.979 336.981 264.084 337.183 264.147C337.385 264.209 337.597 264.229 337.807 264.204C338.017 264.179 338.22 264.11 338.401 264.002C338.583 263.894 338.739 263.748 338.861 263.575C340.462 261.47 338.469 258.724 336.532 257.171C337.933 257.812 339.077 258.892 340.606 259.245C340.801 259.317 341.009 259.346 341.217 259.331C341.424 259.316 341.626 259.256 341.808 259.156C341.991 259.055 342.149 258.917 342.273 258.75C342.397 258.583 342.484 258.391 342.527 258.188C343.328 255.274 339.67 253.817 337.14 253.657C338.405 252.857 342.015 250.663 340.182 249.447C338.349 248.23 334.074 251.392 332.681 252.44C330.64 253.969 328.183 256.283 327.999 258.796C327.75 261.71 330.368 260.005 331.969 259.445Z" fill="#4240C2"/>
<path opacity="0.1" d="M331.969 259.445C333.97 259.589 335.107 262.839 336.636 263.839C336.794 263.979 336.981 264.084 337.183 264.147C337.385 264.209 337.597 264.229 337.807 264.204C338.017 264.179 338.22 264.11 338.401 264.002C338.583 263.894 338.739 263.748 338.861 263.575C340.462 261.47 338.469 258.724 336.532 257.171C337.933 257.812 339.077 258.892 340.606 259.245C340.801 259.317 341.009 259.346 341.217 259.331C341.424 259.316 341.626 259.256 341.808 259.156C341.991 259.055 342.149 258.917 342.273 258.75C342.397 258.583 342.484 258.391 342.527 258.188C343.328 255.274 339.67 253.817 337.14 253.657C338.405 252.857 342.015 250.663 340.182 249.447C338.349 248.23 334.074 251.392 332.681 252.44C330.64 253.969 328.183 256.283 327.999 258.796C327.75 261.71 330.368 260.005 331.969 259.445Z" fill="black"/>
<path d="M331.352 259.917C333.962 258.852 338.821 260.717 339.277 259.765C340.206 257.82 336.323 256.315 334.202 255.971C336.179 255.514 339.966 254.81 339.918 252.921C339.87 250.615 334.186 252.384 331.264 254.45C327.582 257.059 327.502 259.701 328.062 260.253C328.855 261.014 330.928 260.093 331.352 259.917Z" fill="#4240C2"/>
<path d="M317.456 286.997C316.635 292.862 315.38 298.657 313.702 304.336C313.691 304.392 313.669 304.445 313.637 304.492C313.606 304.539 313.565 304.58 313.518 304.611C313.471 304.643 313.418 304.665 313.362 304.676C313.306 304.687 313.249 304.687 313.193 304.676C313.138 304.665 313.085 304.643 313.037 304.612C312.99 304.58 312.95 304.54 312.918 304.492C312.886 304.445 312.864 304.392 312.853 304.337C312.842 304.281 312.842 304.223 312.853 304.168C313.654 298.821 315.094 293.577 315.887 288.23C316.756 282.825 317.067 277.345 316.816 271.876C316.311 262.871 313.862 253.297 308.01 246.261C307.882 246.101 308.154 245.861 308.29 246.013C320.049 259.733 318.184 276.551 318.168 278.032C319.833 272.357 321.554 265.849 327.854 260.061C328.126 259.813 328.334 259.933 328.294 260.357C327.166 270.892 324.236 276.367 318.128 282.018C317.936 283.691 317.72 285.356 317.456 286.997Z" fill="#263238"/>
<path d="M307.883 247.822C305.77 246.877 302.848 249.575 300.75 249.759C300.513 249.815 300.266 249.82 300.026 249.774C299.787 249.728 299.559 249.632 299.359 249.492C299.159 249.352 298.991 249.172 298.865 248.963C298.739 248.754 298.659 248.52 298.629 248.278C298.109 245.26 301.663 243.555 304.489 243.019C302.704 242.907 300.959 243.379 299.214 242.907C298.976 242.876 298.749 242.794 298.546 242.667C298.344 242.54 298.171 242.371 298.039 242.171C297.908 241.971 297.821 241.745 297.785 241.509C297.749 241.273 297.763 241.031 297.829 240.801C298.629 237.399 303.104 237.896 305.77 239.112C304.921 237.608 302.431 233.413 304.969 233.173C307.507 232.933 310.14 238.472 310.989 240.289C312.237 242.955 313.478 246.637 312.301 249.295C310.933 252.408 309.172 249.239 307.883 247.822Z" fill="#4240C2"/>
<path opacity="0.1" d="M307.883 247.822C305.77 246.877 302.848 249.575 300.75 249.759C300.513 249.815 300.266 249.82 300.026 249.774C299.787 249.728 299.559 249.632 299.359 249.492C299.159 249.352 298.991 249.172 298.865 248.963C298.739 248.754 298.659 248.52 298.629 248.278C298.109 245.26 301.663 243.555 304.489 243.019C302.704 242.907 300.959 243.379 299.214 242.907C298.976 242.876 298.749 242.794 298.546 242.667C298.344 242.54 298.171 242.371 298.039 242.171C297.908 241.971 297.821 241.745 297.785 241.509C297.749 241.273 297.763 241.031 297.829 240.801C298.629 237.399 303.104 237.896 305.77 239.112C304.921 237.608 302.431 233.413 304.969 233.173C307.507 232.933 310.14 238.472 310.989 240.289C312.237 242.955 313.478 246.637 312.301 249.295C310.933 252.408 309.172 249.239 307.883 247.822Z" fill="black"/>
<path d="M308.234 248.622C306.161 246.125 300.229 245.38 300.229 244.163C300.342 241.69 305.112 242.258 307.434 243.059C305.673 241.522 302.207 238.76 303.271 236.855C304.584 234.534 309.403 239.417 311.276 243.107C313.606 247.758 312.245 250.495 311.364 250.743C310.18 251.104 308.579 249.046 308.234 248.622Z" fill="#4240C2"/>
<path d="M325.189 290.167L330.368 329.807H298.813C299.461 326.293 305.337 290.119 305.337 290.119L325.189 290.167Z" fill="#4240C2"/>
<path d="M275.662 17.5226H137.731C135.881 17.5393 134.053 17.9204 132.35 18.644C130.648 19.3676 129.105 20.4196 127.809 21.7399C126.513 23.0601 125.49 24.6228 124.799 26.3385C124.107 28.0542 123.76 29.8894 123.778 31.7391V315.679C123.746 319.413 125.198 323.008 127.814 325.673C130.43 328.339 133.996 329.857 137.731 329.895H275.662C279.399 329.859 282.968 328.342 285.587 325.677C288.206 323.011 289.66 319.415 289.631 315.679V31.7391C289.647 29.8883 289.3 28.0523 288.607 26.336C287.914 24.6197 286.889 23.0568 285.592 21.7366C284.295 20.4163 282.75 19.3646 281.046 18.6416C279.343 17.9185 277.513 17.5383 275.662 17.5226ZM280.905 306.897C280.905 314.374 275.302 320.418 268.402 320.418H145.007C138.091 320.418 132.488 314.374 132.488 306.897V42.4976C132.488 27.2885 138.091 26.488 145.007 26.488H169.726C171.167 26.488 172.344 28.0889 172.344 30.1462V31.0187C172.344 35.7576 174.937 35.7736 178.115 35.7736H235.278C238.48 35.7736 241.073 35.7736 241.073 31.0187V30.1862C241.073 28.161 242.234 26.528 243.691 26.528H268.402C275.31 26.528 280.905 28.5532 280.905 42.5377V306.897Z" fill="#263238"/>
<path d="M280.913 42.4975V306.897C280.913 314.374 275.309 320.417 268.409 320.417H145.015C138.099 320.417 132.495 314.374 132.495 306.897V42.4975C132.495 27.2883 138.099 26.4878 145.015 26.4878H169.734C171.174 26.4878 172.351 28.0888 172.351 30.146V31.0185C172.351 35.7574 174.945 35.7734 178.123 35.7734H235.285C238.487 35.7734 241.081 35.7734 241.081 31.0185V30.186C241.081 28.1608 242.241 26.5278 243.698 26.5278H268.409C275.317 26.5278 280.913 28.553 280.913 42.4975Z" fill="white"/>
<path d="M280.913 42.5055V66.52H132.495V42.5055C132.495 27.2963 138.099 26.4958 145.015 26.4958H169.734C171.174 26.4958 172.351 28.0968 172.351 30.154V31.0266C172.351 35.7654 174.945 35.7814 178.123 35.7814H235.285C238.487 35.7814 241.081 35.7814 241.081 31.0266V30.194C241.081 28.1688 242.241 26.5358 243.698 26.5358H268.409C275.317 26.5358 280.913 28.5611 280.913 42.5055Z" fill="#4240C2"/>
<path d="M214.497 29.6658H198.904C198.648 29.6637 198.404 29.5607 198.224 29.3793C198.044 29.1978 197.943 28.9527 197.943 28.6972C197.943 28.571 197.968 28.4461 198.016 28.3296C198.065 28.213 198.135 28.1071 198.224 28.0179C198.314 27.9288 198.42 27.858 198.536 27.8097C198.653 27.7615 198.778 27.7366 198.904 27.7366H214.497C214.623 27.7366 214.748 27.7615 214.865 27.8097C214.981 27.858 215.087 27.9288 215.176 28.0179C215.266 28.1071 215.336 28.213 215.385 28.3296C215.433 28.4461 215.458 28.571 215.458 28.6972C215.459 28.824 215.435 28.9498 215.387 29.0672C215.339 29.1847 215.268 29.2915 215.179 29.3816C215.09 29.4716 214.984 29.5431 214.867 29.5919C214.75 29.6407 214.624 29.6658 214.497 29.6658Z" fill="white"/>
<path d="M155.053 49.1415H142.173V57.3065H155.053V49.1415Z" fill="white"/>
<path d="M155.061 49.1415C154.541 49.6378 154.013 50.1181 153.461 50.6064L151.86 52.0393L150.259 53.5122L150.211 53.5602L148.658 54.849L148.586 54.905L148.514 54.849L147.057 53.5522H147.009C146.448 53.0639 145.888 52.5756 145.336 52.0793L143.735 50.6464C143.214 50.1582 142.686 49.6779 142.134 49.1816C142.686 49.6138 143.23 50.0541 143.735 50.4944C144.239 50.9346 144.823 51.3829 145.336 51.8392C145.848 52.2954 146.544 52.8478 147.145 53.3601L148.489 54.5128L149.842 53.3601L151.643 51.8392L153.244 50.5024L155.061 49.1415Z" fill="#4240C2"/>
<path d="M147.272 53.5042L147.064 53.6723C146.744 53.9444 146.408 54.2086 146.071 54.4727C145.735 54.7369 145.271 55.0811 144.823 55.3773C144.374 55.6735 143.974 55.9616 143.542 56.2418C143.11 56.522 142.661 56.7941 142.213 57.0423C142.597 56.6981 143.014 56.3779 143.414 56.0657C143.814 55.7535 144.214 55.4573 144.671 55.1612C145.127 54.865 145.519 54.5768 145.951 54.2966C146.384 54.0165 146.656 53.8564 147.016 53.6482C147.096 53.5981 147.179 53.5527 147.264 53.5122L147.272 53.5042Z" fill="#4240C2"/>
<path d="M155.061 57.0503C154.605 56.8022 154.165 56.53 153.732 56.2498C153.3 55.9697 152.868 55.6815 152.444 55.3853C152.019 55.0891 151.603 54.7929 151.195 54.4808C150.787 54.1686 150.531 53.9685 150.21 53.6803L150.002 53.5122L150.25 53.6563C150.613 53.8644 150.965 54.0805 151.307 54.3047C151.747 54.5848 152.172 54.873 152.596 55.1692C153.02 55.4654 153.436 55.7615 153.845 56.0737C154.253 56.3859 154.629 56.7061 155.061 57.0503Z" fill="#4240C2"/>
<path d="M157.815 49.1415C157.815 49.688 157.652 50.2223 157.349 50.6766C157.045 51.1309 156.613 51.4849 156.108 51.6937C155.603 51.9025 155.047 51.9567 154.511 51.8495C153.975 51.7423 153.483 51.4784 153.097 51.0914C152.711 50.7044 152.449 50.2116 152.343 49.6753C152.238 49.1391 152.294 48.5836 152.504 48.0791C152.714 47.5746 153.069 47.1438 153.524 46.8413C153.98 46.5388 154.514 46.3782 155.061 46.3798C155.792 46.3819 156.492 46.6738 157.009 47.1915C157.525 47.7092 157.815 48.4104 157.815 49.1415Z" fill="#455A64"/>
<path d="M155.966 49.6939C155.964 49.7519 155.939 49.8069 155.897 49.8472C155.855 49.8875 155.8 49.91 155.741 49.91V50.2142C155.732 50.2654 155.704 50.3115 155.664 50.3448C155.624 50.378 155.573 50.3961 155.521 50.3961C155.469 50.3961 155.419 50.378 155.379 50.3448C155.338 50.3115 155.311 50.2654 155.301 50.2142V49.91H154.052C154.028 49.912 154.003 49.9088 153.979 49.9006C153.956 49.8923 153.934 49.8791 153.916 49.862C153.896 49.8425 153.879 49.8189 153.868 49.7928C153.856 49.7666 153.85 49.7384 153.85 49.7099C153.85 49.6813 153.856 49.6531 153.868 49.627C153.879 49.6008 153.896 49.5772 153.916 49.5578L155.309 47.7007H155.373H155.501V49.3016C155.553 49.2401 155.628 49.2017 155.708 49.1949C155.788 49.1882 155.868 49.2136 155.93 49.2656C155.991 49.3176 156.03 49.392 156.036 49.4723C156.043 49.5526 156.018 49.6323 155.966 49.6939ZM155.261 48.4931L154.461 49.4777H155.261V48.4931Z" fill="white"/>
<path d="M165.468 32.2353L165.228 32.4754L165.092 32.6115C164.481 32.002 163.653 31.6596 162.79 31.6596C161.927 31.6596 161.1 32.002 160.489 32.6115L160.361 32.4754C160.281 32.3954 160.201 32.3233 160.129 32.2433L160.433 31.9711C160.646 31.7959 160.88 31.648 161.129 31.5309C161.422 31.383 161.735 31.2778 162.058 31.2187C162.21 31.2187 162.362 31.2187 162.514 31.1546H162.922H163.234C163.525 31.187 163.81 31.2569 164.083 31.3628C164.282 31.4344 164.475 31.5228 164.659 31.6269C164.853 31.7403 165.038 31.8687 165.212 32.0111L165.46 32.2433L165.468 32.2353Z" fill="white"/>
<path d="M161.241 33.3638L160.865 32.9875C161.269 32.5555 161.808 32.2734 162.394 32.187C162.815 32.1279 163.245 32.1697 163.647 32.3088C164.049 32.448 164.412 32.6806 164.707 32.9875L164.331 33.3638C163.92 32.9568 163.364 32.7294 162.786 32.7314C162.499 32.7291 162.215 32.7838 161.95 32.8924C161.685 33.001 161.444 33.1612 161.241 33.3638Z" fill="white"/>
<path d="M163.955 33.7399C163.827 33.86 163.699 33.9881 163.579 34.1162C163.475 34.01 163.35 33.9262 163.213 33.8698C163.075 33.8134 162.927 33.7855 162.779 33.788C162.63 33.7846 162.482 33.812 162.344 33.8685C162.206 33.9249 162.082 34.0093 161.978 34.1162L161.602 33.7399C161.755 33.5836 161.939 33.4594 162.141 33.3746C162.343 33.2898 162.56 33.2462 162.779 33.2462C162.998 33.2462 163.215 33.2898 163.417 33.3746C163.619 33.4594 163.802 33.5836 163.955 33.7399Z" fill="white"/>
<path d="M163.123 34.4524C163.124 34.5211 163.105 34.5887 163.068 34.6465C163.031 34.7044 162.977 34.7497 162.914 34.7767C162.851 34.8038 162.781 34.8113 162.714 34.7982C162.646 34.7852 162.584 34.7523 162.535 34.7037C162.487 34.655 162.454 34.593 162.441 34.5255C162.428 34.458 162.435 34.3881 162.462 34.3249C162.489 34.2617 162.535 34.208 162.593 34.1708C162.65 34.1336 162.718 34.1146 162.787 34.1161C162.876 34.1161 162.961 34.1516 163.024 34.2146C163.087 34.2777 163.123 34.3632 163.123 34.4524Z" fill="white"/>
<path d="M142.173 32.9557C142.173 32.761 142.231 32.5706 142.339 32.4087C142.447 32.2468 142.601 32.1206 142.781 32.046C142.961 31.9715 143.159 31.952 143.35 31.99C143.541 32.028 143.716 32.1218 143.854 32.2595C143.991 32.3972 144.085 32.5726 144.123 32.7636C144.161 32.9546 144.142 33.1526 144.067 33.3325C143.993 33.5124 143.867 33.6662 143.705 33.7744C143.543 33.8825 143.352 33.9403 143.158 33.9403C143.028 33.9403 142.9 33.9148 142.781 33.8653C142.661 33.8159 142.553 33.7433 142.461 33.6519C142.37 33.5605 142.297 33.4519 142.248 33.3325C142.198 33.213 142.173 33.085 142.173 32.9557Z" fill="white"/>
<path d="M145.271 32.9557C145.271 32.761 145.329 32.5706 145.437 32.4087C145.546 32.2468 145.699 32.1206 145.879 32.046C146.059 31.9715 146.257 31.952 146.448 31.99C146.639 32.028 146.815 32.1218 146.952 32.2595C147.09 32.3972 147.184 32.5726 147.222 32.7636C147.26 32.9546 147.24 33.1526 147.166 33.3325C147.091 33.5124 146.965 33.6662 146.803 33.7744C146.641 33.8825 146.451 33.9403 146.256 33.9403C145.995 33.9403 145.745 33.8366 145.56 33.6519C145.375 33.4673 145.271 33.2168 145.271 32.9557Z" fill="white"/>
<path d="M148.369 32.9557C148.369 32.761 148.427 32.5706 148.535 32.4087C148.643 32.2468 148.797 32.1206 148.977 32.046C149.157 31.9715 149.355 31.952 149.546 31.99C149.737 32.028 149.912 32.1218 150.05 32.2595C150.187 32.3972 150.281 32.5726 150.319 32.7636C150.357 32.9546 150.338 33.1526 150.263 33.3325C150.189 33.5124 150.062 33.6662 149.9 33.7744C149.739 33.8825 149.548 33.9403 149.353 33.9403C149.092 33.9403 148.842 33.8366 148.657 33.6519C148.473 33.4673 148.369 33.2168 148.369 32.9557Z" fill="white"/>
<path d="M151.467 32.9557C151.467 32.761 151.524 32.5706 151.632 32.4087C151.741 32.2468 151.894 32.1206 152.074 32.046C152.254 31.9715 152.452 31.952 152.643 31.99C152.834 32.028 153.01 32.1218 153.147 32.2595C153.285 32.3972 153.379 32.5726 153.417 32.7636C153.455 32.9546 153.435 33.1526 153.361 33.3325C153.286 33.5124 153.16 33.6662 152.998 33.7744C152.836 33.8825 152.646 33.9403 152.451 33.9403C152.322 33.9403 152.194 33.9148 152.074 33.8653C151.955 33.8159 151.846 33.7433 151.755 33.6519C151.664 33.5605 151.591 33.4519 151.542 33.3325C151.492 33.213 151.467 33.085 151.467 32.9557Z" fill="white"/>
<path d="M154.565 32.9557C154.565 32.761 154.623 32.5706 154.731 32.4087C154.839 32.2468 154.993 32.1206 155.173 32.046C155.353 31.9715 155.551 31.952 155.742 31.99C155.933 32.028 156.108 32.1218 156.246 32.2595C156.384 32.3972 156.477 32.5726 156.515 32.7636C156.553 32.9546 156.534 33.1526 156.459 33.3325C156.385 33.5124 156.259 33.6662 156.097 33.7744C155.935 33.8825 155.744 33.9403 155.55 33.9403C155.42 33.9403 155.292 33.9148 155.173 33.8653C155.053 33.8159 154.945 33.7433 154.853 33.6519C154.762 33.5605 154.689 33.4519 154.64 33.3325C154.591 33.213 154.565 33.085 154.565 32.9557Z" fill="white"/>
<path d="M269.771 35.1091H261.766V31.3948H269.771V35.1091ZM262.174 34.7008H269.378V31.8031H262.174V34.7008Z" fill="white"/>
<path d="M267.594 32.0272H262.43V34.4766H267.594V32.0272Z" fill="white"/>
<path d="M270.491 32.2592H269.778V34.2444H270.491V32.2592Z" fill="white"/>
<path d="M193.932 50.7264C193.931 50.6631 193.943 50.6001 193.967 50.5413C193.991 50.4826 194.026 50.4292 194.071 50.3844C194.116 50.3396 194.169 50.3042 194.228 50.2805C194.286 50.2567 194.349 50.245 194.413 50.2461C194.476 50.2451 194.54 50.2567 194.599 50.2804C194.658 50.304 194.712 50.3392 194.758 50.3839C194.803 50.4286 194.839 50.482 194.864 50.5408C194.888 50.5996 194.901 50.6627 194.901 50.7264V55.8575C194.901 55.9213 194.888 55.9844 194.864 56.0432C194.839 56.102 194.803 56.1553 194.758 56.2C194.712 56.2447 194.658 56.2799 194.599 56.3036C194.54 56.3272 194.476 56.3389 194.413 56.3378C194.349 56.3389 194.286 56.3272 194.228 56.3035C194.169 56.2797 194.116 56.2444 194.071 56.1996C194.026 56.1547 193.991 56.1014 193.967 56.0426C193.943 55.9838 193.931 55.9209 193.932 55.8575V50.7264Z" fill="white"/>
<path d="M197.487 55.8576C197.487 55.9836 197.438 56.1046 197.349 56.1944C197.261 56.2843 197.141 56.3358 197.015 56.3379C196.952 56.3379 196.89 56.3254 196.832 56.3012C196.774 56.277 196.722 56.2415 196.678 56.1968C196.634 56.1521 196.599 56.099 196.576 56.0408C196.553 55.9826 196.541 55.9203 196.542 55.8576V50.7986C196.537 50.7217 196.551 50.6447 196.583 50.5747C196.615 50.5048 196.665 50.4441 196.727 50.3983C196.83 50.3272 196.956 50.2984 197.08 50.3177C197.203 50.3371 197.315 50.4032 197.391 50.5024L200.201 54.3927V50.7986C200.203 50.6747 200.253 50.5566 200.342 50.4698C200.43 50.3829 200.549 50.3343 200.673 50.3343C200.798 50.3342 200.917 50.3826 201.007 50.4692C201.097 50.5559 201.149 50.674 201.153 50.7986V55.8576C201.153 55.985 201.103 56.1072 201.013 56.1972C200.923 56.2873 200.8 56.3379 200.673 56.3379C200.604 56.3357 200.536 56.3189 200.474 56.2885C200.412 56.2582 200.357 56.215 200.313 56.1618V56.1138L197.487 52.2474V55.8576Z" fill="white"/>
<path d="M203.242 55.8576V50.7265C203.242 50.5991 203.293 50.4769 203.383 50.3869C203.473 50.2968 203.595 50.2462 203.722 50.2462H204.955C205.393 50.2462 205.813 50.4197 206.124 50.7287C206.434 51.0377 206.61 51.4571 206.612 51.8952C206.614 52.2544 206.496 52.604 206.276 52.8878C206.62 53.1013 206.885 53.4209 207.032 53.7985C207.178 54.1761 207.198 54.5911 207.087 54.9807C206.977 55.3704 206.743 55.7136 206.42 55.9584C206.098 56.2032 205.704 56.3364 205.299 56.3379H203.754C203.689 56.3423 203.623 56.3331 203.561 56.3109C203.499 56.2888 203.442 56.2541 203.394 56.209C203.346 56.164 203.307 56.1095 203.281 56.0491C203.255 55.9886 203.242 55.9234 203.242 55.8576ZM204.211 52.6076H204.955C205.14 52.6034 205.317 52.5262 205.446 52.3929C205.574 52.2595 205.646 52.0806 205.643 51.8952C205.643 51.8051 205.626 51.716 205.591 51.6329C205.556 51.5499 205.505 51.4745 205.441 51.4112C205.377 51.3479 205.301 51.298 205.218 51.2643C205.134 51.2305 205.045 51.2137 204.955 51.2148H204.211V52.6076ZM204.211 55.3693H205.299C205.523 55.3481 205.732 55.2441 205.883 55.0776C206.035 54.911 206.119 54.6939 206.119 54.4687C206.119 54.2436 206.035 54.0265 205.883 53.8599C205.732 53.6934 205.523 53.5894 205.299 53.5682H204.211V55.3693Z" fill="white"/>
<path d="M213.216 50.9986C213.782 51.5937 214.097 52.3832 214.097 53.204C214.097 54.0248 213.782 54.8142 213.216 55.4093C212.951 55.6982 212.63 55.9296 212.272 56.0894C211.914 56.2491 211.527 56.3336 211.135 56.3379C210.736 56.335 210.341 56.2513 209.975 56.0917C209.609 55.9321 209.279 55.6999 209.006 55.4093C208.449 54.8097 208.14 54.022 208.14 53.204C208.14 52.386 208.449 51.5982 209.006 50.9986C209.281 50.7123 209.612 50.4851 209.978 50.331C210.344 50.1768 210.738 50.0989 211.135 50.1021C211.525 50.1008 211.911 50.1797 212.269 50.3339C212.627 50.4881 212.949 50.7144 213.216 50.9986ZM213.104 53.2C213.104 52.6367 212.893 52.094 212.512 51.679C212.338 51.4857 212.126 51.3309 211.889 51.2248C211.652 51.1186 211.395 51.0634 211.135 51.0627C210.87 51.0614 210.608 51.1155 210.365 51.2217C210.123 51.3279 209.905 51.4836 209.726 51.679C209.345 52.094 209.134 52.6367 209.134 53.2C209.131 53.7638 209.342 54.3077 209.726 54.7209C209.905 54.9173 210.122 55.0743 210.365 55.1819C210.607 55.2894 210.87 55.345 211.135 55.3453C211.395 55.343 211.652 55.2863 211.889 55.1788C212.127 55.0713 212.339 54.9153 212.512 54.7209C212.895 54.3077 213.107 53.7638 213.104 53.2Z" fill="white"/>
<path d="M219.74 51.0707L218.083 53.3041L219.74 55.5614C219.813 55.6638 219.843 55.7907 219.824 55.9149C219.804 56.0391 219.737 56.1508 219.636 56.2258C219.555 56.2871 219.457 56.3207 219.356 56.3219C219.28 56.3198 219.205 56.3008 219.137 56.2661C219.069 56.2315 219.01 56.1822 218.963 56.1218L217.499 54.1046L216.026 56.1138C215.98 56.1732 215.922 56.2219 215.856 56.2564C215.789 56.291 215.716 56.3106 215.641 56.3139C215.54 56.3152 215.441 56.2813 215.361 56.2178C215.259 56.144 215.19 56.0329 215.169 55.9086C215.148 55.7843 215.177 55.6567 215.249 55.5534L216.906 53.2961L215.249 51.0467C215.177 50.9447 215.149 50.8184 215.17 50.6954C215.191 50.5724 215.26 50.4627 215.361 50.3903C215.41 50.3497 215.467 50.3199 215.529 50.303C215.59 50.2862 215.654 50.2825 215.717 50.2924C215.78 50.3022 215.84 50.3253 215.893 50.3601C215.946 50.395 215.991 50.4407 216.026 50.4944L217.499 52.5036L218.955 50.5024C218.99 50.4485 219.036 50.4026 219.09 50.3677C219.144 50.3329 219.205 50.3097 219.268 50.2999C219.332 50.2901 219.397 50.2938 219.459 50.3107C219.521 50.3277 219.578 50.3575 219.628 50.3983C219.68 50.4342 219.725 50.4804 219.759 50.5341C219.794 50.5878 219.817 50.6478 219.827 50.7106C219.838 50.7734 219.835 50.8377 219.82 50.8996C219.805 50.9615 219.778 51.0197 219.74 51.0707Z" fill="white"/>
<path d="M260.468 56.2898L259.46 57.0903L257.595 54.6248L256.914 53.7203C257.054 53.6656 257.186 53.5929 257.307 53.5041C257.532 53.3278 257.709 53.0962 257.819 52.8317L258.547 53.7843L260.468 56.2898Z" fill="white"/>
<path d="M258.484 50.4784C258.164 50.0616 257.732 49.7451 257.238 49.5662C256.744 49.3872 256.209 49.3532 255.697 49.4683C255.184 49.5833 254.715 49.8426 254.345 50.2155C253.975 50.5884 253.719 51.0593 253.608 51.5727C253.497 52.0862 253.535 52.6207 253.718 53.1132C253.901 53.6057 254.221 54.0356 254.64 54.3523C255.059 54.6689 255.56 54.8591 256.084 54.9003C256.607 54.9415 257.132 54.832 257.595 54.5848C257.731 54.5145 257.86 54.4314 257.98 54.3367C258.201 54.172 258.393 53.9719 258.548 53.7443C258.887 53.2644 259.064 52.6885 259.053 52.1008C259.041 51.5132 258.842 50.9446 258.484 50.4784ZM257.307 53.4642C257.187 53.553 257.055 53.6256 256.915 53.6803C256.563 53.8208 256.173 53.8351 255.812 53.7208C255.45 53.6064 255.14 53.3705 254.932 53.053C254.725 52.7355 254.634 52.3561 254.675 51.9792C254.716 51.6023 254.886 51.2512 255.157 50.9856C255.427 50.7199 255.781 50.5561 256.159 50.5219C256.536 50.4878 256.914 50.5854 257.228 50.7982C257.542 51.011 257.772 51.3258 257.88 51.6893C257.988 52.0527 257.966 52.4422 257.82 52.7917C257.71 53.0562 257.533 53.2878 257.307 53.4642Z" fill="white"/>
<path d="M246.781 49.5657H239.464V56.8821H246.781V49.5657Z" fill="white"/>
<path d="M243.522 50.9266H242.722V55.5294H243.522V50.9266Z" fill="#4240C2"/>
<path d="M240.817 52.8237V53.6242H245.42V52.8237H240.817Z" fill="#4240C2"/>
<path d="M269.771 50.0381C269.771 50.1631 269.734 50.2854 269.664 50.3894C269.595 50.4934 269.496 50.5744 269.38 50.6223C269.265 50.6702 269.138 50.6827 269.015 50.6583C268.892 50.6339 268.78 50.5737 268.691 50.4852C268.603 50.3968 268.543 50.2841 268.518 50.1614C268.494 50.0388 268.506 49.9116 268.554 49.7961C268.602 49.6805 268.683 49.5817 268.787 49.5122C268.891 49.4428 269.013 49.4057 269.138 49.4057C269.221 49.4057 269.304 49.422 269.38 49.4538C269.457 49.4856 269.527 49.5322 269.586 49.5909C269.644 49.6496 269.691 49.7193 269.723 49.7961C269.754 49.8728 269.771 49.955 269.771 50.0381Z" fill="white"/>
<path d="M269.771 53.3041C269.771 53.4718 269.704 53.6326 269.586 53.7512C269.467 53.8698 269.306 53.9365 269.138 53.9365C268.971 53.9365 268.81 53.8698 268.691 53.7512C268.573 53.6326 268.506 53.4718 268.506 53.3041C268.506 53.221 268.522 53.1388 268.554 53.0621C268.586 52.9853 268.632 52.9156 268.691 52.8569C268.75 52.7982 268.82 52.7516 268.896 52.7198C268.973 52.688 269.055 52.6717 269.138 52.6717C269.221 52.6717 269.304 52.688 269.38 52.7198C269.457 52.7516 269.527 52.7982 269.586 52.8569C269.644 52.9156 269.691 52.9853 269.723 53.0621C269.754 53.1388 269.771 53.221 269.771 53.3041Z" fill="white"/>
<path d="M269.771 56.602C269.771 56.685 269.754 56.7673 269.723 56.844C269.691 56.9207 269.644 56.9904 269.586 57.0491C269.527 57.1079 269.457 57.1545 269.38 57.1862C269.304 57.218 269.221 57.2344 269.138 57.2344C269.055 57.2344 268.973 57.218 268.896 57.1862C268.82 57.1545 268.75 57.1079 268.691 57.0491C268.632 56.9904 268.586 56.9207 268.554 56.844C268.522 56.7673 268.506 56.685 268.506 56.602C268.506 56.4343 268.573 56.2734 268.691 56.1548C268.81 56.0362 268.971 55.9696 269.138 55.9696C269.306 55.9696 269.467 56.0362 269.586 56.1548C269.704 56.2734 269.771 56.4343 269.771 56.602Z" fill="white"/>
<path d="M280.905 66.488H132.495V89.4058H280.905V66.488Z" fill="#EBEBEB"/>
<path d="M156.662 82.3776C156.197 82.6649 155.689 82.8757 155.157 83.0019C153.888 83.3065 152.551 83.1216 151.413 82.4841C150.274 81.8466 149.417 80.8033 149.014 79.5623C148.61 78.3213 148.689 76.9738 149.235 75.7884C149.781 74.6031 150.753 73.667 151.959 73.1669C153.164 72.6668 154.514 72.6394 155.738 73.0902C156.963 73.541 157.973 74.4368 158.566 75.599C159.16 76.7613 159.293 78.1045 158.941 79.3608C158.588 80.6172 157.774 81.6944 156.662 82.3776Z" fill="#4240C2"/>
<path d="M155.469 77.3185C155.469 77.6352 155.375 77.9447 155.199 78.208C155.023 78.4713 154.773 78.6765 154.481 78.7976C154.188 78.9188 153.866 78.9505 153.556 78.8887C153.245 78.827 152.96 78.6745 152.736 78.4506C152.512 78.2267 152.36 77.9414 152.298 77.6309C152.236 77.3203 152.268 76.9984 152.389 76.7059C152.51 76.4133 152.715 76.1633 152.979 75.9874C153.242 75.8115 153.551 75.7176 153.868 75.7176C154.293 75.7176 154.7 75.8862 155 76.1865C155.3 76.4867 155.469 76.8939 155.469 77.3185Z" fill="white"/>
<path d="M156.662 81.7212V82.3776C156.197 82.665 155.689 82.8758 155.157 83.002C154.482 83.1708 153.78 83.2026 153.093 83.0953C152.405 82.9881 151.746 82.744 151.155 82.3776V81.7212C151.155 80.9952 151.443 80.2988 151.957 79.7854C152.47 79.272 153.166 78.9836 153.893 78.9836C154.619 78.9836 155.315 79.272 155.828 79.7854C156.342 80.2988 156.63 80.9952 156.63 81.7212H156.662Z" fill="white"/>
<path d="M186.569 81.393H179.684L182.494 77.9509L179.684 74.5088H186.569L189.378 77.9509L186.569 81.393Z" fill="white"/>
<path d="M168.878 74.5088L169.999 76.7742L172.496 77.1344L170.687 78.9035L171.119 81.393L168.878 80.2163L166.645 81.393L167.069 78.9035L165.26 77.1344L167.757 76.7742L168.878 74.5088Z" fill="#4240C2"/>
<path d="M234.933 76.55H194.317V79.3517H234.933V76.55Z" fill="#263238"/>
<path d="M267.593 76.55H251.672V79.3517H267.593V76.55Z" fill="#455A64"/>
<path d="M156.662 105.335C156.197 105.623 155.689 105.834 155.157 105.96C153.888 106.264 152.551 106.08 151.413 105.442C150.274 104.805 149.417 103.761 149.014 102.52C148.61 101.279 148.689 99.9317 149.235 98.7463C149.781 97.561 150.753 96.625 151.959 96.1249C153.164 95.6248 154.514 95.5974 155.738 96.0481C156.963 96.4989 157.973 97.3947 158.566 98.557C159.16 99.7192 159.293 101.062 158.941 102.319C158.588 103.575 157.774 104.652 156.662 105.335Z" fill="#455A64"/>
<path d="M155.469 100.276C155.469 100.593 155.375 100.903 155.199 101.166C155.023 101.429 154.773 101.634 154.481 101.755C154.188 101.877 153.866 101.908 153.556 101.847C153.245 101.785 152.96 101.632 152.736 101.408C152.512 101.185 152.36 100.899 152.298 100.589C152.236 100.278 152.268 99.9563 152.389 99.6637C152.51 99.3712 152.715 99.1211 152.979 98.9452C153.242 98.7693 153.551 98.6754 153.868 98.6754C154.293 98.6754 154.7 98.8441 155 99.1443C155.3 99.4446 155.469 99.8518 155.469 100.276Z" fill="white"/>
<path d="M156.662 104.639V105.335C156.197 105.623 155.689 105.834 155.157 105.96C154.483 106.131 153.78 106.164 153.092 106.057C152.405 105.949 151.745 105.704 151.155 105.335V104.679C151.155 103.953 151.443 103.257 151.957 102.743C152.47 102.23 153.166 101.941 153.893 101.941C154.619 101.941 155.315 102.23 155.828 102.743C156.342 103.257 156.63 103.953 156.63 104.679L156.662 104.639Z" fill="white"/>
<path d="M186.569 104.311H179.684L182.494 100.869L179.684 97.4267H186.569L189.378 100.869L186.569 104.311Z" fill="white"/>
<path d="M186.665 104.535H179.26L182.238 100.893L179.26 97.2506H186.665L189.634 100.893L186.665 104.535ZM180.109 104.135H186.513L189.154 100.893L186.513 97.6909H180.109L182.75 100.893L180.109 104.135Z" fill="#EBEBEB"/>
<path d="M168.878 97.4267L169.999 99.6921L172.496 100.052L170.687 101.821L171.119 104.311L168.878 103.134L166.645 104.311L167.069 101.821L165.26 100.052L167.757 99.6921L168.878 97.4267Z" fill="#4240C2"/>
<path d="M234.933 99.4679H194.317V102.27H234.933V99.4679Z" fill="#263238"/>
<path d="M267.593 99.4679H251.672V102.27H267.593V99.4679Z" fill="#455A64"/>
<path d="M280.905 112.324H132.495V135.242H280.905V112.324Z" fill="#EBEBEB"/>
<path d="M156.662 128.213C156.196 128.5 155.688 128.713 155.157 128.846C153.882 129.159 152.535 128.98 151.386 128.344C150.237 127.708 149.369 126.662 148.957 125.415C148.545 124.168 148.618 122.812 149.162 121.616C149.705 120.421 150.68 119.474 151.891 118.965C153.101 118.457 154.46 118.423 155.694 118.871C156.928 119.32 157.949 120.217 158.551 121.384C159.153 122.551 159.293 123.902 158.943 125.168C158.593 126.434 157.778 127.521 156.662 128.213Z" fill="#4240C2"/>
<path d="M155.469 123.194C155.469 123.511 155.375 123.82 155.199 124.084C155.023 124.347 154.773 124.552 154.481 124.673C154.188 124.794 153.866 124.826 153.556 124.764C153.245 124.703 152.96 124.55 152.736 124.326C152.512 124.102 152.36 123.817 152.298 123.507C152.236 123.196 152.268 122.874 152.389 122.582C152.51 122.289 152.715 122.039 152.979 121.863C153.242 121.687 153.551 121.593 153.868 121.593C154.293 121.593 154.7 121.762 155 122.062C155.3 122.362 155.469 122.77 155.469 123.194Z" fill="white"/>
<path d="M156.662 127.557V128.213C156.196 128.5 155.688 128.713 155.157 128.846C154.482 129.015 153.779 129.047 153.092 128.938C152.404 128.829 151.745 128.583 151.155 128.213V127.557C151.155 126.831 151.443 126.134 151.957 125.621C152.47 125.108 153.166 124.819 153.893 124.819C154.619 124.819 155.315 125.108 155.828 125.621C156.342 126.134 156.63 126.831 156.63 127.557H156.662Z" fill="white"/>
<path d="M186.569 127.229H179.684L182.494 123.787L179.684 120.344H186.569L189.378 123.787L186.569 127.229Z" fill="white"/>
<path d="M168.878 120.344L169.999 122.61L172.496 122.97L170.687 124.739L171.119 127.229L168.878 126.052L166.645 127.229L167.069 124.739L165.26 122.97L167.757 122.61L168.878 120.344Z" fill="white"/>
<path d="M234.933 122.386H194.317V125.187H234.933V122.386Z" fill="#DBDBDB"/>
<path d="M267.593 122.386H251.672V125.187H267.593V122.386Z" fill="#C7C7C7"/>
<path d="M156.662 151.131C156.196 151.418 155.688 151.631 155.157 151.764C153.882 152.077 152.535 151.898 151.386 151.262C150.237 150.626 149.369 149.58 148.957 148.333C148.545 147.086 148.618 145.73 149.162 144.534C149.705 143.339 150.68 142.392 151.891 141.883C153.101 141.375 154.46 141.341 155.694 141.789C156.928 142.238 157.949 143.135 158.551 144.302C159.153 145.469 159.293 146.82 158.943 148.086C158.593 149.352 157.778 150.439 156.662 151.131Z" fill="#A6A6A6"/>
<path d="M155.469 146.112C155.469 146.429 155.375 146.738 155.199 147.002C155.023 147.265 154.773 147.47 154.481 147.591C154.188 147.712 153.866 147.744 153.556 147.682C153.245 147.621 152.96 147.468 152.736 147.244C152.512 147.02 152.36 146.735 152.298 146.424C152.236 146.114 152.268 145.792 152.389 145.499C152.51 145.207 152.715 144.957 152.979 144.781C153.242 144.605 153.551 144.511 153.868 144.511C154.293 144.511 154.7 144.68 155 144.98C155.3 145.28 155.469 145.687 155.469 146.112Z" fill="white"/>
<path d="M156.662 150.483V151.131C156.196 151.418 155.688 151.631 155.157 151.763C154.482 151.933 153.779 151.964 153.092 151.856C152.404 151.747 151.745 151.501 151.155 151.131V150.483C151.155 149.757 151.443 149.06 151.957 148.547C152.47 148.033 153.166 147.745 153.893 147.745C154.619 147.745 155.315 148.033 155.828 148.547C156.342 149.06 156.63 149.757 156.63 150.483H156.662Z" fill="white"/>
<path d="M186.569 150.147H179.684L182.494 146.704L179.684 143.262H186.569L189.378 146.704L186.569 150.147Z" fill="white"/>
<path d="M186.665 150.347H179.26L182.238 146.704L179.26 143.062H186.665L189.634 146.704L186.665 150.347ZM180.109 149.946H186.513L189.154 146.744L186.513 143.503H180.109L182.75 146.744L180.109 149.946Z" fill="#EBEBEB"/>
<path d="M168.878 143.262L169.999 145.528L172.496 145.896L170.687 147.657L171.119 150.147L168.878 148.97L166.645 150.147L167.069 147.657L165.26 145.896L167.757 145.528L168.878 143.262Z" fill="#4240C2"/>
<path d="M234.933 145.304H194.317V148.105H234.933V145.304Z" fill="#DBDBDB"/>
<path d="M267.593 145.304H251.672V148.105H267.593V145.304Z" fill="#C7C7C7"/>
<path d="M280.905 158.167H132.495V181.085H280.905V158.167Z" fill="#EBEBEB"/>
<path d="M156.662 174.049C156.196 174.336 155.688 174.549 155.157 174.681C153.882 174.995 152.535 174.815 151.386 174.18C150.237 173.544 149.369 172.498 148.957 171.251C148.545 170.004 148.618 168.648 149.162 167.452C149.705 166.257 150.68 165.31 151.891 164.801C153.101 164.292 154.46 164.259 155.694 164.707C156.928 165.155 157.949 166.053 158.551 167.22C159.153 168.387 159.293 169.738 158.943 171.004C158.593 172.27 157.778 173.357 156.662 174.049Z" fill="#37474F"/>
<path d="M155.469 169.03C155.469 169.347 155.375 169.656 155.199 169.919C155.023 170.183 154.773 170.388 154.481 170.509C154.188 170.63 153.866 170.662 153.556 170.6C153.245 170.538 152.96 170.386 152.736 170.162C152.512 169.938 152.36 169.653 152.298 169.342C152.236 169.032 152.268 168.71 152.389 168.417C152.51 168.125 152.715 167.875 152.979 167.699C153.242 167.523 153.551 167.429 153.868 167.429C154.293 167.429 154.7 167.598 155 167.898C155.3 168.198 155.469 168.605 155.469 169.03Z" fill="white"/>
<path d="M156.662 173.377V174.025C156.196 174.312 155.688 174.525 155.157 174.657C154.482 174.827 153.779 174.858 153.092 174.75C152.404 174.641 151.745 174.394 151.155 174.025V173.377C151.155 172.651 151.443 171.954 151.957 171.441C152.47 170.927 153.166 170.639 153.893 170.639C154.619 170.639 155.315 170.927 155.828 171.441C156.342 171.954 156.63 172.651 156.63 173.377H156.662Z" fill="white"/>
<path d="M186.569 173.064H179.684L182.494 169.622L179.684 166.18H186.569L189.378 169.622L186.569 173.064Z" fill="white"/>
<path d="M168.878 166.18L169.999 168.446L172.496 168.814L170.687 170.575L171.119 173.064L168.878 171.888L166.645 173.064L167.069 170.575L165.26 168.814L167.757 168.446L168.878 166.18Z" fill="#4240C2"/>
<path d="M234.933 168.221H194.317V171.023H234.933V168.221Z" fill="#DBDBDB"/>
<path d="M267.593 168.221H251.672V171.023H267.593V168.221Z" fill="#C7C7C7"/>
<path d="M280.913 295.674V306.881C280.947 309.198 280.393 311.485 279.304 313.53C278.215 315.575 276.626 317.311 274.686 318.576H138.732C136.79 317.311 135.201 315.575 134.112 313.53C133.023 311.485 132.47 309.198 132.504 306.881V295.674H280.913Z" fill="#EBEBEB"/>
<path d="M156.662 311.564C156.196 311.851 155.688 312.064 155.157 312.196C153.882 312.51 152.535 312.33 151.386 311.695C150.237 311.059 149.369 310.013 148.957 308.766C148.545 307.519 148.618 306.163 149.162 304.967C149.705 303.772 150.68 302.825 151.891 302.316C153.101 301.807 154.46 301.774 155.694 302.222C156.928 302.67 157.949 303.568 158.551 304.735C159.153 305.902 159.293 307.253 158.943 308.519C158.593 309.785 157.778 310.872 156.662 311.564Z" fill="#4240C2"/>
<path d="M155.469 306.545C155.469 306.862 155.375 307.171 155.199 307.434C155.023 307.698 154.773 307.903 154.481 308.024C154.188 308.145 153.866 308.177 153.556 308.115C153.245 308.053 152.96 307.901 152.736 307.677C152.512 307.453 152.36 307.168 152.298 306.857C152.236 306.547 152.268 306.225 152.389 305.932C152.51 305.64 152.715 305.39 152.979 305.214C153.242 305.038 153.551 304.944 153.868 304.944C154.293 304.944 154.7 305.113 155 305.413C155.3 305.713 155.469 306.12 155.469 306.545Z" fill="white"/>
<path d="M156.662 310.908V311.564C156.196 311.851 155.688 312.064 155.157 312.196C154.482 312.364 153.78 312.394 153.092 312.286C152.405 312.177 151.746 311.932 151.155 311.564V310.908C151.155 310.182 151.443 309.485 151.957 308.972C152.47 308.458 153.166 308.17 153.893 308.17C154.619 308.17 155.315 308.458 155.828 308.972C156.342 309.485 156.63 310.182 156.63 310.908H156.662Z" fill="white"/>
<path d="M186.569 310.579H179.684L182.494 307.137L179.684 303.695H186.569L189.378 307.137L186.569 310.579Z" fill="white"/>
<path d="M168.878 303.695L169.999 305.961L172.496 306.321L170.687 308.09L171.119 310.579L168.878 309.403L166.645 310.579L167.069 308.09L165.26 306.321L167.757 305.961L168.878 303.695Z" fill="#4240C2"/>
<path d="M234.933 305.737H194.317V308.538H234.933V305.737Z" fill="#DBDBDB"/>
<path d="M267.593 305.737H251.672V308.538H267.593V305.737Z" fill="#C7C7C7"/>
<path d="M156.663 196.967C155.963 197.398 155.171 197.658 154.352 197.724C153.533 197.791 152.709 197.663 151.949 197.351C151.189 197.039 150.513 196.551 149.977 195.928C149.441 195.305 149.061 194.563 148.866 193.765C148.638 192.831 148.673 191.852 148.967 190.937C149.261 190.022 149.802 189.206 150.531 188.579C151.26 187.952 152.148 187.539 153.097 187.386C154.046 187.233 155.019 187.345 155.908 187.71C156.798 188.075 157.568 188.679 158.136 189.455C158.703 190.231 159.045 191.149 159.123 192.107C159.201 193.065 159.012 194.026 158.578 194.884C158.144 195.742 157.481 196.463 156.663 196.967Z" fill="#263238"/>
<path d="M155.469 191.948C155.469 192.265 155.375 192.574 155.199 192.837C155.023 193.101 154.773 193.306 154.481 193.427C154.188 193.548 153.866 193.58 153.556 193.518C153.245 193.456 152.96 193.304 152.736 193.08C152.512 192.856 152.36 192.571 152.298 192.26C152.236 191.95 152.268 191.628 152.389 191.335C152.51 191.043 152.715 190.793 152.979 190.617C153.242 190.441 153.551 190.347 153.868 190.347C154.293 190.347 154.7 190.516 155 190.816C155.3 191.116 155.469 191.523 155.469 191.948Z" fill="white"/>
<path d="M156.662 196.318V196.967C155.84 197.477 154.892 197.748 153.925 197.748C152.957 197.748 152.009 197.477 151.187 196.967V196.318C151.187 195.592 151.475 194.896 151.989 194.383C152.502 193.869 153.199 193.581 153.925 193.581C154.651 193.581 155.347 193.869 155.86 194.383C156.374 194.896 156.662 195.592 156.662 196.318Z" fill="white"/>
<path d="M186.569 195.982H179.684L182.494 192.54L179.684 189.098H186.569L189.378 192.54L186.569 195.982Z" fill="white"/>
<path d="M186.665 196.182H179.26L182.238 192.54L179.26 188.898H186.665L189.634 192.54L186.665 196.182ZM180.109 195.782H186.513L189.154 192.54L186.513 189.298H180.109L182.75 192.54L180.109 195.782Z" fill="#EBEBEB"/>
<path d="M168.878 189.098L169.999 191.363L172.496 191.732L170.687 193.493L171.119 195.982L168.878 194.805L166.645 195.982L167.069 193.493L165.26 191.732L167.757 191.363L168.878 189.098Z" fill="white"/>
<path d="M171.383 196.35L168.878 195.038L166.372 196.35L166.852 193.565L164.827 191.588L167.629 191.187L168.878 188.65L170.126 191.187L172.928 191.588L170.903 193.565L171.383 196.35ZM168.878 194.581L170.847 195.622L170.471 193.421L172.072 191.868L169.862 191.548L168.878 189.554L167.869 191.548L165.668 191.868L167.269 193.421L166.893 195.622L168.878 194.581Z" fill="#EBEBEB"/>
<path d="M234.933 191.139H194.317V193.941H234.933V191.139Z" fill="#DBDBDB"/>
<path d="M267.593 191.139H251.672V193.941H267.593V191.139Z" fill="#C7C7C7"/>
<path d="M280.905 204.003H132.495V226.921H280.905V204.003Z" fill="#EBEBEB"/>
<path d="M156.662 219.893C156.196 220.177 155.688 220.387 155.157 220.517C154.158 220.76 153.109 220.701 152.142 220.347C151.176 219.994 150.336 219.362 149.729 218.532C149.122 217.701 148.775 216.71 148.731 215.682C148.687 214.654 148.949 213.636 149.484 212.757C150.018 211.878 150.801 211.178 151.734 210.744C152.667 210.309 153.707 210.162 154.724 210.319C155.741 210.476 156.688 210.931 157.446 211.626C158.204 212.321 158.739 213.226 158.984 214.225C159.243 215.294 159.159 216.417 158.742 217.435C158.325 218.453 157.597 219.313 156.662 219.893Z" fill="#4240C2"/>
<path d="M155.469 214.866C155.469 215.182 155.375 215.492 155.199 215.755C155.023 216.018 154.773 216.224 154.481 216.345C154.188 216.466 153.866 216.498 153.556 216.436C153.245 216.374 152.96 216.222 152.736 215.998C152.512 215.774 152.36 215.489 152.298 215.178C152.236 214.867 152.268 214.546 152.389 214.253C152.51 213.96 152.715 213.71 152.979 213.534C153.242 213.359 153.551 213.265 153.868 213.265C154.293 213.265 154.7 213.433 155 213.734C155.3 214.034 155.469 214.441 155.469 214.866Z" fill="white"/>
<path d="M156.662 219.236V219.893C156.196 220.177 155.688 220.387 155.157 220.517C154.482 220.687 153.779 220.718 153.092 220.609C152.404 220.501 151.745 220.254 151.155 219.885V219.236C151.155 218.51 151.443 217.814 151.957 217.3C152.47 216.787 153.166 216.499 153.893 216.499C154.619 216.499 155.315 216.787 155.828 217.3C156.342 217.814 156.63 218.51 156.63 219.236H156.662Z" fill="white"/>
<path d="M186.569 218.908H179.684L182.494 215.458L179.684 212.016H186.569L189.378 215.458L186.569 218.908Z" fill="white"/>
<path d="M168.878 212.016L169.999 214.289L172.496 214.65L170.687 216.411L171.119 218.908L168.878 217.731L166.645 218.908L167.069 216.411L165.26 214.65L167.757 214.289L168.878 212.016Z" fill="#4240C2"/>
<path d="M234.933 214.065H194.317V216.867H234.933V214.065Z" fill="#263238"/>
<path d="M267.593 214.065H251.672V216.867H267.593V214.065Z" fill="#455A64"/>
<path d="M156.662 242.81C156.197 243.098 155.689 243.309 155.157 243.435C154.158 243.678 153.109 243.619 152.142 243.265C151.176 242.912 150.336 242.28 149.729 241.45C149.122 240.619 148.775 239.627 148.731 238.6C148.687 237.572 148.949 236.554 149.484 235.675C150.018 234.796 150.801 234.095 151.734 233.661C152.667 233.227 153.707 233.079 154.724 233.237C155.741 233.394 156.688 233.849 157.446 234.544C158.204 235.239 158.739 236.144 158.984 237.143C159.243 238.212 159.159 239.335 158.742 240.353C158.325 241.371 157.597 242.231 156.662 242.81Z" fill="#4240C2"/>
<path d="M155.469 237.784C155.469 238.1 155.375 238.41 155.199 238.673C155.023 238.936 154.773 239.141 154.481 239.263C154.188 239.384 153.866 239.415 153.556 239.354C153.245 239.292 152.96 239.139 152.736 238.916C152.512 238.692 152.36 238.406 152.298 238.096C152.236 237.785 152.268 237.463 152.389 237.171C152.51 236.878 152.715 236.628 152.979 236.452C153.242 236.276 153.551 236.183 153.868 236.183C154.293 236.183 154.7 236.351 155 236.651C155.3 236.952 155.469 237.359 155.469 237.784Z" fill="white"/>
<path d="M156.662 242.154V242.811C156.197 243.098 155.689 243.309 155.157 243.435C154.482 243.604 153.779 243.636 153.092 243.527C152.404 243.418 151.745 243.172 151.155 242.803V242.154C151.155 241.428 151.443 240.732 151.957 240.218C152.47 239.705 153.166 239.417 153.893 239.417C154.619 239.417 155.315 239.705 155.828 240.218C156.342 240.732 156.63 241.428 156.63 242.154H156.662Z" fill="white"/>
<path d="M186.569 241.826H179.684L182.494 238.384L179.684 234.942H186.569L189.378 238.384L186.569 241.826Z" fill="white"/>
<path d="M186.665 242.026H179.26L182.238 238.384L179.26 234.742H186.665L189.634 238.384L186.665 242.026ZM180.109 241.626H186.513L189.154 238.384L186.513 235.182H180.109L182.75 238.384L180.109 241.626Z" fill="#EBEBEB"/>
<path d="M168.878 234.942L169.999 237.207L172.496 237.567L170.687 239.328L171.119 241.826L168.878 240.649L166.645 241.826L167.069 239.328L165.26 237.567L167.757 237.207L168.878 234.942Z" fill="white"/>
<path d="M171.383 242.218L168.878 240.905L166.372 242.218L166.852 239.432L164.827 237.415L167.629 237.007L168.878 234.469L170.126 237.007L172.928 237.415L170.903 239.384L171.383 242.218ZM165.692 237.743L167.293 239.296L166.917 241.49L168.886 240.449L170.855 241.49L170.479 239.296L172.08 237.743L169.87 237.415L168.886 235.422L167.869 237.415L165.692 237.743Z" fill="#EBEBEB"/>
<path d="M234.933 236.983H194.317V239.785H234.933V236.983Z" fill="#DBDBDB"/>
<path d="M267.593 236.983H251.672V239.785H267.593V236.983Z" fill="#C7C7C7"/>
<path d="M280.905 249.839H132.495V272.757H280.905V249.839Z" fill="#EBEBEB"/>
<path d="M156.662 265.728C156.197 266.016 155.689 266.227 155.157 266.353C153.888 266.657 152.551 266.472 151.413 265.835C150.274 265.197 149.417 264.154 149.014 262.913C148.61 261.672 148.689 260.325 149.235 259.139C149.781 257.954 150.753 257.018 151.959 256.518C153.164 256.018 154.514 255.99 155.738 256.441C156.963 256.892 157.973 257.788 158.566 258.95C159.16 260.112 159.293 261.455 158.941 262.712C158.588 263.968 157.774 265.045 156.662 265.728Z" fill="#455A64"/>
<path d="M155.469 260.701C155.469 261.018 155.375 261.327 155.199 261.591C155.023 261.854 154.773 262.059 154.481 262.18C154.188 262.302 153.866 262.333 153.556 262.272C153.245 262.21 152.96 262.057 152.736 261.833C152.512 261.609 152.36 261.324 152.298 261.014C152.236 260.703 152.268 260.381 152.389 260.089C152.51 259.796 152.715 259.546 152.979 259.37C153.242 259.194 153.551 259.1 153.868 259.1C154.293 259.1 154.7 259.269 155 259.569C155.3 259.869 155.469 260.277 155.469 260.701Z" fill="white"/>
<path d="M156.662 265.072V265.728C156.197 266.016 155.689 266.227 155.157 266.353C154.482 266.522 153.78 266.553 153.093 266.446C152.405 266.339 151.746 266.095 151.155 265.728V265.072C151.155 264.346 151.443 263.65 151.957 263.136C152.47 262.623 153.166 262.334 153.893 262.334C154.619 262.334 155.315 262.623 155.828 263.136C156.342 263.65 156.63 264.346 156.63 265.072H156.662Z" fill="white"/>
<path d="M186.569 264.744H179.684L182.494 261.302L179.684 257.86H186.569L189.378 261.302L186.569 264.744Z" fill="white"/>
<path d="M168.878 257.86L169.999 260.125L172.496 260.485L170.687 262.246L171.119 264.744L168.878 263.567L166.645 264.744L167.069 262.246L165.26 260.485L167.757 260.125L168.878 257.86Z" fill="white"/>
<path d="M234.933 259.901H194.317V262.703H234.933V259.901Z" fill="#DBDBDB"/>
<path d="M267.593 259.901H251.672V262.703H267.593V259.901Z" fill="#C7C7C7"/>
<path d="M156.662 288.646C156.197 288.934 155.689 289.144 155.157 289.271C153.888 289.575 152.551 289.39 151.413 288.753C150.274 288.115 149.417 287.072 149.014 285.831C148.61 284.59 148.689 283.242 149.235 282.057C149.781 280.872 150.753 279.936 151.959 279.436C153.164 278.935 154.514 278.908 155.738 279.359C156.963 279.81 157.973 280.705 158.566 281.868C159.16 283.03 159.293 284.373 158.941 285.629C158.588 286.886 157.774 287.963 156.662 288.646Z" fill="#A6A6A6"/>
<path d="M155.469 283.627C155.469 283.944 155.375 284.253 155.199 284.517C155.023 284.78 154.773 284.985 154.481 285.106C154.188 285.227 153.866 285.259 153.556 285.197C153.245 285.136 152.96 284.983 152.736 284.759C152.512 284.535 152.36 284.25 152.298 283.94C152.236 283.629 152.268 283.307 152.389 283.015C152.51 282.722 152.715 282.472 152.979 282.296C153.242 282.12 153.551 282.026 153.868 282.026C154.293 282.026 154.7 282.195 155 282.495C155.3 282.795 155.469 283.203 155.469 283.627Z" fill="white"/>
<path d="M156.662 287.99V288.646C156.197 288.934 155.689 289.144 155.157 289.271C154.483 289.442 153.78 289.475 153.092 289.367C152.405 289.26 151.745 289.015 151.155 288.646V287.99C151.155 287.264 151.443 286.567 151.957 286.054C152.47 285.541 153.166 285.252 153.893 285.252C154.619 285.252 155.315 285.541 155.828 286.054C156.342 286.567 156.63 287.264 156.63 287.99H156.662Z" fill="white"/>
<path d="M186.569 287.662H179.684L182.494 284.22L179.684 280.777H186.569L189.378 284.22L186.569 287.662Z" fill="white"/>
<path d="M186.665 287.846H179.26L182.238 284.204L179.26 280.561H186.665L189.634 284.204L186.665 287.846ZM180.109 287.445H186.513L189.154 284.244L186.513 281.002H180.109L182.75 284.244L180.109 287.445Z" fill="#EBEBEB"/>
<path d="M168.878 280.777L169.999 283.043L172.496 283.403L170.687 285.172L171.119 287.662L168.878 286.485L166.645 287.662L167.069 285.172L165.26 283.403L167.757 283.043L168.878 280.777Z" fill="white"/>
<path d="M171.383 288.03L168.878 286.709L166.372 288.03L166.852 285.236L164.827 283.267L167.629 282.859L168.878 280.321L170.126 282.859L172.928 283.267L170.903 285.236L171.383 288.03ZM168.878 286.245L170.847 287.277L170.471 285.084L172.072 283.531L169.862 283.211L168.878 281.21L167.893 283.211L165.692 283.531L167.293 285.084L166.917 287.277L168.878 286.245Z" fill="#EBEBEB"/>
<path d="M234.933 282.819H194.317V285.62H234.933V282.819Z" fill="#DBDBDB"/>
<path d="M267.593 282.819H251.672V285.62H267.593V282.819Z" fill="#C7C7C7"/>
<path d="M155.646 330.047H90.6629C82.8902 302.783 76.6384 282.018 76.6384 282.018H138.252C138.252 282.018 145.864 302.583 155.646 330.047Z" fill="#37474F"/>
<path d="M100.18 330.047H98.8434C94.9931 317.199 90.9907 304.432 87.0683 291.568C87.0123 291.4 87.2764 291.32 87.3405 291.488C88.1409 293.713 88.9414 295.939 89.7419 298.172C93.4882 308.706 96.9223 319.353 100.18 330.047Z" fill="#263238"/>
<path d="M136.842 282.042C136.77 283.331 133.336 295.122 131.559 312.765C130.911 319.273 130.174 325.396 129.39 330.047H43.1538C34.6206 303.679 47.2843 282.018 47.2843 282.018C47.2843 282.018 136.85 281.986 136.842 282.042Z" fill="#37474F"/>
<path d="M119.608 311.244C119.913 315.671 120.017 320.105 119.961 324.532C119.82 326.367 119.804 328.21 119.913 330.047H118.416C118.056 327.237 118.416 323.739 118.416 320.978C118.368 309.539 116.911 298.228 115.15 286.941C115.148 286.89 115.164 286.841 115.196 286.801C115.227 286.761 115.271 286.734 115.321 286.723C115.371 286.713 115.422 286.72 115.467 286.744C115.512 286.767 115.547 286.806 115.566 286.853C117.747 294.823 119.102 302.996 119.608 311.244Z" fill="#263238"/>
<path d="M130.302 316.959C130.222 319.313 129.582 325.581 127.733 330.047H126.444C128.95 323.94 128.805 312.02 128.621 309.235C128.101 301.07 127.469 293.401 126.084 284.804C126.036 284.532 126.484 284.516 126.54 284.764C128.982 295.138 130.639 306.313 130.302 316.959Z" fill="#263238"/>
<path d="M48.4777 293.489C45.9802 304.288 47.1969 315.903 49.5824 326.589C49.8305 327.75 50.1107 328.903 50.3828 330.047H49.0861C45.5559 315.15 44.4753 299.733 50.687 285.284C50.7671 285.108 51.0312 285.284 50.9592 285.436C49.9287 288.054 49.0991 290.746 48.4777 293.489Z" fill="#263238"/>
<path d="M191.644 124.547L177.475 169.646C176.907 170.959 177.523 172.096 178.836 172.168L202.434 173.513C203.157 173.502 203.861 173.285 204.465 172.888C205.069 172.491 205.547 171.93 205.844 171.271L219.981 126.204C220.549 124.883 219.933 123.754 218.62 123.682L195.086 122.338C194.361 122.34 193.652 122.549 193.042 122.94C192.432 123.331 191.947 123.889 191.644 124.547Z" fill="#37474F"/>
<path d="M194.445 124.715L180.309 169.782C179.741 171.095 180.357 172.224 181.678 172.304L205.268 173.649C205.991 173.636 206.696 173.419 207.301 173.023C207.906 172.626 208.387 172.066 208.686 171.407L222.815 126.332C223.383 125.019 222.775 123.931 221.454 123.819L197.856 122.466C197.133 122.48 196.429 122.699 195.825 123.097C195.222 123.495 194.743 124.056 194.445 124.715Z" fill="#455A64"/>
<path d="M200.794 127.173C200.762 127.569 200.614 127.947 200.368 128.259C200.121 128.571 199.788 128.803 199.41 128.925C199.032 129.048 198.626 129.056 198.243 128.947C197.861 128.839 197.519 128.62 197.261 128.317C197.003 128.014 196.841 127.642 196.795 127.247C196.749 126.852 196.821 126.453 197.002 126.099C197.183 125.745 197.465 125.453 197.812 125.259C198.159 125.066 198.556 124.979 198.953 125.011C199.483 125.054 199.975 125.306 200.32 125.711C200.665 126.116 200.836 126.642 200.794 127.173Z" fill="#263238"/>
<path d="M111.62 189.474C123.091 218.78 150.619 257.667 163.011 258.644C168.902 259.116 179.341 261.222 187.53 254.954C205.396 241.282 221.382 213.921 225.328 197.919C226.737 192.228 199.537 177.907 195.086 182.318C184.68 192.66 171.992 213.465 170.271 213.225C163.963 212.328 140.509 190.011 124.155 174.329C104.303 155.278 107.033 177.795 111.62 189.474Z" fill="#EB9481"/>
<path d="M227.986 168.205C225.792 156.31 223.407 153.597 226.881 142.59C229.163 135.386 225.528 130.799 219.933 136.354C210.775 145.432 210.383 161.369 211.84 166.933L227.986 168.205Z" fill="#EB9481"/>
<path d="M223.631 202.85C223.631 202.85 229.923 186.897 228.842 174.033C228.09 165.116 224.295 145.888 200.225 134.281C194.517 131.527 184.431 131.655 192.124 139.54C197.583 145.143 202.746 147.041 205.332 150.875C205.332 150.875 192.524 152.556 189.979 158.383C187.768 163.479 185.92 168.725 184.447 174.081C185.366 174.576 186.315 175.012 187.289 175.386C187.289 175.386 185.088 180.917 188.746 189.21L223.631 202.85Z" fill="#EB9481"/>
<path d="M226.769 165.596C223.399 162.33 216.138 155.534 208.261 152.036C199.52 148.153 181.621 143.03 178.82 149.514C176.77 154.269 183.43 156.831 183.43 156.831C183.43 156.831 175.586 156.27 174.673 160.969C173.873 165.252 179.108 166.925 179.108 166.925C179.108 166.925 174.305 167.405 174.305 171.688C174.305 176.835 184.383 174.986 188.882 180.213C189.874 181.381 226.769 165.596 226.769 165.596Z" fill="#EB9481"/>
<path d="M205.7 161.962C202.026 159.408 192.196 155.758 183.591 156.71C183.391 156.71 183.303 156.887 183.487 156.903C191.061 157.713 198.509 159.439 205.668 162.042C205.716 162.066 205.74 161.986 205.7 161.962Z" fill="#263238"/>
<path d="M201.489 170.679C198.095 168.798 187.801 165.492 179.076 166.749C178.884 166.749 178.804 166.941 178.988 166.957C186.579 167.372 194.098 168.647 201.401 170.759C201.412 170.771 201.427 170.778 201.443 170.778C201.458 170.779 201.474 170.774 201.485 170.763C201.497 170.752 201.504 170.737 201.505 170.722C201.506 170.706 201.5 170.691 201.489 170.679Z" fill="#263238"/>
<path d="M147.426 191.86L143.055 197.167L142.15 198.272L124.644 219.42C124.644 219.42 108.802 193.549 105.6 178.836C103.687 170.031 105.064 164.787 108.914 163.835C109.201 163.768 109.493 163.725 109.787 163.707C112.276 163.491 115.622 164.803 119.625 167.757C130.896 176.082 147.426 191.86 147.426 191.86Z" fill="#4240C2"/>
<path d="M146.448 190.987C146.044 192.314 145.549 193.611 144.967 194.87L147.369 191.988C147.375 191.953 147.375 191.918 147.369 191.884C147.297 191.74 146.968 191.428 146.448 190.987ZM119.56 167.773C118.004 168.762 116.579 169.943 115.317 171.287C111.483 175.3 109.339 180.634 109.33 186.184C109.341 187.675 109.438 189.163 109.618 190.643C110.013 191.556 110.413 192.468 110.819 193.381C110.747 192.788 110.667 192.204 110.586 191.604C110.028 188.408 109.985 185.143 110.458 181.934C110.964 179.403 111.927 176.986 113.3 174.801C114.992 172.071 117.246 169.733 119.912 167.941C119.808 167.877 119.72 167.805 119.624 167.733L119.56 167.773Z" fill="white"/>
<path d="M121.241 210.623C122.186 208.398 131.912 195.038 140.013 186.552C140.037 186.525 140.072 186.508 140.108 186.506C140.145 186.504 140.181 186.516 140.209 186.54C140.236 186.565 140.253 186.599 140.255 186.636C140.258 186.673 140.245 186.709 140.221 186.737C139.42 187.777 123.411 209.238 121.522 210.863C121.37 210.999 121.177 210.783 121.241 210.623Z" fill="#263238"/>
<path opacity="0.05" d="M135.85 205.9L124.643 219.412C124.643 219.412 108.802 193.549 105.6 178.836C103.391 168.686 105.544 163.29 110.803 163.699L135.85 205.9Z" fill="black"/>
<path d="M139.052 285.596C136.811 287.998 42.0415 298.124 41.4972 297.468C40.0483 295.698 48.7656 199.921 87.5891 164.835C94.4332 158.656 106.52 160.417 112.124 163.595C114.918 165.196 119.785 178.42 124.547 193.877C128.15 205.684 140.429 284.043 139.052 285.596Z" fill="#4240C2"/>
<path d="M139.052 285.596C138.556 286.133 133.449 287.061 125.82 288.166L124.956 288.286C121.098 288.838 116.647 289.431 111.844 290.031L110.803 290.167C97.091 291.888 80.7371 293.729 67.3531 295.138L66.9208 295.178C52.5121 296.699 41.6815 297.692 41.4974 297.468C41.3133 297.243 41.3133 293.249 41.9457 286.957C41.9457 286.693 42.0017 286.413 42.0257 286.157C43.5387 271.612 47.7332 245.188 56.2664 219.629C56.4024 219.212 56.5465 218.828 56.6826 218.388C59.236 210.768 62.2487 203.31 65.7041 196.054C65.8081 195.838 65.9042 195.63 66.0162 195.414C69.3988 188.296 73.4742 181.529 78.1836 175.21C78.3437 175.002 78.4958 174.801 78.6639 174.609C81.3404 171.096 84.3275 167.83 87.5893 164.851C88.5039 164.036 89.5178 163.339 90.6071 162.778C90.8553 162.65 91.1114 162.53 91.3676 162.418C94.7809 160.985 98.5 160.435 102.182 160.817L103.095 160.913C106.251 161.222 109.318 162.141 112.124 163.619C113.221 164.251 114.646 166.669 116.255 170.343C116.335 170.503 116.407 170.679 116.479 170.855C118.88 176.458 121.754 184.816 124.548 193.901C125.532 197.103 127.173 205.268 128.99 215.45L129.11 216.138C129.743 219.653 130.391 223.415 131.04 227.289C131.136 227.842 131.232 228.386 131.32 228.938C132.641 236.847 133.961 245.156 135.138 252.905C135.178 253.217 135.226 253.537 135.282 253.841C136.275 260.469 137.155 266.649 137.836 271.764C137.884 272.172 137.932 272.565 137.988 272.965C138.892 280.313 139.357 285.22 139.052 285.596Z" fill="#4240C2"/>
<path d="M108.218 276.311C106.603 274.054 104.547 272.147 102.174 270.707C99.6255 269.226 96.8151 268.25 93.897 267.834C90.8391 267.305 87.6292 267.033 84.7635 265.704C82.0258 264.464 80.1047 262.246 78.1915 260.013C77.6872 259.429 77.1669 258.844 76.6386 258.284C77.2389 257.876 77.8473 257.483 78.4717 257.075C82.0659 254.866 86.0362 253.201 89.3583 250.575C92.3648 248.245 94.4697 244.943 95.3139 241.234C96.1212 237.578 95.843 233.766 94.5134 230.267C93.1016 226.736 90.7753 223.644 87.7733 221.31C84.6956 218.953 81.1767 217.237 77.4246 216.264C73.6725 215.29 69.7633 215.079 65.9281 215.642C62.7192 216.07 59.5938 216.982 56.6585 218.348C56.5224 218.764 56.3783 219.148 56.2423 219.589C57.6651 218.872 59.1427 218.27 60.6609 217.787C67.9844 215.381 75.9593 215.942 82.8743 219.348C86.2094 221.007 89.0953 223.445 91.2874 226.457C93.3965 229.435 94.585 232.967 94.7055 236.615C94.8723 240.22 93.8391 243.778 91.7677 246.733C89.3663 249.991 85.7081 251.96 82.234 253.841C80.0887 255.01 78.0074 256.243 75.9822 257.612C74.8112 256.397 73.406 255.433 71.8517 254.778C69.2694 253.835 66.4402 253.819 63.8468 254.73C58.2034 256.627 54.8494 262.094 54.201 267.834C53.8848 271.034 54.256 274.266 55.2897 277.311C52.9371 279.722 50.3064 281.845 47.4529 283.635C45.7398 284.694 43.9002 285.533 41.9776 286.133C41.9776 286.405 41.9216 286.685 41.8976 286.933C42.2418 286.837 42.586 286.733 42.9222 286.613C47.8292 284.956 51.9116 281.77 55.6019 278.192C56.6293 280.97 57.9722 283.621 59.6043 286.093C61.7172 289.354 64.1581 292.39 66.8887 295.154L67.3209 295.114C65.7423 293.448 64.2642 291.689 62.8943 289.847C60.0246 286.165 57.7478 282.057 56.1462 277.672C57.515 276.311 58.8358 274.894 60.1486 273.493C62.6781 270.739 65.1676 267.89 67.8653 265.32C70.3803 262.902 73.0926 260.699 75.9742 258.732C77.6952 260.565 79.1761 262.639 81.0492 264.336C83.2593 266.172 85.9163 267.39 88.7499 267.866C91.6877 268.482 94.7135 268.73 97.6032 269.619C100.176 270.431 102.54 271.797 104.527 273.621C106.531 275.405 108.137 277.591 109.24 280.036C110.343 282.481 110.919 285.131 110.931 287.814C110.926 288.604 110.864 289.393 110.747 290.175L111.788 290.039C112.363 285.177 111.089 280.276 108.218 276.311ZM71.5635 260.853C68.5294 263.353 65.6852 266.074 63.0544 268.994C60.6529 271.572 58.3395 274.27 55.85 276.791C55.4112 275.368 55.1057 273.908 54.9375 272.428C54.3131 266.825 56.0181 260.421 60.837 257.075C63.0383 255.525 65.6873 254.741 68.3776 254.842C71.0141 255.024 73.4869 256.186 75.3098 258.1C74.037 258.972 72.7802 259.877 71.5635 260.853ZM135.098 252.849C132.328 255.066 129.695 257.483 126.597 259.252C122.138 261.798 116.006 263.151 111.948 259.108C110.257 257.467 109.238 255.255 109.09 252.903C108.942 250.552 109.676 248.229 111.147 246.389C112.748 244.147 114.726 242.266 116.279 239.985C117.552 238.077 118.663 236.066 119.601 233.973C121.589 234.57 123.719 234.494 125.66 233.757C128.029 232.805 130.004 231.078 131.264 228.858C131.176 228.306 131.079 227.761 130.983 227.209C130.356 228.439 129.546 229.567 128.582 230.555C127.692 231.502 126.603 232.238 125.392 232.71C124.182 233.183 122.881 233.379 121.586 233.285C121.062 233.232 120.542 233.138 120.033 233.005C120.153 232.756 120.265 232.5 120.377 232.204C122.626 227.065 124.507 221.63 128.046 217.179C128.36 216.778 128.694 216.394 129.046 216.026L128.926 215.338C125.596 218.796 123.451 223.295 121.554 227.641C120.809 229.346 120.081 231.059 119.288 232.756C117.511 232.123 115.902 231.094 114.581 229.747C110.235 225.32 109.907 218.484 110.355 212.656C110.643 209.102 111.155 205.564 111.332 202.01C111.369 198.501 111.101 194.994 110.531 191.532C109.973 188.336 109.93 185.071 110.403 181.862C110.909 179.331 111.872 176.914 113.245 174.729C114.13 173.277 115.183 171.933 116.383 170.727C116.311 170.551 116.238 170.375 116.158 170.215C115.854 170.503 115.558 170.799 115.262 171.111C111.405 175.177 109.279 180.581 109.33 186.184C109.33 189.835 110.059 193.429 110.339 197.063C110.53 200.807 110.35 204.561 109.803 208.27C109.058 214.746 108.394 221.878 111.772 227.769C113.366 230.541 115.877 232.67 118.872 233.789C118.496 234.59 118.112 235.39 117.695 236.127C116.959 237.494 116.136 238.812 115.23 240.073C114.373 241.242 113.413 242.33 112.468 243.427C110.731 245.452 108.962 247.662 108.466 250.335C108.04 252.631 108.395 255.004 109.474 257.075C110.517 259.176 112.265 260.842 114.413 261.782C117.014 262.785 119.88 262.861 122.53 261.998C127.541 260.533 131.336 257.003 135.282 253.817C135.186 253.513 135.138 253.193 135.098 252.881V252.849ZM137.948 272.909C135.426 270.908 132.736 268.906 129.438 268.642C127.826 268.457 126.201 268.858 124.86 269.771C123.633 270.697 122.72 271.976 122.242 273.437C121.15 276.655 121.278 280.162 122.602 283.291C123.366 285.108 124.451 286.773 125.804 288.206L124.94 288.326C124.041 287.353 123.259 286.279 122.61 285.124C121.691 283.477 121.081 281.676 120.809 279.809C120.313 276.567 120.809 272.917 122.939 270.315C125.252 267.497 129.022 267.209 132.264 268.394C134.284 269.21 136.159 270.345 137.82 271.756C137.844 272.148 137.892 272.549 137.948 272.941V272.909ZM102.23 162.122C102.518 161.722 102.782 161.321 103.031 160.889L102.118 160.793C100.26 163.643 98.0526 166.249 95.546 168.55L95.0497 169.022C94.5451 167.253 93.7527 165.579 92.7043 164.067C92.2816 163.476 91.8132 162.92 91.3034 162.402C91.0473 162.514 90.7911 162.634 90.543 162.762C92.2206 164.468 93.4642 166.552 94.1692 168.838C94.2492 169.102 94.3213 169.366 94.3933 169.638C92.2249 171.788 89.6868 173.529 86.9008 174.777C84.2752 175.842 81.0732 176.058 78.5998 174.601C78.4317 174.793 78.2796 174.994 78.1195 175.202C80.1666 176.376 82.5768 176.75 84.8836 176.25C88.5578 175.554 91.6957 173.128 94.4413 170.719L94.6254 170.559C95.7781 175.506 95.3459 180.725 96.1223 185.768C97.0109 191.508 99.7645 197.311 98.3477 203.187C97.8816 205.49 96.6278 207.559 94.8015 209.038C93.7019 209.79 92.4373 210.265 91.1149 210.424C89.7925 210.583 88.4513 210.42 87.205 209.951C81.5375 208.134 78.2315 202.746 73.5407 199.432C71.1359 197.874 68.5962 196.535 65.9521 195.43C65.84 195.646 65.744 195.854 65.6399 196.07C67.2409 196.831 68.8419 197.543 70.2987 198.352C71.445 198.956 72.5423 199.65 73.5807 200.425C74.7944 201.379 75.9492 202.405 77.0388 203.499C79.2081 205.612 81.3374 207.861 83.979 209.406C86.3805 210.807 89.2542 211.696 92.0399 211.159C93.2348 210.895 94.36 210.381 95.3411 209.649C96.3223 208.918 97.137 207.987 97.7313 206.917C98.9507 204.754 99.5801 202.308 99.5564 199.825C99.5564 196.623 98.6839 193.421 97.9074 190.323C97.469 188.675 97.1189 187.005 96.8588 185.32C96.6507 183.831 96.5306 182.342 96.4425 180.845C96.3532 177.88 96.1074 174.923 95.7061 171.984C95.594 171.303 95.4579 170.631 95.2978 169.959C97.8937 167.613 100.219 164.985 102.23 162.122Z" fill="white"/>
<path d="M78.3672 178.179C62.7658 210.655 41.8812 291.36 38.8153 303.223C36.7261 311.276 78.7755 319.433 79.8881 313.837C81.1689 307.434 97.2506 212.976 95.6497 178.956C94.7771 160.337 83.7625 166.973 78.3672 178.179Z" fill="#EB9481"/>
<path d="M80.4085 310.115C79.9122 316.231 76.4061 328.67 73.4603 330.696C70.5145 332.721 54.3528 333.169 46.2439 333.601C38.135 334.034 36.3899 331.872 36.3739 329.047C36.3579 326.221 53.4002 324.812 53.4002 324.812C53.4002 324.812 30.9866 332.537 25.3112 333.898C19.6358 335.258 6.62793 339.285 4.49864 334.642C3.47402 332.545 6.97214 330.191 6.97214 330.191C6.97214 330.191 1.52084 332.096 0.496224 329.391C-0.672482 326.309 3.64212 324.356 3.64212 324.356C3.64212 324.356 0.216054 325.236 0.00792838 322.683C-0.472362 316.991 21.0286 313.077 21.0286 313.077C21.0286 313.077 4.87487 322.018 4.0984 317.392C3.02575 310.988 36.622 302.134 40.0081 299.141C42.4692 296.861 44.7519 294.396 46.8362 291.768L80.4085 310.115Z" fill="#EB9481"/>
<path d="M36.59 330.456C36.5126 330.06 36.5319 329.652 36.6462 329.266C36.7604 328.88 36.9664 328.527 37.2464 328.238C37.8024 327.673 38.449 327.205 39.1596 326.853C40.626 326.13 42.1561 325.543 43.7304 325.1C46.8923 324.116 50.1342 323.371 53.3362 322.355C49.9543 322.478 46.6023 323.035 43.3621 324.012C41.7085 324.482 40.1294 325.182 38.6713 326.093C37.9173 326.56 37.2685 327.179 36.7662 327.91C36.5206 328.283 36.3754 328.714 36.3446 329.16C36.3137 329.606 36.3983 330.052 36.59 330.456Z" fill="#263238"/>
<path d="M6.97253 330.191C9.28593 329.495 11.5593 328.71 13.8247 327.926C16.09 327.142 18.3474 326.325 20.6048 325.525L27.3528 323.011C29.6022 322.211 31.8436 321.346 34.1169 320.538C31.7351 320.928 29.3818 321.476 27.0727 322.179C24.7513 322.835 22.4779 323.635 20.2125 324.452C17.9472 325.268 15.7138 326.165 13.5125 327.134C11.3112 328.102 9.10983 329.055 6.97253 330.191Z" fill="#263238"/>
<path d="M28.3206 315.118C26.1216 315.378 23.944 315.796 21.8047 316.367C19.6576 316.919 17.5413 317.584 15.4649 318.36C13.3853 319.126 11.3513 320.011 9.37319 321.01C7.38553 321.987 5.47018 323.106 3.64172 324.356C5.69897 323.555 7.69217 322.611 9.7334 321.81C11.7746 321.01 13.8079 320.209 15.8651 319.409C17.9224 318.608 19.9876 317.912 22.0528 317.183C24.1181 316.455 26.2234 315.807 28.3206 315.118Z" fill="#263238"/>
<path d="M24.6872 309.859C21.1368 310.321 17.6623 311.247 14.3529 312.613C11.0147 313.914 7.86286 315.65 4.97925 317.776C8.28525 316.399 11.4952 314.966 14.7772 313.677C18.0592 312.389 21.3812 311.132 24.6872 309.859Z" fill="#263238"/>
<path d="M96.458 215.49L58.9794 215.674C58.9794 215.674 69.1535 185.552 78.8394 173.104C88.5252 160.657 96.2979 162.298 97.1624 176.947C98.027 191.596 96.458 215.49 96.458 215.49Z" fill="#4240C2"/>
<path d="M97.1625 176.947C97.2105 177.611 97.2425 178.307 97.2666 179.004C97.2666 179.316 97.2666 179.628 97.3146 179.948C97.8429 194.621 96.4661 215.49 96.4661 215.49L86.2839 215.546H85.2673L58.9874 215.69C58.9874 215.69 63.302 202.882 68.9695 190.571C69.1616 190.163 69.3457 189.77 69.5538 189.338C72.4436 183.158 75.6615 177.195 78.8314 173.12C88.5253 160.657 96.29 162.306 97.1625 176.947Z" fill="#4240C2"/>
<path d="M66.0876 215.642L73.7002 215.594C71.1703 215.298 68.6136 215.314 66.0876 215.642ZM96.8823 185.288C96.6741 183.799 96.5541 182.31 96.466 180.813C96.3767 177.848 96.1309 174.89 95.7296 171.952C95.6175 171.271 95.4814 170.599 95.3213 169.926C95.4654 169.782 95.6175 169.654 95.7696 169.502C95.6575 169.214 95.5454 168.942 95.4254 168.702C95.3133 168.822 95.1852 168.926 95.0732 169.046C94.8565 168.277 94.5891 167.523 94.2727 166.789C93.8364 166.219 93.2924 165.74 92.6717 165.38C93.3436 166.472 93.8811 167.641 94.2727 168.862C94.3527 169.126 94.4248 169.39 94.4968 169.662C92.3284 171.812 89.7903 173.552 87.0043 174.801C84.1626 175.962 80.6404 176.114 78.1029 174.225C77.9508 174.433 77.8067 174.633 77.6626 174.849C78.7211 175.575 79.9173 176.076 81.1771 176.321C82.4369 176.566 83.7337 176.55 84.9871 176.274C88.6613 175.578 91.7992 173.152 94.5448 170.743L94.729 170.583C95.8817 175.53 95.4494 180.749 96.2259 185.792C96.522 187.665 97.0263 189.554 97.4906 191.443C97.4906 190.379 97.4906 189.314 97.4906 188.242C97.2105 187.233 97.0183 186.264 96.8823 185.288ZM94.825 208.998C93.7254 209.75 92.4608 210.225 91.1384 210.384C89.816 210.543 88.4748 210.38 87.2284 209.911C81.561 208.094 78.255 202.706 73.5642 199.392C71.3872 197.966 69.0858 196.739 66.688 195.726C66.5839 195.942 66.4959 196.166 66.3998 196.39C67.7286 197.023 69.0654 197.639 70.3222 198.32C71.4685 198.924 72.5658 199.617 73.6042 200.393C74.8179 201.347 75.9727 202.373 77.0623 203.467C79.2316 205.58 81.3609 207.829 84.0025 209.374C86.4039 210.775 89.2777 211.664 92.0633 211.127C93.9625 210.725 95.6614 209.672 96.8662 208.15C96.8662 207.677 96.9143 207.181 96.9303 206.669C96.3836 207.572 95.669 208.363 94.825 208.998Z" fill="white"/>
<path d="M63.8066 206.997C66.208 206.26 83.5065 205.116 95.7699 205.932C95.8081 205.932 95.8447 205.947 95.8718 205.974C95.8988 206.001 95.914 206.038 95.914 206.076C95.914 206.115 95.8988 206.151 95.8718 206.178C95.8447 206.205 95.8081 206.22 95.7699 206.22C94.4171 206.3 66.3681 207.821 63.8066 207.389C63.5584 207.381 63.5984 207.085 63.8066 206.997Z" fill="#263238"/>
<path d="M98.8357 192.772C98.8357 192.747 98.8256 192.722 98.8076 192.704C98.7895 192.686 98.7651 192.676 98.7396 192.676C98.7142 192.676 98.6897 192.686 98.6717 192.704C98.6537 192.722 98.6436 192.747 98.6436 192.772C98.3009 194.047 98.0336 195.341 97.8431 196.647C97.7871 196.943 97.747 197.247 97.691 197.543C97.5869 194.341 97.4348 191.227 97.2667 188.089C97.2667 187.945 97.0266 187.945 97.0346 188.089C97.1307 198.968 96.8425 208.902 96.1781 215.194L92.9281 215.466C92.8829 215.475 92.8422 215.5 92.813 215.535C92.7838 215.571 92.7678 215.616 92.7678 215.662C92.7678 215.708 92.7838 215.753 92.813 215.789C92.8422 215.824 92.8829 215.849 92.9281 215.858L97.0586 216.002C97.2347 216.002 97.9231 206.941 97.755 199.8C97.9792 198.768 98.2193 197.743 98.3874 196.703C98.6371 195.406 98.7869 194.092 98.8357 192.772Z" fill="#263238"/>
<path d="M64.0468 215.682C62.3577 215.786 60.6687 215.874 58.9877 215.922H58.6515L58.7556 215.594C59.412 213.529 60.0844 211.472 60.8208 209.438C61.5572 207.405 62.3017 205.364 63.1022 203.355C63.9027 201.345 64.7031 199.352 65.6397 197.367C66.5763 195.382 67.4728 193.437 68.5215 191.54L66.12 197.591L63.8146 203.643L61.5092 209.702L59.2118 215.802L58.9877 215.482C60.6687 215.49 62.3577 215.578 64.0468 215.682Z" fill="#263238"/>
<path d="M109.819 180.189C104.119 182.07 93.3606 174.057 88.7898 167.205C88.4776 166.732 88.7898 146.816 88.4696 142.87C88.3976 142.07 113.821 146.728 113.821 146.728C113.821 146.728 112.1 155.23 112.74 162.114C112.804 162.69 115.326 178.372 109.819 180.189Z" fill="#EB9481"/>
<path d="M113.829 146.72C113.829 146.84 113.709 147.337 113.58 148.137C113.356 149.498 113.02 151.699 112.82 154.197C112.573 156.821 112.554 159.462 112.764 162.09C112.772 162.272 112.793 162.454 112.828 162.634V162.722C112.884 163.042 112.932 163.475 112.988 163.987C112.198 164.164 111.395 164.279 110.587 164.331C97.0505 165.196 91.0629 149.018 89.2538 142.758L89.6861 142.798C90.3505 142.846 91.231 142.95 92.2876 143.086L93.0881 143.198C94.7771 143.438 96.7943 143.759 98.8916 144.095C99.58 144.207 100.268 144.311 100.973 144.439C102.478 144.703 103.999 144.959 105.408 145.191C106.016 145.312 106.616 145.416 107.177 145.512C107.737 145.608 108.417 145.728 108.986 145.824L109.786 145.968L110.178 146.048L112.284 146.424L113.292 146.6C113.436 146.624 113.577 146.656 113.717 146.696C113.757 146.696 113.773 146.696 113.789 146.696L113.829 146.72Z" fill="#263238"/>
<path d="M83.6027 113.853C81.2012 122.762 86.6925 148.081 93.1524 153.557C102.534 161.489 117.463 161.786 124.115 150.627C130.519 139.812 122.81 106.928 115.63 101.997C105.048 94.737 87.1568 100.693 83.6027 113.853Z" fill="#EB9481"/>
<path d="M87.2769 138.636C91.7997 137.179 89.7985 125.412 89.7985 125.412C89.7985 125.412 95.1937 122.21 95.1217 111.195C95.1217 111.195 100.949 121.017 119.801 115.237C119.784 111.719 118.664 108.295 116.599 105.447C119.095 108.424 121.344 111.599 123.323 114.941C123.323 114.941 125.06 98.1311 110.379 94.9291C104.535 93.6564 96.3464 95.5935 84.8835 104.055C84.8835 104.055 81.1292 96.9544 79.8565 98.2031C78.5837 99.4519 82.6341 105.984 82.6341 105.984C82.6341 105.984 76.8066 105.263 76.0862 106.584C75.4618 107.721 81.0332 108.185 81.0332 108.185C81.0332 108.185 73.0283 112.388 76.2303 121.873C79.104 130.551 85.0356 139.364 87.2769 138.636Z" fill="#263238"/>
<path d="M82.5382 107.737C80.0878 108.092 77.8517 109.33 76.2506 111.219C74.6496 113.107 73.794 115.516 73.8449 117.991C73.933 120.817 75.1577 123.667 76.5025 126.116C78.017 128.716 79.8599 131.111 81.9858 133.24C82.0979 133.36 82.274 133.16 82.1539 133.04C80.2782 131.017 78.7257 128.717 77.5512 126.22C76.2942 123.893 75.4186 121.38 74.9576 118.776C74.6491 116.351 75.263 113.9 76.6775 111.907C78.092 109.914 80.2039 108.526 82.5942 108.017C82.6273 108.006 82.6552 107.983 82.6726 107.953C82.6901 107.922 82.6959 107.887 82.6891 107.852C82.6822 107.818 82.6631 107.787 82.6354 107.766C82.6076 107.745 82.5731 107.735 82.5382 107.737Z" fill="#263238"/>
<path d="M98.8919 94.2167C95.743 95.5441 92.7825 97.2801 90.0865 99.3798C87.4274 101.252 85.1096 103.567 83.2344 106.224C83.1464 106.36 83.3225 106.52 83.4345 106.392C87.6371 101.885 93.1124 98.4753 98.6437 95.7857C103.791 93.2641 110.219 92.1194 115.15 95.7857C115.157 95.7958 115.166 95.8041 115.177 95.81C115.188 95.8159 115.2 95.8192 115.213 95.8196C115.225 95.8199 115.237 95.8174 115.249 95.8122C115.26 95.807 115.27 95.7992 115.278 95.7895C115.285 95.7798 115.291 95.7685 115.293 95.7563C115.296 95.7442 115.296 95.7316 115.293 95.7196C115.29 95.7076 115.284 95.6964 115.276 95.6871C115.267 95.6777 115.257 95.6703 115.246 95.6656C110.699 91.7272 104.151 92.0874 98.8919 94.2167Z" fill="#263238"/>
<path d="M90.0381 134.593C90.0381 134.593 84.1466 126.436 80.4323 128.549C76.7181 130.663 81.2328 142.542 85.6515 144.111C86.2045 144.351 86.8003 144.477 87.4031 144.481C88.006 144.485 88.6035 144.368 89.1597 144.135C89.7159 143.903 90.2194 143.56 90.64 143.128C91.0606 142.696 91.3895 142.184 91.6071 141.621L90.0381 134.593Z" fill="#EB9481"/>
<path d="M81.8095 131.919C81.7375 131.919 81.7295 132.016 81.8095 132.04C84.9074 133.24 86.5724 136.042 87.7491 139.012C86.8205 137.891 85.5638 137.283 84.0509 138.395C83.9708 138.451 84.0509 138.579 84.1309 138.555C84.6701 138.375 85.252 138.366 85.7966 138.529C86.3413 138.692 86.822 139.02 87.1728 139.468C87.7505 140.215 88.2495 141.02 88.6617 141.869C88.8057 142.142 89.302 141.99 89.198 141.669C89.1965 141.648 89.1965 141.627 89.198 141.605C89.174 137.699 86.0361 132.256 81.8095 131.919Z" fill="#263238"/>
<path d="M110.002 128.389C110.002 128.333 109.89 128.493 109.898 128.565C110.259 130.247 110.379 132.24 108.946 133.072C108.937 133.076 108.93 133.082 108.925 133.09C108.92 133.098 108.917 133.107 108.917 133.116C108.917 133.126 108.92 133.135 108.925 133.143C108.93 133.15 108.937 133.157 108.946 133.16C110.795 132.552 110.611 129.934 110.002 128.389Z" fill="#263238"/>
<path d="M108.177 126.892C105.423 127.173 106.176 132.672 108.729 132.416C111.283 132.16 110.49 126.66 108.177 126.892Z" fill="#263238"/>
<path d="M119.697 126.404C119.697 126.34 119.841 126.468 119.849 126.54C120.033 128.245 120.529 130.174 122.146 130.543C122.194 130.543 122.202 130.639 122.146 130.639C120.225 130.623 119.592 128.053 119.697 126.404Z" fill="#263238"/>
<path d="M120.977 124.419C123.691 123.835 124.659 129.302 122.146 129.838C119.632 130.375 118.704 124.907 120.977 124.419Z" fill="#263238"/>
<path d="M105.6 125.348C106.293 125.035 106.969 124.685 107.625 124.299C108.391 124.035 109.048 123.522 109.49 122.842C109.587 122.603 109.602 122.339 109.534 122.09C109.466 121.841 109.319 121.622 109.114 121.465C108.657 121.218 108.142 121.098 107.623 121.116C107.104 121.135 106.599 121.291 106.16 121.569C105.188 121.993 104.409 122.764 103.975 123.731C103.889 123.957 103.871 124.204 103.923 124.44C103.974 124.677 104.093 124.894 104.264 125.065C104.436 125.235 104.653 125.353 104.89 125.403C105.127 125.453 105.373 125.434 105.6 125.348Z" fill="#263238"/>
<path d="M122.306 121.409C121.546 121.359 120.79 121.268 120.04 121.137C119.23 121.153 118.437 120.903 117.783 120.425C117.607 120.235 117.499 119.992 117.476 119.734C117.452 119.476 117.515 119.218 117.655 119C117.995 118.609 118.433 118.316 118.924 118.151C119.415 117.986 119.942 117.956 120.449 118.063C121.511 118.115 122.515 118.567 123.258 119.328C123.42 119.509 123.526 119.733 123.562 119.974C123.599 120.214 123.564 120.459 123.463 120.68C123.362 120.901 123.199 121.088 122.993 121.217C122.788 121.347 122.549 121.413 122.306 121.409Z" fill="#263238"/>
<path d="M110.323 143.543C110.787 143.887 111.267 144.343 111.924 144.343C112.555 144.245 113.158 144.013 113.693 143.663C113.749 143.663 113.813 143.663 113.781 143.743C113.583 144.11 113.29 144.418 112.932 144.633C112.574 144.849 112.165 144.964 111.748 144.967C111.388 144.924 111.049 144.774 110.774 144.537C110.498 144.301 110.3 143.988 110.203 143.639C110.131 143.543 110.235 143.495 110.323 143.543Z" fill="#263238"/>
<path d="M111.411 138.195C111.936 138.81 112.582 139.309 113.31 139.662C114.037 140.015 114.83 140.213 115.637 140.245C116.342 140.28 117.048 140.216 117.735 140.052C117.868 140.03 117.999 139.998 118.127 139.956L118.495 139.844C118.583 139.815 118.659 139.757 118.711 139.681C118.763 139.604 118.788 139.513 118.783 139.42L118.743 139.244V139.092C118.591 137.779 118.191 135.802 118.191 135.802C118.703 135.978 121.297 136.738 121.169 136.058C120.048 130.455 118.807 124.179 116.51 118.816C116.498 118.774 116.471 118.739 116.433 118.718C116.396 118.697 116.351 118.692 116.31 118.704C116.268 118.715 116.233 118.743 116.212 118.78C116.191 118.818 116.186 118.862 116.198 118.904C117.062 124.355 118.871 129.614 119.824 135.073C118.901 134.784 117.941 134.63 116.974 134.617C116.798 134.697 117.815 138.427 117.839 139.02C117.841 139.041 117.841 139.063 117.839 139.084C115.677 139.668 113.924 139.228 111.579 138.043C111.411 137.939 111.291 138.075 111.411 138.195Z" fill="#263238"/>
<path d="M116.87 139.492C116.281 140.527 115.434 141.393 114.413 142.006C113.846 142.324 113.193 142.456 112.548 142.382C111.139 142.214 110.947 140.973 111.035 139.868C111.094 139.281 111.223 138.704 111.419 138.147C113.046 139.166 114.956 139.637 116.87 139.492Z" fill="#263238"/>
<path d="M114.413 142.006C113.846 142.324 113.193 142.456 112.548 142.382C111.139 142.214 110.947 140.973 111.035 139.868C112.516 139.82 114.093 140.605 114.413 142.006Z" fill="#FF9ABB"/>
</svg>
