<svg width="31" height="31" viewBox="0 0 31 31" fill="none" xmlns="http://www.w3.org/2000/svg">
<path d="M28.8213 6.34638C28.6859 6.2785 28.535 6.24753 28.3838 6.25661C28.2327 6.26568 28.0865 6.31446 27.9602 6.39805L19.8055 11.8575V7.11277C19.8058 6.949 19.7593 6.78855 19.6716 6.65024C19.5839 6.51193 19.4586 6.4015 19.3104 6.3319C19.1621 6.26229 18.9971 6.23641 18.8347 6.25728C18.6722 6.27814 18.5191 6.3449 18.3933 6.44971L11.6077 12.0555H8.61106V3.97832C8.61592 3.77927 8.55165 3.58468 8.42919 3.42767C8.30673 3.27067 8.13364 3.16096 7.93939 3.11721L4.49495 2.34221C4.36786 2.3137 4.23596 2.31438 4.10918 2.34421C3.9824 2.37404 3.86404 2.43224 3.763 2.51443C3.65962 2.59818 3.57705 2.70474 3.52177 2.82576C3.46649 2.94678 3.44 3.07896 3.44439 3.21193V12.0555H2.58328C2.3549 12.0555 2.13587 12.1463 1.97438 12.3078C1.81289 12.4692 1.72217 12.6883 1.72217 12.9167V26.6944C1.72217 26.9228 1.81289 27.1418 1.97438 27.3033C2.13587 27.4648 2.3549 27.5555 2.58328 27.5555H28.4166C28.645 27.5555 28.864 27.4648 29.0255 27.3033C29.187 27.1418 29.2777 26.9228 29.2777 26.6944V7.11277C29.2789 6.95553 29.2369 6.80098 29.1565 6.66587C29.076 6.53077 28.9601 6.42028 28.8213 6.34638ZM5.16661 4.30555L6.88883 4.68443V12.0555H5.16661V4.30555ZM27.5555 25.8333H3.44439V13.7778H11.9091C12.1103 13.7782 12.3053 13.7081 12.4602 13.5797L18.0833 8.92971V13.4764C18.083 13.6328 18.1254 13.7864 18.2059 13.9205C18.2863 14.0547 18.4018 14.1644 18.5399 14.2379C18.678 14.3114 18.8335 14.3458 18.9898 14.3376C19.146 14.3293 19.297 14.2787 19.4266 14.1911L27.5555 8.73166V25.8333Z" fill="#3D3D3D"/>
<path d="M5.16675 15.4914H12.0556V17.2136H5.16675V15.4914ZM5.16675 18.9358H12.0556V20.6581H5.16675V18.9358ZM5.16675 22.3803H12.0556V24.1025H5.16675V22.3803ZM16.3612 16.3525H18.0834V18.9358H16.3612V16.3525ZM16.3612 21.5192H18.0834V24.1025H16.3612V21.5192ZM19.8056 16.3525H21.5279V18.9358H19.8056V16.3525ZM19.8056 21.5192H21.5279V24.1025H19.8056V21.5192ZM23.2501 16.3525H24.9723V18.9358H23.2501V16.3525ZM23.2501 21.5192H24.9723V24.1025H23.2501V21.5192Z" fill="#3D3D3D"/>
</svg>
