<svg width="26" height="22" viewBox="0 0 26 22" fill="none" xmlns="http://www.w3.org/2000/svg">
<path d="M8.66733 12.998C9.62806 12.9978 10.5616 13.3168 11.3212 13.9051C12.0808 14.4933 12.6233 15.3173 12.8635 16.2475H24.9148C25.1855 16.247 25.4466 16.3479 25.6466 16.5302C25.8466 16.7126 25.9711 16.9632 25.9956 17.2328C26.02 17.5024 25.9427 17.7713 25.7787 17.9867C25.6148 18.2021 25.3762 18.3483 25.1098 18.3965L24.9148 18.4138L12.8635 18.416C12.6241 19.347 12.082 20.172 11.3223 20.761C10.5626 21.3501 9.62862 21.6698 8.66733 21.6698C7.70604 21.6698 6.77205 21.3501 6.01238 20.761C5.25271 20.172 4.71052 19.347 4.47114 18.416L1.08516 18.4138C0.814489 18.4143 0.553436 18.3135 0.353412 18.1311C0.153389 17.9488 0.0288896 17.6981 0.00443281 17.4285C-0.020024 17.159 0.0573337 16.89 0.221272 16.6746C0.385211 16.4593 0.623849 16.3131 0.890194 16.2648L1.08516 16.2475H4.47114C4.71132 15.3173 5.25387 14.4933 6.01346 13.9051C6.77305 13.3168 7.70661 12.9978 8.66733 12.998ZM8.66733 15.1643C8.09278 15.1643 7.54177 15.3926 7.1355 15.7988C6.72924 16.2051 6.501 16.7561 6.501 17.3307C6.501 17.9052 6.72924 18.4562 7.1355 18.8625C7.54177 19.2688 8.09278 19.497 8.66733 19.497C9.24188 19.497 9.7929 19.2688 10.1992 18.8625C10.6054 18.4562 10.8337 17.9052 10.8337 17.3307C10.8337 16.7561 10.6054 16.2051 10.1992 15.7988C9.7929 15.3926 9.24188 15.1643 8.66733 15.1643ZM17.3327 1.40035e-07C18.2934 -0.000244033 19.2269 0.318832 19.9865 0.907056C20.7461 1.49528 21.2887 2.31929 21.5289 3.2495H24.9148C25.1855 3.249 25.4466 3.34987 25.6466 3.53223C25.8466 3.71459 25.9711 3.96523 25.9956 4.2348C26.02 4.50436 25.9427 4.77332 25.7787 4.9887C25.6148 5.20408 25.3762 5.35028 25.1098 5.3985L24.9148 5.41583L21.5289 5.418C21.2895 6.34901 20.7473 7.17398 19.9876 7.76303C19.228 8.35209 18.294 8.67178 17.3327 8.67178C16.3714 8.67178 15.4374 8.35209 14.6777 7.76303C13.9181 7.17398 13.3759 6.34901 13.1365 5.418L1.08516 5.41583C0.814489 5.41633 0.553436 5.31547 0.353412 5.13311C0.153389 4.95075 0.0288896 4.70011 0.00443281 4.43054C-0.020024 4.16097 0.0573337 3.89201 0.221272 3.67663C0.385211 3.46125 0.623849 3.31505 0.890194 3.26683L1.08516 3.2495H13.1365C13.3767 2.31929 13.9192 1.49528 14.6788 0.907056C15.4384 0.318832 16.3719 -0.000244033 17.3327 1.40035e-07ZM17.3327 2.16633C16.7581 2.16633 16.2071 2.39457 15.8008 2.80084C15.3946 3.20711 15.1663 3.75812 15.1663 4.33267C15.1663 4.90722 15.3946 5.45823 15.8008 5.8645C16.2071 6.27076 16.7581 6.499 17.3327 6.499C17.9072 6.499 18.4582 6.27076 18.8645 5.8645C19.2708 5.45823 19.499 4.90722 19.499 4.33267C19.499 3.75812 19.2708 3.20711 18.8645 2.80084C18.4582 2.39457 17.9072 2.16633 17.3327 2.16633Z" fill="#999999"/>
</svg>
