<svg width="26" height="25" viewBox="0 0 26 25" fill="none" xmlns="http://www.w3.org/2000/svg">
<path d="M4.35175 17.7027C4.52042 17.8721 4.64967 18.0765 4.73028 18.3015C4.81089 18.5265 4.84089 18.7665 4.81812 19.0044C4.70392 20.1054 4.4874 21.1935 4.17137 22.2544C6.43825 21.7295 7.82275 21.1217 8.45163 20.8032C8.80832 20.6226 9.21909 20.5798 9.60537 20.683C10.7127 20.9782 11.854 21.1268 13 21.125C19.4935 21.125 24.375 16.5636 24.375 11.375C24.375 6.188 19.4935 1.625 13 1.625C6.5065 1.625 1.625 6.188 1.625 11.375C1.625 13.7605 2.62762 15.9738 4.35175 17.7027ZM3.55062 24.0484C3.16561 24.1247 2.77935 24.1946 2.392 24.258C2.067 24.31 1.82 23.972 1.94837 23.6698C2.09266 23.3295 2.22491 22.9842 2.34487 22.6346L2.34975 22.6184C2.75275 21.4484 3.081 20.1029 3.20125 18.85C1.20738 16.8512 0 14.235 0 11.375C0 5.09275 5.82075 0 13 0C20.1793 0 26 5.09275 26 11.375C26 17.6572 20.1793 22.75 13 22.75C11.7124 22.7517 10.4302 22.5846 9.18612 22.2528C8.34112 22.6801 6.52275 23.4585 3.55062 24.0484Z" fill="#333333"/>
</svg>
