<svg width="347" height="336" viewBox="0 0 347 336" fill="none" xmlns="http://www.w3.org/2000/svg">
<path d="M238.449 27.7895C240.323 16.1908 232.44 5.26867 220.842 3.39413C209.243 1.5196 198.321 9.40256 196.446 21.0012C194.572 32.5999 202.455 43.5221 214.053 45.3966C225.652 47.2711 236.574 39.3882 238.449 27.7895Z" fill="#EBEBEB"/>
<path d="M238.546 28.9963C240.35 17.9628 232.869 7.55536 221.836 5.75054C210.802 3.94572 200.395 11.427 198.59 22.4605C196.785 33.4939 204.266 43.9014 215.3 45.7062C226.333 47.511 236.741 40.0297 238.546 28.9963Z" fill="#DBDBDB"/>
<path d="M226.911 42.9264C236.651 38.9466 241.321 27.8245 237.341 18.0846C233.361 8.34456 222.239 3.675 212.499 7.65478C202.759 11.6346 198.09 22.7566 202.069 32.4966C206.049 42.2366 217.171 46.9062 226.911 42.9264Z" fill="white"/>
<path d="M218.821 8.13876H218.336V11.017H218.821V8.13876Z" fill="#EBEBEB"/>
<path d="M210.002 10.3976L209.582 10.64L211.021 13.133L211.441 12.8905L210.002 10.3976Z" fill="#EBEBEB"/>
<path d="M203.703 15.8277L203.46 16.2497L205.964 17.6888L206.207 17.2669L203.703 15.8277Z" fill="#EBEBEB"/>
<path d="M203.873 25.4879H200.994V25.973H203.873V25.4879Z" fill="#EBEBEB"/>
<path d="M205.726 32.8865L203.234 34.326L203.476 34.746L205.969 33.3065L205.726 32.8865Z" fill="#EBEBEB"/>
<path d="M211.015 38.3419L209.577 40.8353L209.997 41.0776L211.435 38.5842L211.015 38.3419Z" fill="#EBEBEB"/>
<path d="M218.821 40.4438H218.336V43.3221H218.821V40.4438Z" fill="#EBEBEB"/>
<path d="M226.153 38.3706L225.733 38.6131L227.172 41.1058L227.592 40.8633L226.153 38.3706Z" fill="#EBEBEB"/>
<path d="M231.434 32.8773L231.192 33.2974L233.678 34.7326L233.92 34.3125L231.434 32.8773Z" fill="#EBEBEB"/>
<path d="M236.17 25.4879H233.292V25.973H236.17V25.4879Z" fill="#EBEBEB"/>
<path d="M233.681 16.7214L231.196 18.1566L231.438 18.5766L233.924 17.1414L233.681 16.7214Z" fill="#EBEBEB"/>
<path d="M227.179 10.3874L225.742 12.8808L226.162 13.1231L227.6 10.6297L227.179 10.3874Z" fill="#EBEBEB"/>
<path d="M221.388 19.6445L213.069 36.0012L213.501 36.221L221.821 19.8644L221.388 19.6445Z" fill="#EBEBEB"/>
<path d="M217.609 19.2103L216.977 19.3367L220.525 37.0578L221.156 36.9314L217.609 19.2103Z" fill="#DBDBDB"/>
<path d="M156.27 162.596H19.7663V4.95834H156.27V162.596ZM22.9388 159.415H153.089V8.13876H22.9467L22.9388 159.415Z" fill="#EBEBEB"/>
<path d="M88.3679 8.9736H85.1875V161.005H88.3679V8.9736Z" fill="#EBEBEB"/>
<path d="M159.164 11.3907H16.8801V15.8195H159.164V11.3907Z" fill="#EBEBEB"/>
<path d="M159.164 16.376H16.8801V20.8048H159.164V16.376Z" fill="#EBEBEB"/>
<path d="M159.164 21.3534H16.8801V25.7821H159.164V21.3534Z" fill="#EBEBEB"/>
<path d="M159.164 26.3387H16.8801V30.7674H159.164V26.3387Z" fill="#EBEBEB"/>
<path d="M159.164 31.324H16.8801V35.7527H159.164V31.324Z" fill="#EBEBEB"/>
<path d="M159.164 36.3014H16.8801V40.7301H159.164V36.3014Z" fill="#EBEBEB"/>
<path d="M159.164 41.2867H16.8801V45.7154H159.164V41.2867Z" fill="#EBEBEB"/>
<path d="M159.164 46.2719H16.8801V50.7007H159.164V46.2719Z" fill="#EBEBEB"/>
<path d="M159.164 51.2493H16.8801V55.6781H159.164V51.2493Z" fill="#EBEBEB"/>
<path d="M149.718 10.4923H148.923V112.576H149.718V10.4923Z" fill="#263238"/>
<path d="M150.728 116.281H147.905L148.613 112.226H150.02L150.728 116.281Z" fill="#263238"/>
<path d="M152.581 10.4923H151.785V158.167H152.581V10.4923Z" fill="#263238"/>
<path d="M153.59 161.149H150.776L151.475 157.094H152.891L153.59 161.149Z" fill="#263238"/>
<path d="M164.094 4.33813H11.9424V13.6011H164.094V4.33813Z" fill="#DBDBDB"/>
<path d="M341.116 40.8175H255.34V148.832H341.116V40.8175Z" fill="#EBEBEB"/>
<path d="M330.199 63.1361H265.962V65.1795H330.199V63.1361Z" fill="#DBDBDB"/>
<path d="M320.355 67.4138H265.962V69.4572H320.355V67.4138Z" fill="#DBDBDB"/>
<path d="M307.443 71.6835H265.962V73.7269H307.443V71.6835Z" fill="#DBDBDB"/>
<path d="M327.957 75.9612H265.962V78.0046H327.957V75.9612Z" fill="#DBDBDB"/>
<path d="M322.685 80.2309H265.962V82.2743H322.685V80.2309Z" fill="#DBDBDB"/>
<path d="M324.824 88.7782H265.962V90.8217H324.824V88.7782Z" fill="#DBDBDB"/>
<path d="M288.512 93.0559H265.962V95.0993H288.512V93.0559Z" fill="#DBDBDB"/>
<path d="M311.434 97.3256H265.962V99.369H311.434V97.3256Z" fill="#DBDBDB"/>
<path d="M327.957 101.603H265.962V103.647H327.957V101.603Z" fill="#DBDBDB"/>
<path d="M319.417 105.873H265.962V107.916H319.417V105.873Z" fill="#DBDBDB"/>
<path d="M323.886 114.42H265.962V116.464H323.886V114.42Z" fill="#DBDBDB"/>
<path d="M301.026 118.698H265.962V120.741H301.026V118.698Z" fill="#DBDBDB"/>
<path d="M301.026 131.634H265.962V133.678H301.026V131.634Z" fill="#DBDBDB"/>
<path d="M324.784 140.174C328.372 140.174 331.28 137.265 331.28 133.678C331.28 130.09 328.372 127.182 324.784 127.182C321.197 127.182 318.288 130.09 318.288 133.678C318.288 137.265 321.197 140.174 324.784 140.174Z" fill="#4240C2"/>
<path d="M275.535 49.1423C276.316 49.1427 277.074 49.4028 277.69 49.8817C277.716 49.9004 277.737 49.9241 277.753 49.9514C277.769 49.9786 277.779 50.0088 277.782 50.0401C277.786 50.0714 277.783 50.1031 277.774 50.1333C277.765 50.1635 277.75 50.1915 277.73 50.2157C277.712 50.2405 277.689 50.2614 277.663 50.2773C277.636 50.2931 277.607 50.3036 277.577 50.308C277.547 50.3125 277.516 50.3108 277.486 50.3031C277.456 50.2955 277.428 50.282 277.404 50.2634C276.873 49.8408 276.214 49.6109 275.535 49.6114C274.762 49.6114 274.019 49.9188 273.472 50.4661C272.925 51.0133 272.617 51.7555 272.617 52.5294C272.617 53.3033 272.925 54.0455 273.472 54.5928C274.019 55.14 274.762 55.4475 275.535 55.4475C276.21 55.4576 276.866 55.2296 277.388 54.8034C277.413 54.7827 277.441 54.7676 277.473 54.7591C277.504 54.7506 277.536 54.749 277.568 54.7543C277.6 54.7596 277.63 54.7717 277.656 54.7898C277.683 54.8079 277.705 54.8315 277.722 54.8591C277.746 54.88 277.765 54.9057 277.778 54.9344C277.791 54.9632 277.797 54.9945 277.797 55.026C277.797 55.0576 277.791 55.0889 277.778 55.1176C277.765 55.1464 277.746 55.1721 277.722 55.193C277.103 55.6641 276.345 55.9183 275.567 55.9166C275.122 55.9166 274.682 55.829 274.271 55.6587C273.86 55.4885 273.487 55.239 273.172 54.9245C272.858 54.61 272.608 54.2366 272.438 53.8256C272.268 53.4147 272.18 52.9742 272.18 52.5294C272.18 52.0846 272.268 51.6442 272.438 51.2332C272.608 50.8223 272.858 50.4489 273.172 50.1343C273.487 49.8198 273.86 49.5703 274.271 49.4001C274.682 49.2299 275.122 49.1423 275.567 49.1423H275.535Z" fill="#A6A6A6"/>
<path d="M282.429 49.1423C283.107 49.1073 283.78 49.2765 284.361 49.628C284.942 49.9795 285.405 50.4972 285.688 51.1141C285.972 51.7311 286.064 52.419 285.953 53.0889C285.842 53.7588 285.532 54.38 285.064 54.8721C284.597 55.3643 283.992 55.7048 283.328 55.8498C282.665 55.9947 281.973 55.9373 281.343 55.685C280.712 55.4328 280.172 54.9973 279.792 54.4347C279.411 53.8722 279.208 53.2085 279.209 52.5294C279.195 52.0949 279.268 51.6619 279.423 51.2557C279.578 50.8494 279.812 50.478 280.111 50.1629C280.411 49.8478 280.77 49.5953 281.168 49.4201C281.566 49.2449 281.994 49.1505 282.429 49.1423ZM282.429 55.4474C283.012 55.4809 283.592 55.3385 284.093 55.0389C284.594 54.7392 284.994 54.296 285.241 53.7666C285.488 53.2373 285.57 52.646 285.477 52.0694C285.384 51.4928 285.12 50.9574 284.719 50.5325C284.319 50.1075 283.8 49.8126 283.229 49.6858C282.659 49.559 282.064 49.6062 281.521 49.8213C280.978 50.0363 280.512 50.4094 280.184 50.8922C279.855 51.375 279.679 51.9454 279.678 52.5294C279.657 53.281 279.934 54.0103 280.45 54.5574C280.966 55.1045 281.677 55.4246 282.429 55.4474Z" fill="#A6A6A6"/>
<path d="M287.852 50.2236V55.686C287.858 55.7193 287.857 55.7536 287.848 55.7864C287.84 55.8192 287.824 55.8497 287.803 55.8758C287.781 55.9019 287.754 55.9229 287.723 55.9373C287.692 55.9517 287.659 55.9592 287.625 55.9592C287.591 55.9592 287.558 55.9517 287.527 55.9373C287.496 55.9229 287.469 55.9019 287.448 55.8758C287.426 55.8497 287.41 55.8192 287.402 55.7864C287.393 55.7536 287.392 55.7193 287.398 55.686V49.5637C287.382 49.5184 287.382 49.4691 287.396 49.4232C287.41 49.3774 287.439 49.3374 287.478 49.3092C287.529 49.2746 287.591 49.261 287.652 49.2714C287.713 49.2818 287.767 49.3153 287.804 49.3649L291.851 54.9306V49.5001C291.851 49.4403 291.874 49.3828 291.916 49.3398C291.957 49.2968 292.014 49.2716 292.074 49.2695C292.105 49.2684 292.135 49.2736 292.164 49.2847C292.193 49.2958 292.22 49.3126 292.242 49.3342C292.264 49.3557 292.282 49.3814 292.294 49.41C292.306 49.4385 292.312 49.4691 292.312 49.5001V55.6462C292.312 55.6772 292.306 55.7078 292.294 55.7363C292.282 55.7649 292.264 55.7906 292.242 55.8121C292.22 55.8337 292.193 55.8505 292.164 55.8616C292.135 55.8727 292.105 55.8779 292.074 55.8768C292.04 55.8765 292.006 55.8685 291.976 55.8533C291.946 55.8382 291.919 55.8163 291.899 55.7893C291.889 55.7862 291.881 55.781 291.874 55.7741C291.867 55.7672 291.862 55.7588 291.859 55.7496L287.852 50.2236Z" fill="#A6A6A6"/>
<path d="M296.351 49.7068H294.34C294.278 49.7047 294.219 49.6787 294.176 49.6342C294.133 49.5897 294.109 49.5302 294.109 49.4683C294.111 49.4077 294.136 49.3502 294.179 49.3074C294.222 49.2646 294.279 49.2397 294.34 49.2377H298.824C298.885 49.2397 298.942 49.2646 298.985 49.3074C299.028 49.3502 299.053 49.4077 299.055 49.4683C299.055 49.5302 299.031 49.5897 298.988 49.6342C298.945 49.6787 298.886 49.7047 298.824 49.7068H296.812V55.686C296.812 55.7471 296.788 55.8058 296.745 55.849C296.702 55.8923 296.643 55.9165 296.582 55.9165C296.521 55.9165 296.462 55.8923 296.419 55.849C296.376 55.8058 296.351 55.7471 296.351 55.686V49.7068Z" fill="#A6A6A6"/>
<path d="M304.159 54.4059C304.16 54.206 304.11 54.0091 304.016 53.8329C303.922 53.6566 303.785 53.5066 303.619 53.3961C303.377 53.2359 303.107 53.1227 302.823 53.0622H302.776H301.186V55.7019C301.175 55.7567 301.146 55.8062 301.104 55.8419C301.061 55.8775 301.007 55.8971 300.951 55.8971C300.895 55.8971 300.841 55.8775 300.798 55.8419C300.756 55.8062 300.727 55.7567 300.716 55.7019V49.4842C300.719 49.4279 300.741 49.3743 300.779 49.3324C300.817 49.2904 300.867 49.2626 300.923 49.2536H302.831C303.263 49.2581 303.681 49.4089 304.016 49.6814C304.351 49.9539 304.583 50.332 304.676 50.7538C304.768 51.1757 304.714 51.6164 304.524 52.0039C304.333 52.3914 304.017 52.7028 303.626 52.8872C303.656 52.9078 303.688 52.9239 303.722 52.9349C303.991 53.0799 304.216 53.2942 304.374 53.5557C304.532 53.8172 304.617 54.1163 304.62 54.4218C304.606 54.6893 304.633 54.9574 304.7 55.2169C304.717 55.2772 304.75 55.332 304.795 55.3759C304.849 55.3697 304.904 55.381 304.951 55.4082C304.999 55.4354 305.036 55.477 305.058 55.527C305.073 55.5882 305.066 55.6526 305.038 55.7092C305.01 55.7659 304.964 55.8111 304.907 55.8371H304.771C304.679 55.8281 304.59 55.7947 304.515 55.7402C304.439 55.6857 304.38 55.6121 304.342 55.527C304.187 55.1748 304.124 54.789 304.159 54.4059ZM302.823 49.7068H301.178V52.5851H302.863C303.245 52.5798 303.609 52.4231 303.875 52.1495C304.141 51.8759 304.288 51.5078 304.282 51.1261C304.277 50.7444 304.12 50.3804 303.847 50.1143C303.573 49.8481 303.205 49.7015 302.823 49.7068Z" fill="#A6A6A6"/>
<path d="M310.425 54.1912H307.379L306.791 55.7814C306.775 55.8254 306.746 55.8634 306.707 55.8904C306.669 55.9174 306.623 55.9321 306.576 55.9324H306.489C306.431 55.9078 306.385 55.8619 306.36 55.8042C306.335 55.7466 306.332 55.6815 306.354 55.6224L308.667 49.4364C308.688 49.3933 308.721 49.3569 308.762 49.3316C308.803 49.3063 308.85 49.293 308.898 49.2933C308.946 49.2909 308.994 49.3033 309.036 49.3289C309.077 49.3545 309.109 49.392 309.129 49.4364L311.442 55.6224C311.465 55.6796 311.465 55.7431 311.443 55.8005C311.421 55.8579 311.378 55.9049 311.323 55.9324H311.236C311.188 55.9315 311.141 55.9168 311.102 55.89C311.062 55.8631 311.031 55.8254 311.013 55.7814L310.425 54.1912ZM307.554 53.7221H310.258L308.906 50.1361L307.554 53.7221Z" fill="#A6A6A6"/>
<path d="M315.728 49.1423C316.508 49.1427 317.266 49.4028 317.883 49.8817C317.908 49.9004 317.929 49.9241 317.945 49.9514C317.961 49.9786 317.971 50.0088 317.975 50.0401C317.979 50.0714 317.976 50.1031 317.967 50.1333C317.958 50.1635 317.943 50.1915 317.922 50.2157C317.904 50.2405 317.882 50.2614 317.855 50.2773C317.829 50.2931 317.8 50.3036 317.769 50.308C317.739 50.3125 317.708 50.3108 317.678 50.3031C317.649 50.2955 317.621 50.282 317.596 50.2634C317.065 49.8408 316.407 49.6109 315.728 49.6114C314.954 49.6114 314.212 49.9188 313.665 50.4661C313.117 51.0133 312.81 51.7555 312.81 52.5294C312.81 53.3033 313.117 54.0455 313.665 54.5928C314.212 55.14 314.954 55.4475 315.728 55.4475C316.402 55.4576 317.058 55.2296 317.581 54.8034C317.605 54.7827 317.634 54.7676 317.665 54.7591C317.696 54.7506 317.729 54.749 317.76 54.7543C317.792 54.7596 317.822 54.7717 317.849 54.7898C317.876 54.8079 317.898 54.8315 317.914 54.8591C317.938 54.88 317.957 54.9057 317.97 54.9344C317.983 54.9632 317.99 54.9945 317.99 55.026C317.99 55.0576 317.983 55.0889 317.97 55.1176C317.957 55.1464 317.938 55.1721 317.914 55.193C317.295 55.6641 316.538 55.9183 315.76 55.9166C315.315 55.9166 314.874 55.829 314.464 55.6587C314.053 55.4885 313.679 55.239 313.365 54.9245C313.05 54.61 312.801 54.2366 312.63 53.8256C312.46 53.4147 312.373 52.9742 312.373 52.5294C312.373 52.0846 312.46 51.6442 312.63 51.2332C312.801 50.8223 313.05 50.4489 313.365 50.1343C313.679 49.8198 314.053 49.5703 314.464 49.4001C314.874 49.2299 315.315 49.1423 315.76 49.1423H315.728Z" fill="#A6A6A6"/>
<path d="M321.652 49.7068H319.64C319.578 49.7047 319.519 49.6787 319.476 49.6342C319.433 49.5897 319.409 49.5302 319.409 49.4683C319.411 49.4077 319.436 49.3502 319.479 49.3074C319.522 49.2646 319.579 49.2397 319.64 49.2377H324.124C324.185 49.2397 324.242 49.2646 324.285 49.3074C324.328 49.3502 324.353 49.4077 324.355 49.4683C324.356 49.4992 324.351 49.53 324.34 49.5589C324.329 49.5878 324.312 49.6142 324.29 49.6365C324.269 49.6587 324.243 49.6764 324.214 49.6885C324.186 49.7006 324.155 49.7068 324.124 49.7068H322.113V55.686C322.113 55.7471 322.088 55.8058 322.045 55.849C322.002 55.8923 321.943 55.9165 321.882 55.9165C321.821 55.9165 321.762 55.8923 321.719 55.849C321.676 55.8058 321.652 55.7471 321.652 55.686V49.7068Z" fill="#A6A6A6"/>
<path d="M180.115 251.107H337.633L340.909 186.481H176.839L180.115 251.107Z" fill="#EBEBEB"/>
<path d="M330.167 216.066H264.309L263.076 193.629H331.606L330.167 216.066ZM265.064 215.271H329.42L330.755 194.424H263.919L265.064 215.271Z" fill="#DBDBDB"/>
<path d="M328.951 241.876H266.893L265.883 221.624H330.215L328.951 241.876ZM267.648 241.08H328.203L329.372 222.419H266.718L267.648 241.08Z" fill="#DBDBDB"/>
<path d="M303.579 207.265H292.511L291.819 201.85H304.278L303.579 207.265ZM293.242 206.47H302.911L303.404 202.645H292.749L293.242 206.47Z" fill="#DBDBDB"/>
<path d="M303.579 234.457H292.511L291.819 229.043H304.278L303.579 234.457ZM293.242 233.662H302.911L303.404 229.838H292.749L293.242 233.662Z" fill="#DBDBDB"/>
<path d="M252.708 216.066H186.849L185.617 193.629H254.147L252.708 216.066ZM187.605 215.271H251.961L253.273 194.424H186.484L187.605 215.271Z" fill="#DBDBDB"/>
<path d="M251.491 241.876H189.434L188.424 221.624H252.756L251.491 241.876ZM190.189 241.08H250.744L251.913 222.419H189.259L190.189 241.08Z" fill="#DBDBDB"/>
<path d="M226.12 207.265H215.052L214.36 201.85H226.819L226.12 207.265ZM215.783 206.47H225.444L225.937 202.645H215.282L215.783 206.47Z" fill="#DBDBDB"/>
<path d="M226.12 234.457H215.052L214.36 229.043H226.819L226.12 234.457ZM215.783 233.662H225.444L225.937 229.838H215.282L215.783 233.662Z" fill="#DBDBDB"/>
<path d="M194.244 251.107L193.25 258.151L191.262 272.296H187.374V251.107H194.244Z" fill="#EBEBEB"/>
<path d="M194.244 251.107L193.25 258.151H187.374V251.107H194.244Z" fill="#DBDBDB"/>
<path d="M323.504 251.107L324.49 258.151L326.486 272.296H330.374V251.107H323.504Z" fill="#EBEBEB"/>
<path d="M323.504 251.107L324.49 258.151H330.374V251.107H323.504Z" fill="#DBDBDB"/>
<path d="M174.557 336C253.793 336 318.026 327.631 318.026 317.307C318.026 306.983 253.793 298.614 174.557 298.614C95.3217 298.614 31.0886 306.983 31.0886 317.307C31.0886 327.631 95.3217 336 174.557 336Z" fill="#EBEBEB"/>
<path d="M42.9515 296.849C66.673 296.849 85.9031 292.243 85.9031 286.56C85.9031 280.878 66.673 276.272 42.9515 276.272C19.2301 276.272 0 280.878 0 286.56C0 292.243 19.2301 296.849 42.9515 296.849Z" fill="#EBEBEB"/>
<path d="M2.33762 272.296L45.3925 272.105L88.4474 272.034L174.557 271.907L260.667 272.034L303.722 272.105L346.777 272.296L303.722 272.495L260.667 272.567L174.557 272.694L88.4474 272.567L45.3925 272.495L2.33762 272.296Z" fill="#263238"/>
<path d="M44.2158 134.6C44.2158 134.6 22.8354 131.61 27.8287 105.793C27.8287 105.793 51.7216 111.16 44.2158 134.6Z" fill="#4240C2"/>
<path opacity="0.1" d="M44.2158 134.6C44.2158 134.6 22.8354 131.61 27.8287 105.793C27.8287 105.793 51.7216 111.16 44.2158 134.6Z" fill="black"/>
<path d="M43.1344 129.209C42.7168 127.905 42.2311 126.623 41.6794 125.369C41.6794 125.202 41.6794 125.035 41.6237 124.876C41.6237 124.518 41.5601 124.168 41.5363 123.811C41.4727 123.015 41.425 122.268 41.3772 121.497C41.2898 119.954 41.1944 118.412 41.1705 116.869C41.1705 116.782 41.0354 116.79 41.0354 116.869C41.0354 118.42 41.0354 119.962 41.0354 121.505C41.0354 122.3 41.1149 123.047 41.1626 123.818C41.1626 123.993 41.1626 124.16 41.1626 124.335C39.9609 121.764 38.5236 119.31 36.869 117.004C36.1719 115.977 35.4208 114.987 34.6189 114.039C33.7681 113.061 32.8696 112.13 32.003 111.168C31.9473 111.105 31.8598 111.168 31.9155 111.264C33.4508 112.962 34.8293 114.795 36.0341 116.742C36.6861 117.72 37.2984 118.73 37.8867 119.755L37.688 119.684L36.8929 119.374L35.1436 118.714C33.9987 118.285 32.8537 117.871 31.7088 117.434C31.6372 117.434 31.5895 117.529 31.6611 117.553C32.7981 118.006 33.9192 118.483 35.0482 118.968L36.702 119.684L37.5369 120.026C37.716 120.116 37.9056 120.182 38.1014 120.225C38.5308 121.02 38.9601 121.775 39.3577 122.57C40.3493 124.57 41.2202 126.628 41.9656 128.732C42.0213 128.875 42.069 129.026 42.1246 129.177C41.5599 128.852 40.9727 128.568 40.3675 128.327L38.1571 127.325C36.6543 126.633 35.1675 125.933 33.7283 125.122C33.7136 125.114 33.6961 125.112 33.6797 125.116C33.6633 125.121 33.6493 125.132 33.6409 125.146C33.6324 125.161 33.6302 125.179 33.6347 125.195C33.6392 125.211 33.65 125.225 33.6647 125.234C35.1357 126.029 36.5748 126.896 38.0458 127.691C38.7852 128.088 39.5247 128.486 40.28 128.844C40.9016 129.213 41.5779 129.481 42.2837 129.639C43.0011 131.595 43.4738 133.633 43.691 135.705C43.9295 138.623 43.9057 141.565 43.9772 144.491H44.0488C44.2635 141.836 44.3827 139.156 44.3986 136.492C44.3674 134.013 43.9406 131.554 43.1344 129.209Z" fill="#263238"/>
<path d="M39.8427 114.031C39.6362 115.54 39.5644 117.065 39.628 118.587C39.628 118.626 39.6916 118.626 39.6916 118.587C39.7791 117.076 39.795 115.565 39.9699 114.063C39.9779 113.983 39.8506 113.951 39.8427 114.031Z" fill="#263238"/>
<path d="M33.7283 115.327C32.7724 114.96 31.8516 114.508 30.9773 113.975C30.9057 113.927 30.8421 114.047 30.9137 114.086C31.7703 114.665 32.7082 115.112 33.6965 115.414C33.7442 115.43 33.8237 115.351 33.7283 115.327Z" fill="#263238"/>
<path d="M44.8995 175.58C44.8995 173.194 44.8359 170.857 44.8121 168.495C44.7644 160.648 44.7008 152.8 44.5576 144.952C44.4463 138.719 44.3006 132.49 44.1203 126.267C44.1198 126.251 44.1151 126.235 44.1068 126.221C44.0984 126.208 44.0867 126.196 44.0726 126.188C44.0726 124.486 44.0726 122.785 44.0726 121.083C44.0726 121.036 44.0249 121.02 43.9693 121.02C43.9136 121.02 43.8659 121.02 43.8739 121.083C43.8739 122.79 43.8739 124.494 43.8739 126.196C43.8739 126.196 43.8182 126.236 43.8182 126.267C43.5081 137.399 43.2298 148.443 43.1583 159.535C43.1583 161.793 43.1583 164.043 43.1583 166.301C43.0787 173.526 43.0496 180.756 43.0708 187.991C43.0708 189.136 43.0708 190.289 43.0708 191.442C43.0708 198.057 43.1424 204.673 43.1424 211.32C43.1424 211.67 43.5399 211.852 43.9375 211.868C44.335 211.884 44.9313 211.693 44.9313 211.288C44.9313 203.997 44.979 196.698 44.979 189.407C44.9552 184.779 44.9552 180.175 44.8995 175.58Z" fill="#263238"/>
<path d="M35.9705 168.4C35.9705 168.4 25.6819 160.783 15.9259 165.919C6.17001 171.056 4.6275 190.917 4.6275 190.917C4.6275 190.917 18.9394 192.969 27.9877 184.374C36.6861 176.105 35.9705 168.4 35.9705 168.4Z" fill="#4240C2"/>
<path d="M38.7693 168.869C36.8804 168.116 34.8343 167.843 32.814 168.074C32.399 168 31.9791 167.958 31.5577 167.947L30.1027 167.835L27.1051 167.629C25.0776 167.478 23.0421 167.35 21.0146 167.144C21.0006 167.149 20.9884 167.158 20.9798 167.17C20.9712 167.182 20.9666 167.196 20.9666 167.211C20.9666 167.226 20.9712 167.241 20.9798 167.253C20.9884 167.265 21.0006 167.274 21.0146 167.279C23.0183 167.533 24.9901 167.82 27.0177 168.018C28.0513 168.122 29.0849 168.233 30.1265 168.305L30.8739 168.376C30.5718 168.448 30.2617 168.519 29.9595 168.607C28.3458 169.077 26.7845 169.711 25.3002 170.499C24.5051 170.642 23.71 170.873 22.9149 171.056C21.6428 171.358 20.3785 171.684 19.1143 172.018C16.6177 172.67 14.1449 173.409 11.6642 174.133C11.5847 174.133 11.6244 174.276 11.6642 174.252C14.137 173.648 16.6336 173.091 19.1143 172.503L22.7241 171.636L23.6703 171.413C20.9105 173.13 18.4436 175.277 16.3633 177.774C14.3612 180.239 12.6583 182.932 11.2905 185.797C11.2905 185.868 11.3541 185.94 11.4018 185.868C13.095 182.94 15.161 180.243 17.548 177.846C17.5003 177.981 17.4605 178.124 17.4128 178.259L16.8403 180.072C16.4587 181.289 16.0452 182.497 15.7113 183.714C15.7113 183.793 15.8146 183.817 15.8385 183.714C16.2758 182.537 16.6893 181.328 17.1027 180.175C17.3015 179.595 17.5082 179.023 17.707 178.442C17.8183 178.14 17.9217 177.838 18.0171 177.536C18.0171 177.448 18.0886 177.353 18.1204 177.257C19.2667 176.144 20.483 175.106 21.762 174.149C23.4603 172.906 25.2925 171.858 27.2244 171.024C27.2244 171.199 27.1608 171.382 27.121 171.549C27.0177 172.018 26.9143 172.487 26.8189 172.956C26.6201 173.926 26.4293 174.904 26.2385 175.882C25.8489 177.87 25.6103 179.857 25.2366 181.877C25.2366 181.964 25.3479 181.996 25.3638 181.877C25.825 179.873 26.4213 177.901 26.8666 175.898C27.0892 174.896 27.3118 173.894 27.5265 172.892L27.8128 171.477C27.8605 171.215 27.9241 170.952 27.9559 170.682L28.5125 170.451C31.2079 169.45 34.1895 168.726 37.0678 169.283C38.4292 169.535 39.7072 170.12 40.7879 170.985C41.8685 171.851 42.7184 172.97 43.2616 174.244C43.3571 174.467 43.7069 174.324 43.6512 174.093C43.0947 171.66 41.0354 169.823 38.7693 168.869Z" fill="#263238"/>
<path d="M23.0262 177.345C22.74 178.649 22.4458 179.953 22.1596 181.257C21.8347 182.506 21.5956 183.776 21.444 185.057C21.444 185.113 21.5076 185.113 21.5235 185.057C21.9021 183.804 22.1944 182.526 22.3981 181.233C22.6525 179.945 22.907 178.657 23.1534 177.369C23.1693 177.297 23.0421 177.265 23.0262 177.345Z" fill="#263238"/>
<path d="M13.0795 180.66C11.7675 181.32 10.5033 182.076 9.10394 182.624C9.09611 182.628 9.08897 182.632 9.08294 182.638C9.0769 182.644 9.07208 182.651 9.06876 182.659C9.06544 182.666 9.06368 182.675 9.06357 182.683C9.06347 182.692 9.06503 182.7 9.06816 182.708C9.07129 182.716 9.07594 182.723 9.08183 182.729C9.08772 182.735 9.09474 182.74 9.10249 182.743C9.11025 182.746 9.11858 182.748 9.12701 182.748C9.13544 182.748 9.14382 182.747 9.15165 182.744C10.5204 182.137 11.8554 181.458 13.151 180.708C13.151 180.708 13.151 180.645 13.0795 180.66Z" fill="#263238"/>
<path d="M38.2843 154.406C38.2843 154.406 25.7137 155.201 19.8617 146.924C14.0098 138.647 15.3296 126.792 15.3296 126.792C15.3296 126.792 28.5363 128.382 33.7761 134.354C39.0158 140.325 38.2843 154.406 38.2843 154.406Z" fill="#4240C2"/>
<path d="M44.1601 166.81C43.7228 165.466 43.1821 164.138 42.6733 162.834C42.1644 161.53 41.6635 160.306 41.083 159.065C39.9635 156.532 38.7081 154.061 37.3222 151.663C36.4317 150.136 35.4776 148.65 34.4996 147.187C34.4996 146.964 34.436 146.741 34.4042 146.519C34.3485 146.129 34.2929 145.724 34.2292 145.35C34.102 144.555 33.9669 143.76 33.8317 142.965C33.5455 141.223 33.1877 139.498 32.9094 137.765C32.9094 137.685 32.7663 137.685 32.7822 137.765C33.0286 139.482 33.2036 141.207 33.4421 142.925C33.5614 143.768 33.6727 144.61 33.7999 145.453L33.943 146.368C32.0257 143.561 29.9498 140.867 27.7253 138.297L26.8586 137.295C26.8586 137.2 26.7791 137.105 26.7394 137.009C26.6439 136.771 26.5565 136.532 26.469 136.286C26.2782 135.793 26.1033 135.292 25.9204 134.791C25.5706 133.805 25.2525 132.811 24.9822 131.801C24.9822 131.722 24.8391 131.762 24.8629 131.801C25.1173 132.835 25.3797 133.861 25.658 134.878C25.8091 135.371 25.9681 135.856 26.143 136.341C26.143 136.421 26.1987 136.5 26.2305 136.58C24.6403 134.831 22.9467 133.145 21.2531 131.475C21.1975 131.42 21.11 131.475 21.1657 131.571C24.4138 134.969 27.3913 138.617 30.0708 142.48C29.7659 142.383 29.4552 142.306 29.1406 142.249C28.1705 142.058 27.2005 141.923 26.2225 141.796C24.1712 141.533 22.1278 141.279 20.0923 140.953C20.0048 140.953 19.973 141.064 20.0923 141.08C22.0403 141.462 23.9644 141.875 25.9045 142.352C26.8189 142.559 27.7332 142.734 28.6476 142.917C29.3976 143.077 30.1361 143.286 30.858 143.545C31.0568 143.839 31.2715 144.125 31.4702 144.42C32.3926 145.755 33.2751 147.131 34.1418 148.506L32.8617 148.26C31.8916 148.069 30.9137 147.894 29.9436 147.735C28.0274 147.417 26.1033 147.083 24.2109 146.654C24.1314 146.654 24.0996 146.765 24.2109 146.781C26.1351 147.234 28.0354 147.759 29.9436 148.268C30.866 148.514 31.7962 148.737 32.7265 148.944L34.1179 149.246C34.3054 149.295 34.4971 149.327 34.6904 149.341C36.5271 152.315 38.2445 155.368 39.8427 158.477C40.5424 159.845 41.2182 161.228 41.8702 162.612C42.5222 163.995 43.1185 165.498 43.7387 166.945C43.8262 167.247 44.2794 167.128 44.1601 166.81Z" fill="#263238"/>
<path d="M31.3112 137.924C31.0727 136.723 30.8183 135.538 30.5161 134.33C30.5161 134.25 30.373 134.29 30.3889 134.33C30.6274 135.507 30.858 136.715 31.0727 137.868C31.2481 139.053 31.4843 140.229 31.7803 141.39C31.7053 140.225 31.5486 139.067 31.3112 137.924Z" fill="#263238"/>
<path d="M23.9803 137.574C23.3999 137.28 22.7797 137.049 22.1754 136.779L21.2213 136.405L20.7363 136.214C20.5505 136.154 20.3719 136.074 20.2036 135.976C20.1082 135.912 20.0525 136.071 20.1479 136.087C20.3344 136.138 20.5135 136.213 20.6807 136.31L21.1577 136.524L22.08 136.93C22.6825 137.212 23.3011 137.459 23.9326 137.669C24.0042 137.725 24.0519 137.606 23.9803 137.574Z" fill="#263238"/>
<path d="M51.1491 144.523C51.1491 144.523 58.7582 130.314 70.327 128.112C81.8958 125.91 88.9881 137.82 88.9881 137.82C88.9881 137.82 80.5441 148.602 69.9056 150.486C59.2671 152.371 51.1491 144.523 51.1491 144.523Z" fill="#4240C2"/>
<path d="M78.0872 134.481C75.0714 134.072 72.0119 134.11 69.0071 134.592L69.5239 134.314L72.0921 132.994C73.8566 132.018 75.6691 131.132 77.5227 130.338C77.6101 130.299 77.5227 130.179 77.475 130.219C75.6621 131.062 73.7857 131.809 71.9728 132.604C71.0585 133.018 70.1679 133.455 69.2854 133.924C68.7129 134.226 68.0848 134.513 67.5203 134.878C64.9781 135.388 62.5081 136.208 60.1655 137.319L61.6126 135.729C62.686 134.544 63.7515 133.304 64.9362 132.231C64.9998 132.175 64.9362 132.088 64.8408 132.143C63.6322 133.24 62.3521 134.258 61.1753 135.403C60.6108 135.96 60.0622 136.532 59.5295 137.129C59.2671 137.423 58.9967 137.725 58.7344 138.043C54.7597 140.171 51.3062 143.154 48.6225 146.776C45.9388 150.399 44.0916 154.572 43.2139 158.994C43.2139 159.073 43.3173 159.113 43.3411 159.034C44.9711 153.617 47.8904 148.676 51.8487 144.634C56.1147 140.303 61.4804 137.216 67.3692 135.705C70.8623 134.815 74.475 134.488 78.0713 134.735C78.105 134.737 78.1382 134.726 78.1636 134.704C78.1889 134.681 78.2043 134.65 78.2065 134.616C78.2086 134.582 78.1972 134.549 78.1748 134.524C78.1525 134.498 78.1209 134.483 78.0872 134.481Z" fill="#263238"/>
<path opacity="0.1" d="M88.9881 137.82C88.9881 137.82 80.5441 148.602 69.9056 150.486C61.8035 151.917 55.1405 147.695 52.4133 145.612L51.8249 144.65C51.8249 144.65 57.3032 140.039 67.6713 137.375C78.0395 134.711 88.9881 137.82 88.9881 137.82Z" fill="black"/>
<path d="M71.3606 129.416C70.4748 129.934 69.6175 130.499 68.7924 131.11C67.9884 131.723 67.2406 132.407 66.5582 133.153C66.5493 133.167 66.5457 133.184 66.5479 133.2C66.5501 133.217 66.558 133.232 66.5703 133.244C66.5825 133.255 66.5984 133.262 66.615 133.262C66.6317 133.263 66.6482 133.258 66.6616 133.248C67.4567 132.581 68.1961 131.913 68.9992 131.285C69.7726 130.648 70.5852 130.062 71.4322 129.527C71.4395 129.523 71.4458 129.517 71.4508 129.509C71.4557 129.502 71.4592 129.494 71.4611 129.486C71.4629 129.477 71.4631 129.468 71.4615 129.46C71.46 129.451 71.4568 129.443 71.4521 129.436C71.4474 129.429 71.4413 129.422 71.4341 129.417C71.427 129.412 71.4189 129.409 71.4105 129.407C71.402 129.405 71.3932 129.405 71.3846 129.407C71.3761 129.408 71.3679 129.411 71.3606 129.416Z" fill="#263238"/>
<path d="M77.7135 131.817C77.2841 132 76.8468 132.151 76.4175 132.334L75.1294 132.867C75.0419 132.867 75.0817 133.058 75.1771 133.018L76.4652 132.493C76.9025 132.318 77.3239 132.119 77.7532 131.944C77.8328 131.913 77.793 131.785 77.7135 131.817Z" fill="#263238"/>
<path d="M49.6304 162.405C49.6304 162.405 51.6659 176.502 62.2646 181.432C72.8634 186.361 85.7838 181.432 85.7838 181.432C85.7838 181.432 80.7349 150.939 49.6304 162.405Z" fill="#4240C2"/>
<path d="M78.4768 172.28C77.5068 172.169 76.5288 172.002 75.5667 171.827L74.1355 171.557L73.3961 171.405C73.1098 171.143 72.8316 170.873 72.5374 170.61C70.5244 168.847 68.3524 167.274 66.0493 165.911C64.797 165.169 63.5013 164.503 62.1692 163.916H62.368L65.8585 164.067C68.1802 164.178 70.5099 164.226 72.8316 164.377C72.919 164.377 72.9111 164.257 72.8316 164.25C70.494 164.091 68.1723 163.836 65.8426 163.637L62.4555 163.335L60.7062 163.184L60.261 163.136C59.6567 162.906 59.0524 162.691 58.4322 162.5C55.5432 161.509 52.4357 161.338 49.4555 162.007C46.7919 162.691 44.1283 164.44 43.4366 167.247C43.4366 167.343 43.5638 167.414 43.6035 167.319C44.5974 164.933 47.2054 163.78 49.5589 163.295C51.1325 162.997 52.7451 162.965 54.3295 163.2C54.4364 163.926 54.6148 164.64 54.8622 165.331C55.1564 166.325 55.4426 167.319 55.7448 168.305C56.3491 170.284 57.009 172.28 57.5974 174.228C57.5974 174.245 57.6041 174.261 57.616 174.273C57.6279 174.285 57.6441 174.292 57.661 174.292C57.6778 174.292 57.694 174.285 57.706 174.273C57.7179 174.261 57.7246 174.245 57.7246 174.228C57.2316 172.248 56.8102 170.253 56.3331 168.265C56.1026 167.295 55.8561 166.325 55.6176 165.355C55.479 164.677 55.3011 164.008 55.0848 163.351C56.0134 163.513 56.9319 163.728 57.8359 163.995C59.4619 164.482 61.0553 165.071 62.6065 165.76C62.7576 166.762 62.9882 167.756 63.2188 168.75C63.505 169.99 63.831 171.223 64.2206 172.439C64.2251 172.451 64.2332 172.462 64.2439 172.469C64.2546 172.477 64.2672 172.481 64.2802 172.481C64.2932 172.481 64.3059 172.477 64.3165 172.469C64.3272 172.462 64.3353 172.451 64.3398 172.439L64.2921 172.209C64.0536 171.056 63.7992 169.903 63.5527 168.75C63.3619 167.82 63.179 166.889 62.9802 165.967C64.3004 166.554 65.5901 167.206 66.8444 167.923C66.8444 168.209 66.9398 168.503 66.9796 168.766C67.0591 169.243 67.1466 169.728 67.234 170.213C67.4328 171.294 67.6475 172.383 67.9099 173.457C68.3896 175.536 68.9977 177.583 69.7307 179.587C69.7216 179.598 69.7167 179.612 69.7167 179.627C69.7167 179.641 69.7216 179.655 69.7307 179.667L69.7943 179.738C69.842 179.794 69.9135 179.738 69.8976 179.675C69.4126 177.583 68.8481 175.508 68.3869 173.417C68.1643 172.368 67.9337 171.318 67.719 170.237C67.6157 169.712 67.5203 169.187 67.4169 168.646L67.3453 168.177C68.7729 169.014 70.1508 169.932 71.4719 170.928C73.7598 172.642 75.8767 174.572 77.793 176.693C77.8646 176.78 78.0156 176.693 77.9441 176.566C77.1573 175.497 76.316 174.47 75.4236 173.489C74.8909 172.916 74.3343 172.36 73.7698 171.819H73.9447C74.4456 171.906 74.9386 171.978 75.4395 172.042C76.4175 172.177 77.4034 172.272 78.3893 172.383C78.5325 172.399 78.5643 172.28 78.4768 172.28Z" fill="#263238"/>
<path d="M71.0346 177.051C71.0346 176.931 71.0346 176.804 70.971 176.685C70.9074 176.566 70.8677 176.383 70.8438 176.224C70.6291 175.278 70.4463 174.331 70.2713 173.377C70.2713 173.314 70.16 173.33 70.16 173.377C70.2246 174.639 70.4931 175.883 70.9551 177.059C70.9551 177.098 71.0426 177.059 71.0346 177.059V177.051Z" fill="#263238"/>
<path d="M62.1613 176.82C62.1613 176.82 62.1613 176.757 62.0977 176.757C61.7955 175.508 61.5093 174.26 61.2549 173.004C61.1197 172.344 60.9845 171.684 60.8573 171.024C60.7857 170.666 60.7221 170.308 60.6585 169.95C60.6308 169.635 60.5529 169.327 60.4279 169.036C60.4234 169.024 60.4153 169.013 60.4046 169.006C60.394 168.999 60.3813 168.995 60.3683 168.995C60.3553 168.995 60.3427 168.999 60.332 169.006C60.3213 169.013 60.3132 169.024 60.3087 169.036C60.3003 169.677 60.3915 170.315 60.579 170.928C60.7062 171.612 60.8414 172.304 60.9925 172.988C61.3026 174.379 61.6445 175.763 62.042 177.13C62.0469 177.144 62.056 177.156 62.0681 177.165C62.0802 177.174 62.0947 177.178 62.1096 177.178C62.1244 177.178 62.1389 177.174 62.1511 177.165C62.1632 177.156 62.1723 177.144 62.1772 177.13L62.1613 176.82Z" fill="#263238"/>
<path d="M77.5545 168.201C75.6144 167.939 73.6823 167.661 71.7423 167.406C71.6628 167.406 71.631 167.525 71.7423 167.533C73.6744 167.82 75.6144 168.058 77.5545 168.328C77.5545 168.344 77.5942 168.217 77.5545 168.201Z" fill="#263238"/>
<path d="M44.1999 129.344C44.1999 129.344 37.7118 100.896 68.2836 89.3746C68.2836 89.3746 76.7594 126.832 44.1999 129.344Z" fill="#4240C2"/>
<path d="M50.7992 113.212L51.1252 113.013L52.8586 112.043L56.4047 110.063C58.7344 108.751 61.0402 107.4 63.3857 106.088C63.4652 106.088 63.3857 105.937 63.3221 105.976C60.9368 107.256 58.5515 108.457 56.2059 109.705L52.6995 111.558L51.2683 112.353C52.2861 110.421 53.3754 108.529 54.576 106.7C56.1662 104.259 57.9234 101.929 59.7442 99.6712C59.7631 99.6511 59.7734 99.6244 59.7726 99.5968C59.7719 99.5692 59.7602 99.5431 59.7402 99.5241C59.7202 99.5051 59.6934 99.4949 59.6658 99.4956C59.6382 99.4964 59.6121 99.508 59.5931 99.5281C56.9085 102.133 54.5364 105.041 52.5246 108.195C52.5246 108.091 52.5246 107.988 52.5246 107.893C52.5246 107.185 52.5803 106.477 52.5882 105.77C52.5882 104.378 52.5405 102.987 52.5882 101.603C52.5882 101.516 52.461 101.524 52.4531 101.603C52.3974 102.971 52.2304 104.338 52.1509 105.706C52.1509 106.382 52.0873 107.066 52.0635 107.749C52.0635 108.115 52.0635 108.545 52.0635 108.942C51.438 109.944 50.8363 110.959 50.2586 111.987C49.234 113.842 48.3206 115.757 47.5234 117.72C47.5234 117.012 47.4518 116.305 47.4121 115.597C47.3167 114.007 47.1338 112.488 47.0622 110.93C47.0622 110.913 47.0555 110.897 47.0436 110.885C47.0317 110.873 47.0155 110.866 46.9986 110.866C46.9818 110.866 46.9656 110.873 46.9537 110.885C46.9417 110.897 46.935 110.913 46.935 110.93C46.935 112.52 46.935 114.047 46.935 115.605C46.935 116.4 46.9827 117.195 47.0304 117.943C47.0304 118.229 47.0304 118.523 47.0861 118.809C46.114 121.353 45.3431 123.969 44.7803 126.633C44.25 129.476 43.8705 132.345 43.6433 135.228C43.6433 135.228 43.6433 135.228 43.6433 135.228C43.9514 132.635 44.4835 130.073 45.2335 127.571C45.6072 126.228 46.0286 124.892 46.4421 123.596C47.7142 123 48.9307 122.252 50.1552 121.568L53.9956 119.469C56.5478 118.07 59.0922 116.647 61.724 115.414C61.7955 115.414 61.724 115.263 61.6524 115.303C58.9888 116.504 56.3014 117.688 53.7014 118.968C52.3974 119.628 51.1173 120.328 49.8451 121.044C48.7876 121.64 47.6904 122.236 46.6647 122.928C46.9589 122.037 47.269 121.155 47.6109 120.288C48.549 117.875 49.6133 115.513 50.7992 113.212Z" fill="#263238"/>
<path d="M48.2231 106.7C48.2182 106.686 48.2091 106.674 48.197 106.665C48.1848 106.656 48.1704 106.652 48.1555 106.652C48.1406 106.652 48.1262 106.656 48.114 106.665C48.1019 106.674 48.0928 106.686 48.0879 106.7C48.1992 108.29 48.2549 109.944 48.4298 111.566C48.4298 111.585 48.4374 111.603 48.4508 111.617C48.4642 111.63 48.4824 111.637 48.5014 111.637C48.5204 111.637 48.5386 111.63 48.552 111.617C48.5654 111.603 48.5729 111.585 48.5729 111.566C48.5173 109.944 48.3424 108.33 48.2231 106.7Z" fill="#263238"/>
<path d="M62.8769 112.138C60.9686 112.934 59.0365 113.641 57.1283 114.436C57.0806 114.436 57.1283 114.548 57.1283 114.524C59.0604 113.8 60.9607 113.013 62.8848 112.266C62.9961 112.234 62.9564 112.107 62.8769 112.138Z" fill="#263238"/>
<path d="M65.7869 99.0112C63.9153 99.87 62.0989 100.845 60.3484 101.929C60.3358 101.943 60.328 101.961 60.3262 101.98C60.3245 101.999 60.3289 102.017 60.3387 102.033C60.3485 102.05 60.3633 102.062 60.3808 102.069C60.3983 102.076 60.4177 102.077 60.4359 102.072C62.209 101.031 64.0138 100.037 65.8505 99.1225C65.93 99.1305 65.8585 98.9794 65.7869 99.0112Z" fill="#263238"/>
<path d="M65.3178 190.878H21.2293V237.351H65.3178V190.878Z" fill="#455A64"/>
<path d="M20.458 207.328H18.2V286.934H20.458V207.328Z" fill="#263238"/>
<path d="M68.1245 207.328H65.8665V286.934H68.1245V207.328Z" fill="#263238"/>
<path d="M45.4879 207.328H43.2298V286.934H45.4879V207.328Z" fill="#263238"/>
<path d="M66.9955 234.378H19.329V240.81H66.9955V234.378Z" fill="#263238"/>
<path d="M242.642 260.934C242.642 260.934 242.642 295.179 242.642 295.203C242.642 301.747 242.586 307.488 242.26 310.453C242.265 310.461 242.267 310.469 242.267 310.477C242.267 310.486 242.265 310.494 242.26 310.501C242.261 311.205 242.097 311.899 241.783 312.529L241.744 312.568C239.803 313.896 187.486 315.693 185.641 315.136C183.796 314.58 185.22 309.285 187.231 307.591C189.243 305.897 208.937 296.261 208.937 296.261L209.263 262.031L242.642 260.934Z" fill="#AD6359"/>
<path d="M242.634 288.167V295.203C242.634 301.747 242.578 307.488 242.252 310.453C242.257 310.461 242.259 310.469 242.259 310.477C242.259 310.486 242.257 310.494 242.252 310.501C242.17 311.193 242.01 311.873 241.775 312.529L241.736 312.568C239.795 313.896 187.478 315.693 185.633 315.136C183.788 314.58 185.212 309.285 187.223 307.591C189.235 305.897 208.93 296.261 208.93 296.261L208.834 289.105L242.634 288.167Z" fill="#C7C7C7"/>
<path d="M185.633 315.136C187.478 315.693 239.796 313.904 241.744 312.568C242.491 312.075 242.674 304.434 242.634 295.203V294.909L208.866 295.704L208.906 296.277C208.906 296.277 189.187 305.921 187.199 307.615C185.212 309.308 183.78 314.604 185.633 315.136Z" fill="#263238"/>
<path d="M186.15 313.093C194.968 312.568 230.556 311.312 239.303 311.503C239.374 311.503 239.374 311.551 239.303 311.559C230.556 312.258 194.983 313.236 186.158 313.268C185.975 313.236 185.967 313.101 186.15 313.093Z" fill="#455A64"/>
<path d="M206.059 296.459C209.51 295.664 213.772 296.078 216.507 298.463C216.618 298.559 216.507 298.702 216.372 298.67C213.018 297.715 209.571 297.12 206.091 296.897C206.039 296.891 205.99 296.868 205.954 296.83C205.918 296.793 205.896 296.744 205.892 296.691C205.888 296.639 205.903 296.587 205.933 296.545C205.964 296.503 206.008 296.472 206.059 296.459Z" fill="#455A64"/>
<path d="M203.61 298.058C207.053 297.263 211.323 297.676 214.058 300.061C214.161 300.149 214.058 300.3 213.915 300.268C210.561 299.312 207.115 298.717 203.634 298.495C203.582 298.488 203.535 298.464 203.499 298.426C203.464 298.388 203.443 298.338 203.44 298.286C203.437 298.234 203.453 298.183 203.484 298.141C203.515 298.099 203.56 298.07 203.61 298.058Z" fill="#455A64"/>
<path d="M201.153 299.648C204.604 298.853 208.866 299.274 211.601 301.651C211.712 301.747 211.601 301.898 211.466 301.866C208.112 300.908 204.666 300.311 201.185 300.085C201.133 300.08 201.085 300.056 201.048 300.019C201.012 299.981 200.99 299.932 200.986 299.88C200.982 299.828 200.997 299.776 201.027 299.733C201.058 299.691 201.103 299.661 201.153 299.648Z" fill="#455A64"/>
<path d="M245.64 133.98L245.608 136.246L244.328 236.318L244.32 236.699L243.564 296.642L206.942 295.911L214.01 134.099L214.106 131.936L214.464 113.164H245.393L245.64 133.98Z" fill="#455A64"/>
<path d="M208.476 289.804C214.193 289.749 212.547 289.685 218.264 289.701C221.063 289.701 239.454 289.773 242.062 290.234C242.117 290.234 242.117 290.345 242.062 290.353C239.438 290.751 221.055 290.353 218.256 290.305C212.539 290.186 214.185 290.154 208.468 289.971C208.451 289.965 208.436 289.953 208.425 289.938C208.415 289.922 208.41 289.904 208.411 289.885C208.412 289.866 208.418 289.848 208.43 289.834C208.442 289.819 208.458 289.809 208.476 289.804Z" fill="#263238"/>
<path d="M224.879 144.507C224.879 144.49 224.873 144.474 224.861 144.462C224.849 144.45 224.833 144.443 224.816 144.443C224.799 144.443 224.783 144.45 224.771 144.462C224.759 144.474 224.752 144.49 224.752 144.507C224.752 154.088 224.363 159.455 224.132 169.028C223.901 178.601 223.623 188.174 223.337 197.739C222.82 216.877 222.049 236 221.341 255.13C220.944 265.859 220.448 276.582 219.854 287.3C219.854 287.315 219.86 287.329 219.871 287.339C219.881 287.35 219.895 287.356 219.91 287.356C219.925 287.356 219.939 287.35 219.949 287.339C219.96 287.329 219.966 287.315 219.966 287.3C221.357 268.217 222.685 249.071 223.448 229.933C224.211 210.795 224.752 191.665 224.84 172.527C224.919 161.785 224.856 155.249 224.879 144.507Z" fill="#263238"/>
<path d="M245.632 133.98L244.328 236.318L219.783 113.164H245.385L245.632 133.98Z" fill="#263238"/>
<path d="M283.717 259.082C283.717 259.082 288.329 293.009 288.329 293.033C289.251 299.521 289.919 305.222 290.014 308.203C290.014 308.203 290.014 308.203 290.014 308.251C290.107 308.946 290.042 309.652 289.823 310.318C289.823 310.334 289.823 310.35 289.823 310.366C288.074 311.956 236.472 320.782 234.572 320.48C232.671 320.177 233.371 314.739 235.096 312.791C236.822 310.843 255.077 298.638 255.077 298.638L250.784 264.679L283.717 259.082Z" fill="#AD6359"/>
<path d="M287.383 286.067C287.383 286.067 288.329 293.009 288.329 293.033C289.251 299.521 289.919 305.221 290.014 308.203C290.014 308.203 290.014 308.203 290.014 308.251C290.029 308.945 289.965 309.638 289.823 310.318C289.823 310.334 289.823 310.35 289.823 310.366C288.074 311.956 236.472 320.782 234.572 320.48C232.671 320.177 233.371 314.739 235.096 312.791C236.822 310.843 255.077 298.638 255.077 298.638L253.988 291.546L287.383 286.067Z" fill="#C7C7C7"/>
<path d="M234.54 320.48C236.448 320.782 288.042 311.948 289.792 310.366C290.467 309.77 289.617 302.184 288.329 293.033L288.281 292.746L254.934 298.074L255.046 298.638C255.046 298.638 236.806 310.851 235.065 312.799C233.323 314.747 232.6 320.169 234.54 320.48Z" fill="#263238"/>
<path d="M234.778 318.38C243.445 316.679 278.509 310.628 287.255 309.634C287.327 309.634 287.335 309.674 287.255 309.69C278.708 311.566 243.572 317.331 234.826 318.555C234.619 318.579 234.596 318.42 234.778 318.38Z" fill="#455A64"/>
<path d="M252.263 299.218C255.578 297.994 259.856 297.803 262.885 299.791C263.005 299.87 262.885 300.037 262.774 300.022C259.323 299.523 255.828 299.398 252.35 299.648C252.298 299.649 252.247 299.632 252.206 299.599C252.166 299.567 252.138 299.521 252.127 299.47C252.117 299.419 252.125 299.365 252.149 299.319C252.174 299.274 252.214 299.238 252.263 299.218Z" fill="#455A64"/>
<path d="M250.044 301.127C253.36 299.902 257.638 299.711 260.667 301.707C260.786 301.779 260.667 301.946 260.556 301.93C257.104 301.435 253.61 301.31 250.132 301.556C250.08 301.557 250.029 301.54 249.988 301.507C249.947 301.475 249.919 301.429 249.909 301.378C249.898 301.327 249.906 301.274 249.931 301.228C249.956 301.182 249.996 301.146 250.044 301.127Z" fill="#455A64"/>
<path d="M247.834 303.043C251.15 301.818 255.419 301.628 258.457 303.615C258.576 303.695 258.457 303.862 258.345 303.846C254.894 303.344 251.399 303.219 247.921 303.472C247.869 303.473 247.818 303.456 247.778 303.424C247.737 303.391 247.709 303.345 247.698 303.294C247.688 303.243 247.696 303.19 247.721 303.144C247.745 303.098 247.786 303.062 247.834 303.043Z" fill="#455A64"/>
<path d="M217.612 113.132C217.747 113.768 219.91 123.803 222.152 132.421C223.782 138.719 225.46 144.253 226.422 144.825C227.511 145.469 232.822 147.823 234.603 148.562L242.737 226.347L253.734 298.368L289.688 292.802L264.102 135.181L259.936 113.132H217.612Z" fill="#455A64"/>
<path d="M253.948 291.14C259.594 290.234 257.924 290.409 263.617 289.55C266.384 289.137 284.576 286.441 287.224 286.513C287.279 286.513 287.295 286.608 287.224 286.624C284.695 287.419 266.455 289.804 263.68 290.154C258.011 290.886 259.633 290.615 253.956 291.291C253.943 291.284 253.931 291.274 253.923 291.261C253.914 291.248 253.91 291.233 253.909 291.218C253.908 291.203 253.911 291.187 253.918 291.174C253.925 291.16 253.936 291.149 253.948 291.14Z" fill="#263238"/>
<path d="M274.74 269.633C273.842 264.639 272.951 259.646 272.029 254.653C270.19 244.666 268.334 234.683 266.463 224.701C262.71 204.723 259 184.729 255.332 164.719C253.28 153.428 253.328 154.486 251.539 143.14C251.539 143.068 251.396 143.076 251.412 143.14C253.129 153.221 252.318 151.011 253.94 161.109C255.562 171.207 257.264 181.09 259.053 191.052C262.647 211.081 266.416 231.078 270.224 251.067C271.284 256.675 272.368 262.275 273.476 267.868C274.589 273.576 275.861 279.253 277.038 284.946C277.038 285.074 277.269 285.066 277.245 284.946C276.418 279.85 275.671 274.729 274.74 269.633Z" fill="#263238"/>
<path d="M264.857 143.887C263.903 143.64 262.877 143.561 261.907 143.41C261.112 143.283 260.317 143.14 259.522 142.973C258.026 142.705 256.608 142.107 255.372 141.223C254.02 140.174 253.328 138.576 252.676 137.041C252.284 136.135 251.886 135.228 251.484 134.322L250.887 133.01C250.61 132.495 250.363 131.964 250.148 131.42C250.148 131.34 249.997 131.42 250.029 131.42C250.164 131.791 250.275 132.171 250.362 132.557C250.498 132.994 250.617 133.431 250.752 133.869C250.999 134.664 251.237 135.459 251.492 136.254C251.878 137.688 252.436 139.071 253.153 140.373C254.6 142.662 257.177 143.593 259.753 143.919C260.492 144.006 261.239 144.062 261.987 144.102C262.923 144.185 263.865 144.185 264.802 144.102C264.823 144.096 264.843 144.084 264.859 144.068C264.875 144.052 264.887 144.032 264.892 144.011C264.898 143.989 264.898 143.966 264.891 143.944C264.885 143.922 264.874 143.903 264.857 143.887Z" fill="#263238"/>
<path d="M223.599 143.45C227.391 144.827 231.055 146.535 234.548 148.554C234.577 148.568 234.6 148.593 234.611 148.623C234.623 148.654 234.621 148.688 234.607 148.717C234.594 148.747 234.569 148.77 234.538 148.781C234.508 148.792 234.474 148.79 234.444 148.777C230.755 147.187 226.994 145.676 223.4 143.895C223.351 143.863 223.314 143.814 223.297 143.758C223.28 143.701 223.284 143.64 223.308 143.586C223.332 143.533 223.375 143.489 223.428 143.464C223.482 143.439 223.542 143.434 223.599 143.45Z" fill="#263238"/>
<path d="M222.486 118.213C222.486 118.086 222.725 118.054 222.725 118.213C222.722 122.329 222.929 126.442 223.345 130.537C223.512 132.437 225.038 142.933 228.338 142.169C228.887 142.042 229.133 141.494 229.252 140.667C229.241 139.579 229.094 138.498 228.815 137.447C228.449 135.244 228.155 133.042 227.972 130.823C227.584 126.69 227.629 122.528 228.107 118.404C228.107 118.376 228.118 118.35 228.138 118.331C228.157 118.311 228.183 118.3 228.211 118.3C228.238 118.3 228.265 118.311 228.284 118.331C228.303 118.35 228.314 118.376 228.314 118.404C228.222 124.138 228.557 129.87 229.316 135.554C229.729 138.281 231.105 142.392 228.251 142.814C225.396 143.235 223.48 136.357 223.106 134.473C222.195 129.103 221.987 123.637 222.486 118.213Z" fill="#263238"/>
<path d="M228.251 142.408C228.541 143.119 228.788 143.846 228.99 144.587C229.203 145.159 229.308 145.765 229.3 146.376C229.296 146.4 229.284 146.423 229.266 146.441C229.248 146.459 229.226 146.472 229.201 146.477C229.176 146.482 229.15 146.48 229.127 146.47C229.104 146.46 229.084 146.444 229.07 146.423C228.715 145.888 228.446 145.301 228.274 144.682C228.02 144.014 227.758 143.338 227.527 142.662C227.493 142.566 227.499 142.461 227.543 142.369C227.587 142.278 227.666 142.207 227.762 142.173C227.858 142.14 227.963 142.145 228.055 142.189C228.146 142.233 228.217 142.312 228.251 142.408Z" fill="#263238"/>
<path d="M264.476 137.494C260.118 137.208 214.106 131.929 214.106 131.929L214.464 113.156H217.644H259.967L264.134 135.204L264.476 137.494Z" fill="#263238"/>
<path d="M232.25 70.0456C226.986 86.5201 218.073 103.527 215.497 106.875C208.588 115.875 187.827 124.741 181.491 125.886C178.747 126.379 172.172 108.688 173.873 106.255C175.575 103.822 201.376 93.9623 202.64 92.6504C203.515 91.736 214.4 77.7104 221.723 69.2505C230.874 58.7312 233.633 65.7361 232.25 70.0456Z" fill="#AD6359"/>
<path d="M179.383 102.82L189.577 123.492C189.577 123.492 211.243 114.102 216.404 107.4C221.564 100.697 230.914 77.9807 232.306 70.7453C233.697 63.5098 231.296 58.3416 221.604 68.9165C211.911 79.4914 203.881 90.0266 202.147 91.7917C200.414 93.5568 179.383 102.82 179.383 102.82Z" fill="#EBEBEB"/>
<path d="M180.242 101.77L192.455 123.19C192.455 123.19 211.538 114.07 216.404 108.083C221.27 102.096 229.292 83.7134 231.805 73.7905C234.317 63.8676 232.846 56.8309 221.611 68.9722C210.377 81.1134 204.024 89.9311 201.734 91.9109C200.645 92.7697 180.242 101.77 180.242 101.77Z" fill="#37474F"/>
<path d="M185.387 103.75C186.006 103.75 186.508 103.248 186.508 102.629C186.508 102.01 186.006 101.508 185.387 101.508C184.767 101.508 184.265 102.01 184.265 102.629C184.265 103.248 184.767 103.75 185.387 103.75Z" fill="#263238"/>
<path d="M190.674 101.317C191.293 101.317 191.795 100.815 191.795 100.196C191.795 99.5768 191.293 99.0748 190.674 99.0748C190.055 99.0748 189.553 99.5768 189.553 100.196C189.553 100.815 190.055 101.317 190.674 101.317Z" fill="#263238"/>
<path d="M231.805 73.7587C229.292 83.6816 221.278 102.033 216.404 108.052C214.32 110.62 209.661 113.752 204.994 116.504L229.586 62.6432C233.395 61.6095 233.514 67.0162 231.805 73.7587Z" fill="#263238"/>
<path d="M266.877 129.615C266.75 129.758 211.744 129.925 211.219 129.36C210.512 128.565 222.939 68.9324 228.585 61.6095C229.785 60.0193 233.769 59.5979 237.156 60.0193C238.039 60.119 238.912 60.2973 239.764 60.5521H239.859C240.546 60.7547 241.194 61.0719 241.775 61.4903C251.189 69.012 259.124 95.3061 260.977 103.201C264.078 116.233 267.33 129.098 266.877 129.615Z" fill="#EBEBEB"/>
<path d="M241.616 60.7906C241.616 60.7906 237.14 85.2003 236.361 91.5452C235.581 97.8901 236.726 131.404 236.726 131.404L271.266 133.956C271.266 133.956 263.8 111.773 263.712 110.365C263.712 110.365 257.51 83.7929 251.698 72.6933C249.16 68.0968 245.732 64.0508 241.616 60.7906Z" fill="#37474F"/>
<path d="M271.266 133.956L255.602 132.795L244.423 63.2474V63.2951L251.436 72.2798C251.515 72.4229 251.595 72.5661 251.666 72.7092C257.479 83.8406 263.68 110.381 263.68 110.381C263.8 111.773 271.266 133.956 271.266 133.956Z" fill="#263238"/>
<path d="M228.251 61.3233C228.251 61.3233 224.585 86.0431 224.188 88.0865C223.79 90.1299 218.24 130.442 218.24 130.442L209.597 130.712L214.106 112.282C214.106 112.282 224.132 66.5869 228.251 61.3233Z" fill="#37474F"/>
<path d="M233.299 74.8878L230.851 70.1171L227.686 73.5679L228.465 77.0027L231.582 77.4082L233.299 74.8878Z" fill="#263238"/>
<path d="M231.582 77.4082L233.077 112.504L226.501 124.113L223.082 111.049L228.465 77.0027L231.582 77.4082Z" fill="#263238"/>
<path d="M230.204 174.407L230.161 215.625L298.19 215.696L298.233 174.478L230.204 174.407Z" fill="#4240C2"/>
<path opacity="0.1" d="M230.201 174.411L230.18 193.82L298.209 193.891L298.23 174.483L230.201 174.411Z" fill="black"/>
<path d="M228.58 187.573L299.83 187.647L299.85 168.414L228.6 168.339L228.58 187.573Z" fill="#4240C2"/>
<path d="M249.233 157.396L249.217 168.36L254.378 168.368L254.386 162.127L274.064 162.15L274.057 168.392H279.217L279.225 157.42L249.233 157.396Z" fill="#263238"/>
<path d="M285.398 192.218L290.041 192.223L290.051 183.032L285.408 183.027L285.398 192.218Z" fill="#263238"/>
<path d="M238.352 192.18L242.995 192.185L243.005 182.994L238.361 182.989L238.352 192.18Z" fill="#263238"/>
<path d="M249.217 68.1214C264.563 82.0437 274.303 101.929 274.963 105.945C276.553 115.653 278.565 132.668 278.223 140.134C278.096 142.901 257.129 139.546 257.169 136.588C257.304 127.333 256.071 106.978 256.016 106.62C255.642 104.132 251.078 92.9446 246.474 80.8113C241.871 68.678 242.761 62.2774 249.217 68.1214Z" fill="#AD6359"/>
<path d="M254.958 165.593C255.57 165.871 256.252 165.956 256.913 165.835C257.574 165.714 258.182 165.394 258.655 164.917C259.254 165.889 260.174 166.621 261.255 166.985C263.187 167.541 264.905 164.75 264.905 164.75C265.738 165.63 266.815 166.239 267.998 166.5C269.898 166.842 272.037 164.273 272.037 164.273C273.246 164.654 274.551 164.592 275.718 164.098C277.698 163.168 279.376 157.491 279.789 154.223C280.203 150.955 278.302 141.295 278.128 139.418L257.169 136.604C257.169 136.604 251.158 150.741 251.221 154.653C251.277 157.968 252.652 164.448 254.958 165.593Z" fill="#AD6359"/>
<path d="M258.337 164.727C257.439 161.236 257.622 157.666 257.606 154.104C257.606 154.087 257.613 154.071 257.624 154.059C257.636 154.047 257.653 154.04 257.669 154.04C257.686 154.04 257.703 154.047 257.714 154.059C257.726 154.071 257.733 154.087 257.733 154.104C257.733 157.65 258.385 161.157 258.528 164.703C258.531 164.728 258.524 164.754 258.509 164.774C258.493 164.794 258.47 164.807 258.445 164.81C258.419 164.813 258.394 164.806 258.374 164.791C258.354 164.775 258.34 164.752 258.337 164.727Z" fill="#263238"/>
<path d="M264.642 164.647C264.514 163.834 264.493 163.008 264.579 162.19C264.579 161.324 264.674 160.449 264.746 159.582C264.884 157.844 265.061 156.11 265.279 154.382C265.279 154.303 265.406 154.303 265.398 154.382C265.271 156.116 265.167 157.849 265.104 159.582C265.104 160.457 265.056 161.324 265.04 162.19C265.075 163.012 265.022 163.836 264.881 164.647C264.872 164.671 264.856 164.692 264.834 164.707C264.813 164.722 264.788 164.73 264.762 164.73C264.736 164.73 264.71 164.722 264.689 164.707C264.668 164.692 264.652 164.671 264.642 164.647Z" fill="#263238"/>
<path d="M272.037 164.202C271.935 163.464 271.957 162.714 272.101 161.983C272.18 161.188 272.252 160.393 272.323 159.598C272.466 158.008 272.602 156.418 272.681 154.828C272.681 154.748 272.808 154.748 272.808 154.828C272.729 156.418 272.673 158.056 272.586 159.67L272.443 162.055C272.459 162.782 272.349 163.505 272.117 164.194C272.113 164.201 272.108 164.207 272.101 164.211C272.094 164.216 272.087 164.219 272.079 164.219C272.071 164.22 272.063 164.219 272.056 164.216C272.048 164.213 272.042 164.208 272.037 164.202Z" fill="#263238"/>
<path d="M256.143 136.699L279.384 137.955C279.384 137.955 277.666 112.512 275.822 105.444C273.977 98.3752 258.234 74.8162 248.939 66.2768C240.193 58.2383 240.193 64.9251 243.509 74.3471C246.824 83.7691 255.03 106.541 255.308 108.203C255.586 109.864 256.143 136.699 256.143 136.699Z" fill="#37474F"/>
<path d="M257.184 132.008C258.075 131.929 258.973 132.008 259.864 132.008C260.754 132.008 261.645 132.048 262.535 132.088C264.253 132.159 265.97 132.262 267.688 132.374L272.832 132.716C274.605 132.835 276.418 132.867 278.175 133.129C278.187 133.134 278.198 133.142 278.205 133.152C278.213 133.163 278.217 133.176 278.217 133.189C278.217 133.202 278.213 133.214 278.205 133.225C278.198 133.236 278.187 133.244 278.175 133.248C276.402 133.32 274.597 133.161 272.824 133.097L267.576 132.883C265.827 132.803 264.078 132.716 262.329 132.604C261.47 132.557 260.611 132.493 259.761 132.398C258.91 132.302 258.019 132.294 257.176 132.127C257.097 132.111 257.121 132.016 257.184 132.008Z" fill="#263238"/>
<path d="M231.677 69.481C232.584 69.4413 238.603 64.7104 240.424 61.0688C240.551 60.8144 240.082 58.2224 239.668 55.0499C239.422 53.1257 239.191 50.971 239.128 48.9912C239.128 48.5857 237.76 49.3808 237.76 49.3808L235.216 50.0805L226.819 52.4181C227.61 54.8696 228.096 57.4092 228.266 59.9795C228.276 60.2458 228.257 60.5123 228.211 60.7746C228.214 60.8196 228.214 60.8648 228.211 60.9098C228.028 62.4762 230.214 69.5367 231.677 69.481Z" fill="#AD6359"/>
<path d="M228.243 60.7906C228.246 60.8356 228.246 60.8808 228.243 60.9257C228.668 60.9661 229.097 60.9661 229.523 60.9257C237.871 60.4646 238.563 49.7943 238.563 49.7943L235.263 50.0487L226.867 52.3863C227.658 54.8378 228.144 57.3774 228.314 59.9478C228.322 60.2305 228.298 60.5131 228.243 60.7906Z" fill="#263238"/>
<path d="M238.818 32.2145C240.821 36.357 240.487 49.2854 237.824 52.5692C233.975 57.3398 226.692 58.8584 222.399 54.0004C218.24 49.3013 218.98 32.461 222.041 29.3521C226.549 24.8359 235.86 26.0922 238.818 32.2145Z" fill="#AD6359"/>
<path d="M227.734 41.6444C227.734 41.6444 227.797 41.6444 227.797 41.724C227.75 42.5906 227.845 43.6004 228.592 43.9025C228.592 43.9025 228.592 43.9582 228.592 43.9502C227.662 43.7992 227.551 42.4634 227.734 41.6444Z" fill="#263238"/>
<path d="M228.529 40.7539C229.928 40.6744 229.984 43.4891 228.68 43.5607C227.376 43.6322 227.352 40.8176 228.529 40.7539Z" fill="#263238"/>
<path d="M222.693 41.883C222.693 41.883 222.629 41.9227 222.629 41.9625C222.669 42.8292 222.574 43.8389 221.786 44.1411V44.1888C222.756 44.0298 222.876 42.6781 222.693 41.883Z" fill="#263238"/>
<path d="M221.898 40.9766C220.498 40.8971 220.435 43.7117 221.739 43.7833C223.043 43.8548 223.059 41.0879 221.898 40.9766Z" fill="#263238"/>
<path d="M229.618 39.45C229.229 39.3546 228.887 39.2114 228.521 39.0842C228.115 39.0121 227.745 38.8047 227.471 38.4958C227.403 38.3842 227.375 38.2527 227.391 38.1228C227.406 37.9929 227.466 37.8722 227.559 37.7802C227.767 37.6208 228.013 37.5198 228.273 37.4877C228.533 37.4555 228.797 37.4934 229.038 37.5974C229.558 37.7349 230.008 38.0608 230.302 38.5117C230.363 38.6183 230.392 38.7401 230.385 38.8627C230.378 38.9852 230.336 39.1031 230.264 39.2023C230.192 39.3015 230.092 39.3776 229.978 39.4216C229.863 39.4655 229.738 39.4754 229.618 39.45Z" fill="#263238"/>
<path d="M220.785 39.5851C221.161 39.5024 221.533 39.3988 221.898 39.275C222.304 39.2184 222.68 39.0315 222.971 38.7423C223.045 38.6337 223.081 38.5035 223.072 38.3723C223.063 38.2412 223.011 38.1167 222.923 38.0188C222.724 37.8482 222.482 37.7346 222.223 37.6898C221.964 37.6451 221.698 37.6708 221.452 37.7643C220.927 37.8755 220.462 38.1789 220.148 38.6151C220.083 38.7184 220.048 38.8386 220.049 38.9611C220.05 39.0836 220.086 39.2033 220.153 39.3057C220.22 39.4082 220.316 39.489 220.428 39.5386C220.54 39.5882 220.664 39.6043 220.785 39.5851Z" fill="#263238"/>
<path d="M225.086 48.1961C225.459 48.6695 225.95 49.0368 226.509 49.2616C226.817 49.3765 227.153 49.3932 227.471 49.3093C228.171 49.1105 228.171 48.5142 228.036 47.9258C227.958 47.6492 227.848 47.3824 227.71 47.1307C226.971 47.7555 226.052 48.1287 225.086 48.1961Z" fill="#263238"/>
<path d="M226.509 49.2615C226.817 49.3765 227.153 49.3932 227.471 49.3092C228.171 49.1105 228.171 48.5141 228.036 47.9258C227.669 47.9473 227.32 48.0902 227.044 48.3321C226.767 48.574 226.579 48.901 226.509 49.2615Z" fill="#FF9ABB"/>
<path d="M220.26 33.6775C220.713 32.5643 221.246 31.4432 221.906 31.2047C222.566 30.9662 223.035 32.5882 224.553 32.6598C226.597 32.7631 227.551 30.8708 230.405 30.6163C234.5 30.2506 236.369 33.6457 236.583 39.4658C236.766 44.6579 239.923 45.0872 239.923 45.0872C239.923 45.0872 241.608 33.59 238.333 29.853C235.057 26.116 227.583 24.5815 222.669 28.2628C220.848 29.6543 220.26 33.6775 220.26 33.6775Z" fill="#263238"/>
<path d="M237.259 43.0915C237.259 43.0915 239.557 38.631 241.545 39.3943C243.533 40.1576 242.189 46.3594 240.122 47.4646C239.866 47.6236 239.582 47.7294 239.285 47.7754C238.988 47.8215 238.685 47.8069 238.393 47.7326C238.102 47.6583 237.829 47.5258 237.59 47.3431C237.352 47.1604 237.152 46.9313 237.005 46.6695L237.259 43.0915Z" fill="#AD6359"/>
<path d="M241.115 41.1674C241.115 41.1674 241.163 41.2071 241.115 41.223C239.676 42.0181 239.064 43.5606 238.73 45.1031C238.797 44.9377 238.899 44.789 239.03 44.6673C239.16 44.5456 239.316 44.4539 239.486 44.3986C239.655 44.3433 239.835 44.3258 240.012 44.3472C240.189 44.3686 240.36 44.4285 240.511 44.5227C240.551 44.5227 240.511 44.6102 240.511 44.6102C240.232 44.5605 239.944 44.5989 239.688 44.72C239.431 44.8411 239.219 45.0389 239.08 45.286C238.847 45.6991 238.661 46.1363 238.523 46.59C238.476 46.741 238.213 46.7013 238.245 46.5343C237.911 44.5625 239.056 41.6444 241.115 41.1674Z" fill="#263238"/>
<path d="M228.203 61.0927L231.2 68.4554L240.296 59.1526L242.888 62.1263C242.888 62.1263 233.999 76.8676 233.944 76.2235L230.906 69.9104L226.557 74.3153L226.883 63.2713L228.203 61.0927Z" fill="#EBEBEB"/>
<path d="M226.406 68.8529C226.525 67.0321 226.589 65.1875 226.788 63.3747C226.788 63.311 226.899 63.2872 226.915 63.3747C227.281 65.1318 226.804 72.1208 226.811 73.7667C226.994 73.5758 230.843 69.8945 230.882 69.9502C231.542 70.952 233.769 75.5159 233.92 75.9691C235.327 73.6235 240.71 65.1 242.38 62.8817C242.39 62.8728 242.403 62.8674 242.416 62.8663C242.43 62.8652 242.443 62.8685 242.455 62.8756C242.466 62.8826 242.475 62.8932 242.48 62.9058C242.485 62.9183 242.486 62.9322 242.483 62.9453C241.266 65.3783 234.142 76.8676 234.031 76.8676C232.858 74.6967 231.797 72.4675 230.851 70.1887C230.199 70.9838 226.311 75.1581 226.295 74.8878C226.227 72.8756 226.264 70.8612 226.406 68.8529Z" fill="#263238"/>
<path d="M125.499 68.678C135.502 88.4204 145.663 135.912 146.609 142.265C147.253 146.582 124.553 150.486 124.553 147.497C124.553 143.664 119.973 98.8363 120.411 81.1214C120.649 71.3496 123.432 64.5991 125.499 68.678Z" fill="#EB9481"/>
<path d="M124.466 145.604C124.1 148.204 124.967 157.213 126.668 163.892C127.463 167.152 130.866 176.256 133.418 175.818C135.971 175.381 135.215 172.638 135.215 172.638C135.215 172.638 137.219 176.264 139.74 175.588C142.26 174.912 140.964 170.666 140.964 170.666C140.964 170.666 143.286 174.252 145.735 173.393C148.184 172.534 146.172 168.487 146.172 168.487C146.172 168.487 148.152 171.867 149.885 170.3C151.976 168.416 147.635 162.612 146.903 158.962C146.737 158.167 144.709 141.931 144.709 141.931L124.466 145.604Z" fill="#EB9481"/>
<path d="M146.204 168.432C143.023 164.154 142.371 161.729 141.974 156.505C141.968 156.487 141.957 156.472 141.942 156.461C141.927 156.45 141.909 156.444 141.89 156.444C141.872 156.444 141.854 156.45 141.839 156.461C141.824 156.472 141.812 156.487 141.807 156.505C141.735 161.665 142.117 164.822 146.005 168.615C146.196 168.782 146.355 168.631 146.204 168.432Z" fill="#263238"/>
<path d="M141.028 170.897C138.11 166.166 137.378 163.542 136.551 158.095C136.551 158.016 136.408 158.024 136.416 158.095C136.774 163.51 137.211 166.651 140.765 171C140.924 171.207 141.163 171.111 141.028 170.897Z" fill="#263238"/>
<path d="M134.985 172.28C132.496 167.509 131.574 164.655 131.455 159.264C131.448 159.243 131.435 159.224 131.417 159.21C131.4 159.197 131.378 159.189 131.355 159.189C131.333 159.189 131.311 159.197 131.293 159.21C131.275 159.224 131.262 159.243 131.256 159.264C130.842 164.774 131.971 168.328 134.834 172.352C135.033 172.582 135.144 172.55 134.985 172.28Z" fill="#263238"/>
<path d="M146.466 141.136C146.466 141.136 150.124 146.702 151.189 149.54C152.255 152.379 152.374 164.281 149.798 164.456C146.474 164.679 145.027 157.801 144.788 154.343C144.788 154.343 137.092 154.859 135.009 150.144C132.926 145.429 146.466 141.136 146.466 141.136Z" fill="#EB9481"/>
<path d="M148.867 164.21C145.687 162.23 145.639 157.666 145.138 154.327C145.133 154.277 145.116 154.229 145.089 154.187C145.061 154.146 145.024 154.111 144.98 154.087C144.936 154.063 144.887 154.05 144.837 154.048C144.787 154.047 144.738 154.058 144.693 154.08C141.457 154.08 136.885 153.142 134.929 150.343C134.925 150.332 134.919 150.323 134.91 150.315C134.902 150.306 134.892 150.3 134.881 150.296C134.87 150.293 134.859 150.291 134.847 150.292C134.836 150.294 134.825 150.297 134.815 150.303C134.805 150.309 134.796 150.317 134.79 150.326C134.783 150.336 134.779 150.347 134.777 150.358C134.775 150.369 134.775 150.381 134.778 150.392C134.781 150.403 134.787 150.414 134.794 150.423C136.48 153.714 140.9 155.002 144.447 154.772C144.908 158.199 145.154 162.779 148.844 164.242C148.867 164.25 148.883 164.226 148.867 164.21Z" fill="#263238"/>
<path d="M148.788 139.8L123.003 143.776C123.003 143.776 118.892 95.9024 118.741 79.8333C118.59 63.7643 124.362 59.8285 130.556 76.2633C136.75 92.6981 148.788 139.8 148.788 139.8Z" fill="#4240C2"/>
<path d="M122.875 139.744C133.426 137.359 144.868 136.477 146.856 136.182C146.951 136.182 146.959 136.318 146.856 136.325C144.9 136.516 131.924 138.957 122.875 139.903C122.804 139.911 122.796 139.76 122.875 139.744Z" fill="#263238"/>
<path d="M180.028 315.097C178.239 315.677 125.801 314.89 123.877 313.626C123.647 313.483 123.615 308.744 123.678 302.248L121.126 263.661L154.306 263.757L156.93 297.151C156.93 297.151 164.372 300.586 170.51 303.592C173.196 304.812 175.806 306.193 178.326 307.726C180.306 309.38 181.817 314.524 180.028 315.097Z" fill="#EB9481"/>
<path d="M180.028 315.097C178.239 315.677 125.801 314.89 123.877 313.626C123.647 313.483 123.615 308.744 123.678 302.248C136.631 305.134 171.17 309.809 172.18 307.098C172.585 306.009 171.758 304.776 170.526 303.639C173.212 304.86 175.822 306.24 178.342 307.774C180.306 309.38 181.817 314.524 180.028 315.097Z" fill="#263238"/>
<path d="M107.116 123.222C107.116 123.222 116.515 222.944 116.721 224.153C116.721 224.312 116.825 226.156 116.912 229.154C117.437 245.605 118.725 296.905 118.725 296.905H158.146C158.146 296.905 155.578 236.143 154.099 221.974C152.215 203.885 140.63 123.222 140.63 123.222H107.116Z" fill="#37474F"/>
<path d="M121.42 227.524C120.207 206.819 118.38 186.147 115.942 165.506C114.559 153.897 112.889 142.328 111.235 130.752C111.235 130.648 111.06 130.656 111.076 130.752C114.129 151.353 116.284 172.097 118.145 192.857C120.005 213.618 121.325 234.33 122.12 255.114C122.605 266.882 122.971 278.665 123.345 290.44C123.354 290.491 123.381 290.537 123.421 290.57C123.461 290.603 123.511 290.621 123.563 290.621C123.615 290.621 123.665 290.603 123.705 290.57C123.745 290.537 123.772 290.491 123.782 290.44C123.257 269.482 122.653 248.491 121.42 227.524Z" fill="#263238"/>
<path d="M155.658 290.552C154.624 290.417 153.503 290.456 152.477 290.425C151.3 290.425 150.092 290.369 148.931 290.329C146.649 290.242 144.359 290.178 142.077 290.146C137.474 290.067 132.862 290.099 128.266 290.242L124.466 290.377C123.114 290.425 121.762 290.552 120.411 290.544C120.315 290.544 120.315 290.663 120.411 290.663C122.724 290.663 125.07 290.862 127.392 290.949C129.713 291.037 131.956 291.069 134.237 291.1C138.841 291.164 143.461 291.1 148.056 290.957C149.321 290.91 150.585 290.894 151.849 290.854L153.884 290.751C154.489 290.751 155.085 290.751 155.689 290.695C155.769 290.695 155.761 290.568 155.658 290.552Z" fill="#263238"/>
<path d="M135.597 123.222L117.588 253.11C117.334 243.426 117.079 234.473 116.912 229.154C116.825 226.156 116.753 224.312 116.721 224.153C116.499 222.944 107.116 123.222 107.116 123.222H135.597Z" fill="#263238"/>
<path d="M113.986 322.014C112.11 321.863 64.0059 300.968 62.7178 299.059C62.5588 298.845 64.3081 294.456 66.908 288.485L77.5147 251.115L108.206 263.431L99.5471 296.61C99.5471 296.61 105.113 302.645 109.613 307.742C111.623 309.905 113.503 312.186 115.242 314.572C116.443 316.838 115.855 322.173 113.986 322.014Z" fill="#EB9481"/>
<path d="M113.986 322.014C112.11 321.863 64.0059 300.968 62.7178 299.059C62.5588 298.845 64.3081 294.456 66.908 288.485C77.7612 296.133 107.84 313.721 109.844 311.606C110.639 310.763 110.345 309.3 109.645 307.774C111.655 309.937 113.535 312.218 115.274 314.604C116.443 316.838 115.855 322.173 113.986 322.014Z" fill="#263238"/>
<path d="M63.4573 284.636L101.916 296.563C101.916 296.563 120.697 230.688 122.136 215.216C123.559 199.878 124.935 168.543 125.547 145.811C125.547 145.811 131.971 142.01 133.601 139.935C135.231 137.86 136.694 130.394 139.907 123.238H92.8523C81.6095 145.08 90.0694 154.796 90.0694 159.558C90.0694 182.553 86.5948 213.077 85.4896 217.601C83.1838 227.031 63.4573 284.636 63.4573 284.636Z" fill="#37474F"/>
<path d="M101.829 288.151C100.867 287.753 99.7776 287.507 98.7758 287.196C97.6388 286.855 96.4938 286.537 95.3648 286.187C93.1862 285.511 90.9917 284.867 88.7972 284.247C84.3712 282.985 79.9133 281.824 75.4236 280.764L71.7184 279.913C70.4065 279.611 69.0628 279.381 67.7429 279.031C67.6395 279.031 67.6157 279.118 67.7429 279.15C69.9851 279.738 72.1955 280.541 74.4138 281.225C76.6322 281.909 78.7948 282.521 80.9893 283.149C85.4181 284.398 89.8865 285.535 94.3709 286.576C95.6113 286.855 96.8358 287.165 98.0682 287.459L100.048 287.896C100.636 288.031 101.209 288.222 101.805 288.31C101.826 288.313 101.848 288.307 101.865 288.295C101.882 288.282 101.893 288.263 101.897 288.242C101.9 288.221 101.894 288.199 101.882 288.182C101.869 288.165 101.85 288.154 101.829 288.151Z" fill="#263238"/>
<path d="M134.699 139.418C132.453 140.45 130.321 141.713 128.338 143.187C126.231 144.634 124.291 146.296 122.263 147.847C122.184 147.91 122.263 148.037 122.343 147.982C124.482 146.614 126.724 145.413 128.839 144.006C130.962 142.718 132.964 141.238 134.818 139.585C134.874 139.522 134.802 139.379 134.699 139.418Z" fill="#263238"/>
<path d="M134.993 126.164C134.722 127.627 134.365 129.082 134.047 130.537C133.729 131.992 133.53 133.296 133.172 134.648C132.876 135.955 132.211 137.15 131.256 138.091C130.723 138.592 130.127 139.029 129.554 139.49C129.252 139.736 128.918 139.967 128.6 140.221C128.64 140.023 128.672 139.832 128.704 139.625C128.807 139.077 128.902 138.52 128.99 137.963C129.197 136.731 129.395 135.491 129.586 134.258C129.96 131.825 130.302 129.368 130.811 126.959C130.816 126.938 130.813 126.916 130.801 126.897C130.79 126.878 130.772 126.865 130.751 126.86C130.73 126.854 130.708 126.858 130.689 126.869C130.67 126.88 130.657 126.898 130.652 126.919C130.047 129.305 129.379 131.69 128.855 134.075C128.592 135.252 127.67 141.072 127.63 141.486C127.59 141.899 127.551 142.336 127.535 142.766C127.483 143.202 127.483 143.642 127.535 144.078C127.535 144.181 127.694 144.165 127.734 144.078C127.912 143.674 128.037 143.249 128.107 142.814C128.211 142.4 128.306 141.979 128.378 141.557C128.378 141.406 128.425 141.247 128.449 141.088C129.022 140.738 129.554 140.293 130.095 139.895C130.636 139.498 131.256 139.1 131.804 138.607C132.815 137.754 133.544 136.615 133.896 135.34C134.249 133.966 134.48 132.564 134.587 131.149C134.77 129.496 134.905 127.834 135.136 126.188C135.16 126.164 135.009 126.085 134.993 126.164Z" fill="#263238"/>
<path d="M134.007 62.7624C133.252 72.1049 132.313 81.7098 130.135 90.8376C128.433 97.9458 124.569 103.472 116.856 104.211C109.701 104.895 99.8015 103.416 94.5538 98.0015C92.1049 95.481 91.5721 92.3165 92.2162 88.9452C93.1146 84.2621 100.406 58.9141 102.624 50.9949C103.976 46.1766 105.312 41.2867 107.506 36.7546C112.102 27.2133 117.047 28.0084 117.731 27.8892C118.375 27.587 122.382 26.4262 127.535 28.8751C128.89 29.5079 130.097 30.4201 131.075 31.552C132.054 32.6838 132.782 34.0097 133.212 35.4427C135.947 43.9662 134.738 54.0163 134.007 62.7624Z" fill="#263238"/>
<path d="M116.03 29.0579C109.724 31.0139 107.419 37.2952 105.192 42.8928C102.091 50.6927 99.1177 58.5484 96.5257 66.5392C95.2853 70.3795 94.1403 74.2517 93.0829 78.1477C92.089 81.8847 90.793 85.8363 90.5226 89.7085C90.0774 96.0693 95.4841 99.7904 100.986 101.468C101.041 101.486 101.101 101.481 101.152 101.455C101.204 101.429 101.243 101.384 101.261 101.329C101.278 101.274 101.274 101.214 101.248 101.163C101.222 101.112 101.176 101.073 101.121 101.055C98.0046 99.9812 94.8639 98.6693 92.8046 95.9421C90.1569 92.4755 91.0633 88.5476 91.9618 84.6357C93.5043 77.9728 95.4205 71.4131 97.5275 64.9251C99.6345 58.437 102.068 52.0126 104.548 45.6438C106.934 39.5772 109.136 31.4671 116.014 29.1613C116.117 29.1613 116.093 29.0341 116.03 29.0579Z" fill="#263238"/>
<path d="M134.969 42.5906C134.508 37.5894 132.631 32.5166 127.726 30.4096C134.039 33.4151 134.659 40.8493 134.707 46.9875C134.76 53.4597 134.577 59.9212 134.158 66.3722C133.76 72.5819 133.22 78.8235 132.258 84.9697C131.216 91.6008 129.157 97.6913 124.482 102.613C124.471 102.622 124.463 102.634 124.457 102.646C124.451 102.659 124.447 102.673 124.446 102.687C124.446 102.701 124.448 102.715 124.452 102.728C124.457 102.741 124.464 102.754 124.474 102.764C124.483 102.775 124.494 102.783 124.507 102.789C124.52 102.795 124.533 102.799 124.547 102.799C124.562 102.8 124.576 102.798 124.589 102.793C124.602 102.789 124.614 102.781 124.625 102.772C129.101 98.8681 131.224 92.9366 132.313 87.2596C133.628 79.723 134.443 72.1079 134.754 64.4639C135.168 57.2682 135.637 49.834 134.969 42.5906Z" fill="#263238"/>
<path d="M115.656 64.0346C115.958 64.8297 120.593 69.6798 124.346 69.0199C125.563 68.7972 124.664 62.0786 124.664 62.0786L124.712 61.5697L125.364 54.4138L116.515 50.2316L115.25 49.6909C115.25 49.6909 115.195 51.6627 115.163 54.1117C115.163 54.2309 115.163 54.3422 115.163 54.4615C115.155 54.5966 115.155 54.732 115.163 54.867C115.163 55.2328 115.163 55.6065 115.163 55.9802C115.163 56.3539 115.163 56.5367 115.163 56.8309C115.163 57.1251 115.163 57.4273 115.163 57.7214C115.184 59.8346 115.349 61.9438 115.656 64.0346Z" fill="#EB9481"/>
<path d="M115.163 54.1117C116.117 55.9725 117.465 57.6034 119.112 58.8912C120.76 60.1791 122.668 61.0931 124.704 61.5697L125.356 54.4138L116.515 50.2316L115.25 49.6909C115.25 49.6909 115.195 51.6627 115.163 54.1117Z" fill="#263238"/>
<path d="M134.46 43.8787C135.462 56.4413 128.052 58.4609 125.34 58.6756C122.875 58.8664 114.471 59.2163 112.181 46.8126C109.891 34.409 115.417 29.9564 121.023 29.2408C126.628 28.5252 133.466 31.3081 134.46 43.8787Z" fill="#EB9481"/>
<path d="M132.345 41.2071C132.058 41.1649 131.774 41.1065 131.494 41.0322C131.184 41.0135 130.888 40.8934 130.652 40.6903C130.592 40.6114 130.559 40.5151 130.559 40.416C130.559 40.3169 130.592 40.2206 130.652 40.1417C130.793 40.0049 130.969 39.9079 131.16 39.8604C131.351 39.8129 131.552 39.8167 131.741 39.8714C132.146 39.9223 132.516 40.1273 132.774 40.4438C132.831 40.5179 132.864 40.6069 132.871 40.6998C132.877 40.7927 132.856 40.8854 132.811 40.9665C132.765 41.0477 132.697 41.1137 132.614 41.1565C132.531 41.1992 132.438 41.2168 132.345 41.2071Z" fill="#263238"/>
<path d="M123.981 41.382C124.275 41.3423 124.537 41.2628 124.831 41.1992C125.127 41.166 125.405 41.0409 125.626 40.8414C125.688 40.7631 125.721 40.6665 125.721 40.5671C125.721 40.4676 125.688 40.3711 125.626 40.2927C125.483 40.1566 125.305 40.0612 125.112 40.0165C124.92 39.9718 124.718 39.9793 124.529 40.0383C124.129 40.1025 123.767 40.312 123.512 40.6267C123.454 40.7035 123.421 40.796 123.416 40.8921C123.412 40.9881 123.437 41.0831 123.488 41.1648C123.538 41.2464 123.613 41.3108 123.701 41.3496C123.789 41.3884 123.886 41.3997 123.981 41.382Z" fill="#263238"/>
<path d="M125.945 44.5545C125.945 44.5545 125.881 44.5545 125.881 44.6261C125.937 45.4848 125.881 46.4787 125.086 46.7887C125.086 46.7887 125.086 46.8444 125.086 46.8365C126.056 46.6536 126.135 45.3576 125.945 44.5545Z" fill="#263238"/>
<path d="M125.149 43.6799C123.766 43.6242 123.75 46.3912 125.03 46.4469C126.31 46.5025 126.31 43.7276 125.149 43.6799Z" fill="#263238"/>
<path d="M124.609 43.823C124.362 43.9821 124.124 44.2524 123.814 44.2842C123.504 44.316 123.225 44.0218 123.019 43.7435H122.971C122.971 44.2683 123.154 44.8169 123.766 44.8964C124.378 44.9759 124.664 44.5068 124.8 43.9741C124.792 43.9105 124.704 43.7594 124.609 43.823Z" fill="#263238"/>
<path d="M130.715 44.3637C130.715 44.3637 130.779 44.3637 130.779 44.4353C130.739 45.294 130.834 46.2879 131.614 46.5821C131.614 46.5821 131.614 46.6377 131.614 46.6298C130.659 46.4866 130.54 45.1668 130.715 44.3637Z" fill="#263238"/>
<path d="M131.494 43.4732C132.87 43.3937 132.941 46.1606 131.661 46.2401C130.381 46.3197 130.333 43.5447 131.494 43.4732Z" fill="#263238"/>
<path d="M132.075 43.6481C132.297 43.7833 132.52 44.0456 132.782 44.0616C133.045 44.0775 133.299 43.7674 133.49 43.4732H133.53C133.53 43.9979 133.395 44.5545 132.894 44.6658C132.393 44.7771 132.099 44.3239 131.94 43.8071C131.916 43.7356 131.987 43.5845 132.075 43.6481Z" fill="#263238"/>
<path d="M129.459 48.2438C129.459 48.2438 129.642 49.5239 129.642 50.1282C129.642 50.1918 129.499 50.2157 129.292 50.2316C128.773 50.3297 128.238 50.2829 127.744 50.0963C127.25 49.9098 126.817 49.5906 126.493 49.1741C126.482 49.1614 126.475 49.1447 126.476 49.1275C126.477 49.1104 126.484 49.0942 126.497 49.0826C126.51 49.071 126.527 49.065 126.544 49.0657C126.561 49.0664 126.577 49.074 126.589 49.0866C127.36 49.6116 128.281 49.8712 129.212 49.8261C129.252 49.6591 128.823 47.6395 128.918 47.6316C129.388 47.6693 129.851 47.7709 130.294 47.9337C129.992 45.2542 129.26 42.6463 128.99 39.9827C128.99 39.9616 128.998 39.9414 129.013 39.9265C129.028 39.9115 129.048 39.9032 129.069 39.9032C129.09 39.9032 129.111 39.9115 129.126 39.9265C129.14 39.9414 129.149 39.9616 129.149 39.9827C130.021 42.7554 130.615 45.608 130.922 48.4982C130.946 48.7686 129.697 48.3233 129.459 48.2438Z" fill="#263238"/>
<path d="M130.429 45.1986C130.238 43.1472 131.184 41.3821 132.536 41.223C133.888 41.064 135.152 42.6542 135.343 44.7056C135.533 46.757 134.548 48.5221 133.236 48.6811C131.924 48.8401 130.62 47.2499 130.429 45.1986ZM130.93 45.1509C131.097 46.9239 132.107 48.2836 133.188 48.1881C134.269 48.0927 135.017 46.5582 134.85 44.7851C134.683 43.012 133.665 41.6524 132.584 41.7478C131.502 41.8432 130.763 43.3778 130.93 45.1509Z" fill="#263238"/>
<path d="M121.086 46.0811C121.069 45.4016 121.251 44.7318 121.61 44.1541C121.968 43.5764 122.487 43.1159 123.103 42.8292C123.72 42.5424 124.406 42.4418 125.079 42.5399C125.752 42.6379 126.381 42.9302 126.89 43.3809C127.399 43.8316 127.765 44.4211 127.944 45.077C128.122 45.7329 128.106 46.4267 127.895 47.0732C127.685 47.7196 127.291 48.2907 126.761 48.7161C126.23 49.1416 125.588 49.403 124.911 49.4683C123.955 49.5227 123.017 49.1972 122.301 48.5627C121.584 47.9282 121.148 47.0362 121.086 46.0811ZM121.587 46.0334C121.689 46.6051 121.954 47.135 122.351 47.5583C122.749 47.9816 123.261 48.28 123.825 48.4171C124.389 48.5543 124.981 48.5242 125.528 48.3305C126.076 48.1368 126.555 47.788 126.907 47.3266C127.26 46.8651 127.47 46.3111 127.513 45.7321C127.555 45.1531 127.429 44.5741 127.148 44.066C126.867 43.5579 126.444 43.1425 125.931 42.8706C125.418 42.5987 124.837 42.4821 124.259 42.535C123.441 42.6457 122.701 43.0762 122.2 43.732C121.699 44.3878 121.479 45.2154 121.587 46.0334Z" fill="#263238"/>
<path d="M127.829 45.1031C129.626 44.308 130.524 44.809 130.532 44.8169L130.803 44.3955C130.763 44.3955 129.697 43.6958 127.622 44.6499L127.829 45.1031Z" fill="#263238"/>
<path d="M121.285 45.7313L121.333 45.2304C120.999 45.2304 113.286 44.5148 112.46 44.5466C111.633 44.5784 109.669 45.9062 109.454 46.0573L109.74 46.4707C110.557 45.853 111.471 45.3748 112.444 45.0554H112.539C113.143 45.0634 118.542 45.4848 121.285 45.7313Z" fill="#263238"/>
<path d="M112.539 45.9141C113.899 45.8346 117.445 42.0738 117.556 35.4903C117.556 35.4903 117.047 41.3979 116.61 42.2646C116.173 43.1313 118.59 40.1496 118.749 34.8463C120.424 36.0412 122.26 36.9916 124.203 37.6689C126.708 38.3686 128.242 38.3447 128.425 38.1619C128.608 37.979 124.911 36.8181 123.909 35.6732C123.909 35.6732 130.588 38.7661 133.657 39.0047C134.015 39.0047 134.452 31.7136 129.682 28.6127C124.911 25.5118 117.397 28.8671 115.37 30.8231C115.37 30.8231 112.984 31.157 110.416 34.6793C107.848 38.2016 111.076 46.0016 112.539 45.9141Z" fill="#263238"/>
<path d="M114.256 47.6236C114.256 47.6236 111.529 43.6481 109.74 44.634C107.951 45.6199 109.971 51.3208 112.062 52.116C112.323 52.2364 112.606 52.3029 112.894 52.3115C113.181 52.32 113.468 52.2705 113.736 52.1658C114.004 52.0612 114.248 51.9035 114.453 51.7023C114.659 51.5011 114.822 51.2605 114.932 50.9949L114.256 47.6236Z" fill="#EB9481"/>
<path d="M110.36 46.256V46.3117C111.823 46.9239 112.587 48.2915 113.119 49.7068C113.036 49.5582 112.921 49.4297 112.783 49.3302C112.644 49.2307 112.486 49.1627 112.319 49.1309C112.151 49.0991 111.979 49.1042 111.814 49.146C111.648 49.1878 111.494 49.2652 111.362 49.3728C111.362 49.3728 111.362 49.4603 111.402 49.4524C111.661 49.3711 111.939 49.3726 112.197 49.4567C112.455 49.5408 112.68 49.7033 112.841 49.9215C113.11 50.2856 113.339 50.6775 113.525 51.0903C113.589 51.2254 113.827 51.1539 113.779 51.0028C113.811 49.0946 112.372 46.4628 110.36 46.256Z" fill="#263238"/>
<path d="M113.819 51.8297C113.821 52.0125 113.768 52.1916 113.668 52.3443C113.567 52.497 113.424 52.6164 113.255 52.6875C113.087 52.7585 112.901 52.7779 112.722 52.7432C112.542 52.7085 112.377 52.6213 112.248 52.4927C112.118 52.364 112.029 52.1997 111.993 52.0205C111.957 51.8414 111.974 51.6556 112.044 51.4866C112.114 51.3176 112.232 51.1731 112.384 51.0714C112.535 50.9697 112.714 50.9154 112.897 50.9153C113.14 50.9153 113.374 51.0114 113.546 51.1827C113.719 51.3539 113.817 51.5865 113.819 51.8297Z" fill="white"/>
<path d="M141.958 127.476C141.958 127.476 99.6107 128.104 89.0994 127.365C89.0994 127.365 97.6706 78.7838 108.977 66.5074C109.398 66.0462 109.844 65.6082 110.313 65.1954C111.005 64.615 110.909 59.9795 111.235 59.6297C111.561 59.2799 125.3 61.0847 125.475 61.4187C125.65 61.7526 126.358 66.1257 126.358 66.1257C129.475 70.1012 139.501 83.8406 140.67 89.5097C141.839 95.1788 138.157 101.436 138.157 101.436L141.958 127.476Z" fill="#4240C2"/>
<path d="M105.741 75.174C103.236 87.2437 104.723 113.339 110.512 118.11C120.053 125.918 142.984 128.199 149.384 128.955C152.143 129.281 157.637 111.224 155.745 108.894C153.853 106.565 125.666 102.939 124.323 101.738C123.392 100.88 119.011 85.1128 115.234 76.2235C110.154 64.1936 106.655 70.7214 105.741 75.174Z" fill="#EB9481"/>
<path d="M150.974 107.439C150.974 107.439 159.434 107.352 164.968 107.559C168.061 107.67 173.333 108.354 175.567 109.467C178.898 111.145 191.779 120.288 189.624 123.461C187.676 126.331 183.844 122.554 183.844 122.554C183.844 122.554 188.424 126.283 185.617 128.541C182.81 130.799 178.27 125.409 178.27 125.409C178.27 125.409 183.407 129.034 180.179 131.149C177.38 132.994 171.504 127.333 171.504 127.333C171.504 127.333 177.316 130.513 174.629 132.716C171.663 135.101 161.788 127.722 161.788 127.722C154.711 129.313 150.251 129.313 145.051 128.462C144.097 128.303 150.974 107.439 150.974 107.439Z" fill="#EB9481"/>
<path d="M179.686 126.665L178.533 125.448C177.819 124.642 177.06 123.878 176.259 123.159C175.464 122.475 174.669 121.823 173.794 121.203C172.919 120.582 171.933 119.962 171.059 119.286C170.987 119.231 170.908 119.334 170.987 119.382C171.856 120.051 172.689 120.765 173.484 121.521C174.279 122.236 175.074 122.968 175.869 123.691C176.664 124.415 177.459 125.059 178.254 125.751C178.644 126.092 179.05 126.45 179.407 126.808C179.746 127.175 180.116 127.513 180.513 127.818C180.552 127.818 180.6 127.818 180.576 127.754C180.319 127.36 180.02 126.995 179.686 126.665Z" fill="#263238"/>
<path d="M184.782 123.349C183.507 121.808 182.125 120.357 180.648 119.008C179.152 117.668 177.524 116.482 175.79 115.47C175.726 115.47 175.662 115.518 175.71 115.565C177.205 116.909 178.724 118.229 180.242 119.541C180.982 120.185 184.257 123.222 184.639 123.516C184.727 123.564 184.838 123.437 184.782 123.349Z" fill="#263238"/>
<path d="M174.971 129.909C173.733 128.486 172.405 127.145 170.995 125.894C169.444 124.751 167.809 123.725 166.105 122.825C166.042 122.825 165.978 122.888 166.034 122.928C167.576 124.073 169.135 125.178 170.621 126.395C171.353 126.991 174.104 129.519 174.851 130.02C174.931 130.068 175.018 129.973 174.971 129.909Z" fill="#263238"/>
<path d="M143.039 129.702L153.129 106.175C153.129 106.175 125.491 101.603 124.641 101.047C123.79 100.49 118.749 82.1391 115.513 74.9355C112.277 67.7318 106.719 63.5019 104.572 78.9666C102.425 94.4314 105.534 113.315 108.643 117.243C112.412 121.998 127.336 128.017 143.039 129.702Z" fill="#4240C2"/>
<path d="M128.839 126.729C124.704 125.607 120.673 123.651 116.721 121.958C113.326 120.535 109.86 118.777 107.975 115.446C107.097 113.75 106.483 111.929 106.154 110.047C105.717 107.948 105.359 105.825 105.057 103.686C104.691 101.248 104.363 98.8045 104.071 96.3555C103.928 95.0993 103.785 93.843 103.658 92.5868C103.531 91.3305 103.3 90.0742 103.252 88.81C103.252 88.7931 103.246 88.777 103.234 88.765C103.222 88.7531 103.206 88.7464 103.189 88.7464C103.172 88.7464 103.156 88.7531 103.144 88.765C103.132 88.777 103.125 88.7931 103.125 88.81C103.213 89.9709 103.125 91.1397 103.22 92.3085C103.22 93.1036 103.316 93.8351 103.372 94.5984L103.149 94.1134C102.904 93.5563 102.717 92.9755 102.592 92.38C102.592 92.3085 102.457 92.3403 102.473 92.38C102.616 92.9763 102.759 93.5806 102.926 94.169C103.006 94.4552 103.101 94.7415 103.213 95.0277C103.279 95.2199 103.356 95.4084 103.443 95.5922C103.634 97.8768 103.88 100.151 104.183 102.414C104.477 104.609 104.819 106.787 105.208 108.966C105.497 110.893 106.009 112.779 106.735 114.587C107.457 116.292 108.561 117.807 109.963 119.016C111.415 120.209 113.02 121.203 114.734 121.974C118.609 123.764 122.614 125.258 126.716 126.442C131.622 127.985 133.116 127.881 128.839 126.729Z" fill="#263238"/>
<path d="M139.215 103.726C138.197 103.591 126.167 101.063 125.698 100.927C125.463 100.856 125.251 100.724 125.082 100.546C124.914 100.367 124.794 100.148 124.736 99.9097C124.362 98.9397 124.036 97.9458 123.686 96.9678C123.082 95.2822 122.467 93.6045 121.842 91.9348C121.842 91.5611 121.77 91.1397 121.73 90.8137C121.691 90.4877 121.611 89.9232 121.54 89.4779C121.381 88.5158 121.094 87.5697 120.975 86.6076C120.975 86.5122 120.824 86.544 120.848 86.6076C121.09 87.555 121.234 88.5248 121.277 89.5018C121.317 89.8834 121.341 90.2969 121.365 90.6547C120.999 89.6767 120.625 88.6987 120.236 87.7287C119.782 86.5996 119.266 85.4626 118.9 84.3018C118.9 84.2223 118.757 84.262 118.781 84.3018C119.194 85.3434 119.488 86.4486 119.814 87.4822C120.14 88.5158 120.49 89.629 120.84 90.7024C121.524 92.8094 122.247 94.9005 122.979 96.9996C123.329 98.0094 123.671 99.0351 124.044 100.037C124.147 100.412 124.349 100.753 124.629 101.023C124.908 101.293 125.256 101.482 125.634 101.571C127.726 102.136 137.951 103.83 139.191 103.877C139.318 103.957 139.35 103.742 139.215 103.726Z" fill="#263238"/>
<path d="M148.017 106.541C146.426 109.92 144.836 113.275 143.397 116.726C141.941 120.121 140.665 123.59 139.573 127.118C139.566 127.134 139.566 127.152 139.573 127.167C139.58 127.183 139.593 127.195 139.608 127.202C139.624 127.208 139.642 127.208 139.658 127.201C139.673 127.194 139.686 127.182 139.692 127.166C141.282 123.85 142.674 120.407 144.081 116.996C145.488 113.585 146.768 110.079 148.192 106.66C148.263 106.517 148.08 106.406 148.017 106.541Z" fill="#263238"/>
<path d="M177.738 103.853C176.521 104.537 169.556 102.613 166.733 104.728C164.865 106.127 163.036 109.499 162.639 113.896C162.233 118.436 165.819 118.205 167.147 116.281C168.765 113.748 170.177 111.089 171.369 108.33C172.646 108.584 173.905 108.921 175.138 109.34L177.738 103.853Z" fill="#AD6359"/>
<path d="M169.198 119.7C167.043 117.442 156.278 125.719 159.657 129.48C163.036 133.24 171.631 122.26 169.198 119.7Z" fill="#AD6359"/>
<path d="M172.792 122.936C170.637 120.678 159.872 128.955 163.251 132.716C166.63 136.477 175.225 125.496 172.792 122.936Z" fill="#AD6359"/>
<path d="M175.623 124.081C173.357 122.324 164.722 131.348 168.339 134.29C171.957 137.232 178.191 126.069 175.623 124.081Z" fill="#AD6359"/>
<path d="M178.7 124.574C176.1 123.58 170.621 134.393 174.812 136.103C179.002 137.812 181.65 125.663 178.7 124.574Z" fill="#AD6359"/>
<path d="M168.88 123.421C168.282 123.821 167.718 124.271 167.195 124.765C166.614 125.274 166.042 125.79 165.517 126.355C165.005 126.889 164.525 127.451 164.078 128.04C163.609 128.677 163.219 129.368 162.742 129.988C162.733 129.994 162.726 130.002 162.721 130.011C162.716 130.019 162.713 130.029 162.713 130.04C162.712 130.05 162.715 130.06 162.719 130.069C162.723 130.079 162.73 130.087 162.738 130.093C162.746 130.099 162.756 130.103 162.766 130.105C162.776 130.106 162.787 130.106 162.796 130.102C162.806 130.099 162.815 130.094 162.822 130.086C162.829 130.079 162.834 130.07 162.837 130.06C163.309 129.46 163.821 128.894 164.372 128.366C164.889 127.826 165.374 127.261 165.891 126.713C166.407 126.164 166.869 125.631 167.377 125.122C167.886 124.614 168.459 124.089 168.968 123.532C168.991 123.461 168.936 123.389 168.88 123.421Z" fill="#263238"/>
<path d="M173.158 124.431C172.697 125.138 171.083 127.881 170.59 128.573C170.097 129.265 169.58 129.957 169.055 130.633C168.53 131.308 168.021 132.048 167.425 132.684C167.377 132.74 167.465 132.827 167.521 132.771C168.117 132.135 168.769 131.555 169.333 130.887C169.898 130.219 170.415 129.543 170.924 128.836C171.807 127.433 172.603 125.978 173.309 124.478C173.309 124.407 173.198 124.367 173.158 124.431Z" fill="#263238"/>
<path d="M176.147 125.973C175.67 127.023 175.257 128.112 174.772 129.154C174.533 129.67 174.287 130.187 174.048 130.744L173.714 131.499C173.609 131.8 173.476 132.09 173.317 132.366C173.269 132.429 173.396 132.501 173.428 132.414C173.588 132.099 173.774 131.798 173.985 131.515C174.12 131.277 174.263 131.038 174.39 130.799C174.661 130.269 174.907 129.753 175.13 129.249C175.594 128.219 175.982 127.156 176.291 126.069C176.303 126.05 176.308 126.026 176.303 126.004C176.299 125.982 176.286 125.962 176.267 125.949C176.248 125.937 176.224 125.932 176.202 125.937C176.18 125.941 176.16 125.954 176.147 125.973Z" fill="#263238"/>
<path d="M183.168 35.6016C182.788 39.2337 181.406 42.6887 179.177 45.5812C176.947 48.4737 173.958 50.6901 170.543 51.983C167.128 53.2759 163.42 53.5946 159.834 52.9034C156.249 52.2123 152.925 50.5386 150.235 48.0689L140.368 49.516L145.305 40.9925C144.022 37.8393 143.578 34.4076 144.015 31.0316C144.452 27.6556 145.756 24.4504 147.801 21.7282C149.845 19.006 152.559 16.8596 155.679 15.4981C158.799 14.1365 162.218 13.6062 165.604 13.9589C170.802 14.5022 175.572 17.087 178.866 21.1452C182.159 25.2034 183.706 30.403 183.168 35.6016Z" fill="white"/>
<path d="M183.168 35.6017C182.785 39.2324 181.41 42.6876 179.193 45.5882C178.644 46.3125 178.049 47.0004 177.412 47.6475C176.754 48.2758 176.059 48.8627 175.328 49.4047C173.873 50.5112 172.267 51.4029 170.558 52.0524C168.859 52.7221 167.073 53.1478 165.254 53.3166C164.345 53.4026 163.431 53.4212 162.519 53.3722C161.604 53.349 160.692 53.2533 159.792 53.086C156.16 52.4322 152.782 50.7803 150.036 48.3154L150.275 48.3869L140.431 49.834L139.716 49.9454L140.074 49.3172L144.979 40.7778V41.1117C143.829 38.2945 143.338 35.2514 143.545 32.2154C143.752 29.1794 144.65 26.2309 146.172 23.5956C147.706 20.9663 149.815 18.7183 152.342 17.0201C155.482 14.9178 159.156 13.7541 162.934 13.6654C166.712 13.5768 170.437 14.5668 173.672 16.5195C176.907 18.4721 179.519 21.3065 181.201 24.6904C182.883 28.0744 183.565 31.8676 183.168 35.6255V35.6017ZM183.168 35.6017C183.482 32.6335 183.111 29.6329 182.083 26.8307C181.056 24.0286 179.398 21.4998 177.239 19.439C175.08 17.3782 172.477 15.8404 169.63 14.9441C166.783 14.0478 163.768 13.8168 160.818 14.269C157.898 14.6979 155.114 15.7855 152.676 17.4494C150.268 19.1405 148.258 21.3355 146.784 23.8818C145.328 26.4362 144.471 29.2883 144.28 32.2225C144.099 35.1494 144.572 38.0799 145.663 40.8017L145.735 40.9766L145.639 41.1435L140.678 49.6512L140.328 49.1264L150.195 47.7429H150.33L150.434 47.8304C153.065 50.2948 156.33 51.9795 159.864 52.6964C160.747 52.8725 161.643 52.9814 162.543 53.0224C163.441 53.0859 164.341 53.0859 165.239 53.0224C167.039 52.8833 168.81 52.4925 170.502 51.8616C172.211 51.2507 173.819 50.3877 175.273 49.3013C176.752 48.2542 178.058 46.9826 179.145 45.5325C181.37 42.6529 182.761 39.2178 183.168 35.6017Z" fill="#263238"/>
<path d="M161.255 44.7931L152.843 36.2695L155.666 33.4787L160.587 38.4561L170.804 22.4347L174.152 24.5736L161.255 44.7931Z" fill="#4240C2"/>
</svg>
